<svg width="188" height="50" viewBox="0 0 188 50" fill="none" xmlns="http://www.w3.org/2000/svg">
<g filter="url(#filter0_d_6000_3481)">
<rect x="7" y="7" width="172" height="34" rx="4" fill="#F8F8F8" shape-rendering="crispEdges"/>
<rect x="7.5" y="7.5" width="171" height="33" rx="3.5" stroke="#CCCCCC" shape-rendering="crispEdges"/>
<path d="M30.9574 30L28.0774 24.996H26.5114V30H24.4594V17.49H28.7794C29.7394 17.49 30.5494 17.658 31.2094 17.994C31.8814 18.33 32.3794 18.78 32.7034 19.344C33.0394 19.908 33.2074 20.538 33.2074 21.234C33.2074 22.05 32.9674 22.794 32.4874 23.466C32.0194 24.126 31.2934 24.576 30.3094 24.816L33.4054 30H30.9574ZM26.5114 23.358H28.7794C29.5474 23.358 30.1234 23.166 30.5074 22.782C30.9034 22.398 31.1014 21.882 31.1014 21.234C31.1014 20.586 30.9094 20.082 30.5254 19.722C30.1414 19.35 29.5594 19.164 28.7794 19.164H26.5114V23.358ZM44.9224 24.798C44.9224 25.17 44.8984 25.506 44.8504 25.806H37.2724C37.3324 26.598 37.6264 27.234 38.1544 27.714C38.6824 28.194 39.3304 28.434 40.0984 28.434C41.2024 28.434 41.9824 27.972 42.4384 27.048H44.6524C44.3524 27.96 43.8064 28.71 43.0144 29.298C42.2344 29.874 41.2624 30.162 40.0984 30.162C39.1504 30.162 38.2984 29.952 37.5424 29.532C36.7984 29.1 36.2104 28.5 35.7784 27.732C35.3584 26.952 35.1484 26.052 35.1484 25.032C35.1484 24.012 35.3524 23.118 35.7604 22.35C36.1804 21.57 36.7624 20.97 37.5064 20.55C38.2624 20.13 39.1264 19.92 40.0984 19.92C41.0344 19.92 41.8684 20.124 42.6004 20.532C43.3324 20.94 43.9024 21.516 44.3104 22.26C44.7184 22.992 44.9224 23.838 44.9224 24.798ZM42.7804 24.15C42.7684 23.394 42.4984 22.788 41.9704 22.332C41.4424 21.876 40.7884 21.648 40.0084 21.648C39.3004 21.648 38.6944 21.876 38.1904 22.332C37.6864 22.776 37.3864 23.382 37.2904 24.15H42.7804ZM48.9938 21.54C49.3418 21.084 49.8158 20.7 50.4158 20.388C51.0158 20.076 51.6938 19.92 52.4498 19.92C53.3138 19.92 54.0998 20.136 54.8078 20.568C55.5278 20.988 56.0918 21.582 56.4998 22.35C56.9078 23.118 57.1118 24 57.1118 24.996C57.1118 25.992 56.9078 26.886 56.4998 27.678C56.0918 28.458 55.5278 29.07 54.8078 29.514C54.0998 29.946 53.3138 30.162 52.4498 30.162C51.6938 30.162 51.0218 30.012 50.4338 29.712C49.8458 29.4 49.3658 29.016 48.9938 28.56V34.716H46.9418V20.082H48.9938V21.54ZM55.0238 24.996C55.0238 24.312 54.8798 23.724 54.5918 23.232C54.3158 22.728 53.9438 22.35 53.4758 22.098C53.0198 21.834 52.5278 21.702 51.9998 21.702C51.4838 21.702 50.9918 21.834 50.5238 22.098C50.0678 22.362 49.6958 22.746 49.4078 23.25C49.1318 23.754 48.9938 24.348 48.9938 25.032C48.9938 25.716 49.1318 26.316 49.4078 26.832C49.6958 27.336 50.0678 27.72 50.5238 27.984C50.9918 28.248 51.4838 28.38 51.9998 28.38C52.5278 28.38 53.0198 28.248 53.4758 27.984C53.9438 27.708 54.3158 27.312 54.5918 26.796C54.8798 26.28 55.0238 25.68 55.0238 24.996ZM63.443 30.162C62.507 30.162 61.661 29.952 60.905 29.532C60.149 29.1 59.555 28.5 59.123 27.732C58.691 26.952 58.475 26.052 58.475 25.032C58.475 24.024 58.697 23.13 59.141 22.35C59.585 21.57 60.191 20.97 60.959 20.55C61.727 20.13 62.585 19.92 63.533 19.92C64.481 19.92 65.339 20.13 66.107 20.55C66.875 20.97 67.481 21.57 67.925 22.35C68.369 23.13 68.591 24.024 68.591 25.032C68.591 26.04 68.363 26.934 67.907 27.714C67.451 28.494 66.827 29.1 66.035 29.532C65.255 29.952 64.391 30.162 63.443 30.162ZM63.443 28.38C63.971 28.38 64.463 28.254 64.919 28.002C65.387 27.75 65.765 27.372 66.053 26.868C66.341 26.364 66.485 25.752 66.485 25.032C66.485 24.312 66.347 23.706 66.071 23.214C65.795 22.71 65.429 22.332 64.973 22.08C64.517 21.828 64.025 21.702 63.497 21.702C62.969 21.702 62.477 21.828 62.021 22.08C61.577 22.332 61.223 22.71 60.959 23.214C60.695 23.706 60.563 24.312 60.563 25.032C60.563 26.1 60.833 26.928 61.373 27.516C61.925 28.092 62.615 28.38 63.443 28.38ZM72.6715 21.522C72.9715 21.018 73.3675 20.628 73.8595 20.352C74.3635 20.064 74.9575 19.92 75.6415 19.92V22.044H75.1195C74.3155 22.044 73.7035 22.248 73.2835 22.656C72.8755 23.064 72.6715 23.772 72.6715 24.78V30H70.6195V20.082H72.6715V21.522ZM79.9217 21.756V27.246C79.9217 27.618 80.0057 27.888 80.1737 28.056C80.3537 28.212 80.6537 28.29 81.0737 28.29H82.3337V30H80.7137C79.7897 30 79.0817 29.784 78.5897 29.352C78.0977 28.92 77.8517 28.218 77.8517 27.246V21.756H76.6817V20.082H77.8517V17.616H79.9217V20.082H82.3337V21.756H79.9217ZM88.2168 24.996C88.2168 24 88.4208 23.118 88.8288 22.35C89.2488 21.582 89.8128 20.988 90.5208 20.568C91.2408 20.136 92.0328 19.92 92.8968 19.92C93.6768 19.92 94.3548 20.076 94.9308 20.388C95.5188 20.688 95.9868 21.066 96.3348 21.522V20.082H98.4048V30H96.3348V28.524C95.9868 28.992 95.5128 29.382 94.9128 29.694C94.3128 30.006 93.6288 30.162 92.8608 30.162C92.0088 30.162 91.2288 29.946 90.5208 29.514C89.8128 29.07 89.2488 28.458 88.8288 27.678C88.4208 26.886 88.2168 25.992 88.2168 24.996ZM96.3348 25.032C96.3348 24.348 96.1908 23.754 95.9028 23.25C95.6268 22.746 95.2608 22.362 94.8048 22.098C94.3488 21.834 93.8568 21.702 93.3288 21.702C92.8008 21.702 92.3088 21.834 91.8528 22.098C91.3968 22.35 91.0248 22.728 90.7368 23.232C90.4608 23.724 90.3228 24.312 90.3228 24.996C90.3228 25.68 90.4608 26.28 90.7368 26.796C91.0248 27.312 91.3968 27.708 91.8528 27.984C92.3208 28.248 92.8128 28.38 93.3288 28.38C93.8568 28.38 94.3488 28.248 94.8048 27.984C95.2608 27.72 95.6268 27.336 95.9028 26.832C96.1908 26.316 96.3348 25.716 96.3348 25.032ZM106.104 19.92C106.884 19.92 107.58 20.082 108.192 20.406C108.816 20.73 109.302 21.21 109.65 21.846C109.998 22.482 110.172 23.25 110.172 24.15V30H108.138V24.456C108.138 23.568 107.916 22.89 107.472 22.422C107.028 21.942 106.422 21.702 105.654 21.702C104.886 21.702 104.274 21.942 103.818 22.422C103.374 22.89 103.152 23.568 103.152 24.456V30H101.1V20.082H103.152V21.216C103.488 20.808 103.914 20.49 104.43 20.262C104.958 20.034 105.516 19.92 106.104 19.92ZM119.517 17.49V30H117.465V17.49H119.517ZM125.811 30.162C125.031 30.162 124.329 30.024 123.705 29.748C123.093 29.46 122.607 29.076 122.247 28.596C121.887 28.104 121.695 27.558 121.671 26.958H123.795C123.831 27.378 124.029 27.732 124.389 28.02C124.761 28.296 125.223 28.434 125.775 28.434C126.351 28.434 126.795 28.326 127.107 28.11C127.431 27.882 127.593 27.594 127.593 27.246C127.593 26.874 127.413 26.598 127.053 26.418C126.705 26.238 126.147 26.04 125.379 25.824C124.635 25.62 124.029 25.422 123.561 25.23C123.093 25.038 122.685 24.744 122.337 24.348C122.001 23.952 121.833 23.43 121.833 22.782C121.833 22.254 121.989 21.774 122.301 21.342C122.613 20.898 123.057 20.55 123.633 20.298C124.221 20.046 124.893 19.92 125.649 19.92C126.777 19.92 127.683 20.208 128.367 20.784C129.063 21.348 129.435 22.122 129.483 23.106H127.431C127.395 22.662 127.215 22.308 126.891 22.044C126.567 21.78 126.129 21.648 125.577 21.648C125.037 21.648 124.623 21.75 124.335 21.954C124.047 22.158 123.903 22.428 123.903 22.764C123.903 23.028 123.999 23.25 124.191 23.43C124.383 23.61 124.617 23.754 124.893 23.862C125.169 23.958 125.577 24.084 126.117 24.24C126.837 24.432 127.425 24.63 127.881 24.834C128.349 25.026 128.751 25.314 129.087 25.698C129.423 26.082 129.597 26.592 129.609 27.228C129.609 27.792 129.453 28.296 129.141 28.74C128.829 29.184 128.385 29.532 127.809 29.784C127.245 30.036 126.579 30.162 125.811 30.162ZM135.427 30.162C134.647 30.162 133.945 30.024 133.321 29.748C132.709 29.46 132.223 29.076 131.863 28.596C131.503 28.104 131.311 27.558 131.287 26.958H133.411C133.447 27.378 133.645 27.732 134.005 28.02C134.377 28.296 134.839 28.434 135.391 28.434C135.967 28.434 136.411 28.326 136.723 28.11C137.047 27.882 137.209 27.594 137.209 27.246C137.209 26.874 137.029 26.598 136.669 26.418C136.321 26.238 135.763 26.04 134.995 25.824C134.251 25.62 133.645 25.422 133.177 25.23C132.709 25.038 132.301 24.744 131.953 24.348C131.617 23.952 131.449 23.43 131.449 22.782C131.449 22.254 131.605 21.774 131.917 21.342C132.229 20.898 132.673 20.55 133.249 20.298C133.837 20.046 134.509 19.92 135.265 19.92C136.393 19.92 137.299 20.208 137.983 20.784C138.679 21.348 139.051 22.122 139.099 23.106H137.047C137.011 22.662 136.831 22.308 136.507 22.044C136.183 21.78 135.745 21.648 135.193 21.648C134.653 21.648 134.239 21.75 133.951 21.954C133.663 22.158 133.519 22.428 133.519 22.764C133.519 23.028 133.615 23.25 133.807 23.43C133.999 23.61 134.233 23.754 134.509 23.862C134.785 23.958 135.193 24.084 135.733 24.24C136.453 24.432 137.041 24.63 137.497 24.834C137.965 25.026 138.367 25.314 138.703 25.698C139.039 26.082 139.213 26.592 139.225 27.228C139.225 27.792 139.069 28.296 138.757 28.74C138.445 29.184 138.001 29.532 137.425 29.784C136.861 30.036 136.195 30.162 135.427 30.162ZM150.424 20.082V30H148.372V28.83C148.048 29.238 147.622 29.562 147.094 29.802C146.578 30.03 146.026 30.144 145.438 30.144C144.658 30.144 143.956 29.982 143.332 29.658C142.72 29.334 142.234 28.854 141.874 28.218C141.526 27.582 141.352 26.814 141.352 25.914V20.082H143.386V25.608C143.386 26.496 143.608 27.18 144.052 27.66C144.496 28.128 145.102 28.362 145.87 28.362C146.638 28.362 147.244 28.128 147.688 27.66C148.144 27.18 148.372 26.496 148.372 25.608V20.082H150.424ZM162.221 24.798C162.221 25.17 162.197 25.506 162.149 25.806H154.571C154.631 26.598 154.925 27.234 155.453 27.714C155.981 28.194 156.629 28.434 157.397 28.434C158.501 28.434 159.281 27.972 159.737 27.048H161.951C161.651 27.96 161.105 28.71 160.313 29.298C159.533 29.874 158.561 30.162 157.397 30.162C156.449 30.162 155.597 29.952 154.841 29.532C154.097 29.1 153.509 28.5 153.077 27.732C152.657 26.952 152.447 26.052 152.447 25.032C152.447 24.012 152.651 23.118 153.059 22.35C153.479 21.57 154.061 20.97 154.805 20.55C155.561 20.13 156.425 19.92 157.397 19.92C158.333 19.92 159.167 20.124 159.899 20.532C160.631 20.94 161.201 21.516 161.609 22.26C162.017 22.992 162.221 23.838 162.221 24.798ZM160.079 24.15C160.067 23.394 159.797 22.788 159.269 22.332C158.741 21.876 158.087 21.648 157.307 21.648C156.599 21.648 155.993 21.876 155.489 22.332C154.985 22.776 154.685 23.382 154.589 24.15H160.079Z" fill="#0F0F0F"/>
</g>
<defs>
<filter id="filter0_d_6000_3481" x="0" y="0" width="188" height="50" filterUnits="userSpaceOnUse" color-interpolation-filters="sRGB">
<feFlood flood-opacity="0" result="BackgroundImageFix"/>
<feColorMatrix in="SourceAlpha" type="matrix" values="0 0 0 0 0 0 0 0 0 0 0 0 0 0 0 0 0 0 127 0" result="hardAlpha"/>
<feOffset dx="1" dy="1"/>
<feGaussianBlur stdDeviation="4"/>
<feComposite in2="hardAlpha" operator="out"/>
<feColorMatrix type="matrix" values="0 0 0 0 0 0 0 0 0 0 0 0 0 0 0 0 0 0 0.5 0"/>
<feBlend mode="normal" in2="BackgroundImageFix" result="effect1_dropShadow_6000_3481"/>
<feBlend mode="normal" in="SourceGraphic" in2="effect1_dropShadow_6000_3481" result="shape"/>
</filter>
</defs>
</svg>
