<svg width="195" height="50" viewBox="0 0 195 50" fill="none" xmlns="http://www.w3.org/2000/svg">
<g filter="url(#filter0_d_6000_3487)">
<rect x="7" y="7" width="179" height="34" rx="4" fill="#F8F8F8" shape-rendering="crispEdges"/>
<rect x="7.5" y="7.5" width="178" height="33" rx="3.5" stroke="#CCCCCC" shape-rendering="crispEdges"/>
<path d="M28.8294 30.126C27.9894 30.126 27.2334 29.982 26.5614 29.694C25.8894 29.394 25.3614 28.974 24.9774 28.434C24.5934 27.894 24.4014 27.264 24.4014 26.544H26.5974C26.6454 27.084 26.8554 27.528 27.2274 27.876C27.6114 28.224 28.1454 28.398 28.8294 28.398C29.5374 28.398 30.0894 28.23 30.4854 27.894C30.8814 27.546 31.0794 27.102 31.0794 26.562C31.0794 26.142 30.9534 25.8 30.7014 25.536C30.4614 25.272 30.1554 25.068 29.7834 24.924C29.4234 24.78 28.9194 24.624 28.2714 24.456C27.4554 24.24 26.7894 24.024 26.2734 23.808C25.7694 23.58 25.3374 23.232 24.9774 22.764C24.6174 22.296 24.4374 21.672 24.4374 20.892C24.4374 20.172 24.6174 19.542 24.9774 19.002C25.3374 18.462 25.8414 18.048 26.4894 17.76C27.1374 17.472 27.8874 17.328 28.7394 17.328C29.9514 17.328 30.9414 17.634 31.7094 18.246C32.4894 18.846 32.9214 19.674 33.0054 20.73H30.7374C30.7014 20.274 30.4854 19.884 30.0894 19.56C29.6934 19.236 29.1714 19.074 28.5234 19.074C27.9354 19.074 27.4554 19.224 27.0834 19.524C26.7114 19.824 26.5254 20.256 26.5254 20.82C26.5254 21.204 26.6394 21.522 26.8674 21.774C27.1074 22.014 27.4074 22.206 27.7674 22.35C28.1274 22.494 28.6194 22.65 29.2434 22.818C30.0714 23.046 30.7434 23.274 31.2594 23.502C31.7874 23.73 32.2314 24.084 32.5914 24.564C32.9634 25.032 33.1494 25.662 33.1494 26.454C33.1494 27.09 32.9754 27.69 32.6274 28.254C32.2914 28.818 31.7934 29.274 31.1334 29.622C30.4854 29.958 29.7174 30.126 28.8294 30.126ZM40.7007 19.92C41.4567 19.92 42.1287 20.082 42.7167 20.406C43.3167 20.73 43.7847 21.21 44.1207 21.846C44.4687 22.482 44.6427 23.25 44.6427 24.15V30H42.6087V24.456C42.6087 23.568 42.3867 22.89 41.9427 22.422C41.4987 21.942 40.8927 21.702 40.1247 21.702C39.3567 21.702 38.7447 21.942 38.2887 22.422C37.8447 22.89 37.6227 23.568 37.6227 24.456V30H35.5707V16.68H37.6227V21.234C37.9707 20.814 38.4087 20.49 38.9367 20.262C39.4767 20.034 40.0647 19.92 40.7007 19.92ZM46.5762 24.996C46.5762 24 46.7802 23.118 47.1882 22.35C47.6082 21.582 48.1722 20.988 48.8802 20.568C49.6002 20.136 50.3922 19.92 51.2562 19.92C52.0362 19.92 52.7142 20.076 53.2902 20.388C53.8782 20.688 54.3462 21.066 54.6942 21.522V20.082H56.7642V30H54.6942V28.524C54.3462 28.992 53.8722 29.382 53.2722 29.694C52.6722 30.006 51.9882 30.162 51.2202 30.162C50.3682 30.162 49.5882 29.946 48.8802 29.514C48.1722 29.07 47.6082 28.458 47.1882 27.678C46.7802 26.886 46.5762 25.992 46.5762 24.996ZM54.6942 25.032C54.6942 24.348 54.5502 23.754 54.2622 23.25C53.9862 22.746 53.6202 22.362 53.1642 22.098C52.7082 21.834 52.2162 21.702 51.6882 21.702C51.1602 21.702 50.6682 21.834 50.2122 22.098C49.7562 22.35 49.3842 22.728 49.0962 23.232C48.8202 23.724 48.6822 24.312 48.6822 24.996C48.6822 25.68 48.8202 26.28 49.0962 26.796C49.3842 27.312 49.7562 27.708 50.2122 27.984C50.6802 28.248 51.1722 28.38 51.6882 28.38C52.2162 28.38 52.7082 28.248 53.1642 27.984C53.6202 27.72 53.9862 27.336 54.2622 26.832C54.5502 26.316 54.6942 25.716 54.6942 25.032ZM61.5114 21.522C61.8114 21.018 62.2074 20.628 62.6994 20.352C63.2034 20.064 63.7974 19.92 64.4814 19.92V22.044H63.9594C63.1554 22.044 62.5434 22.248 62.1234 22.656C61.7154 23.064 61.5114 23.772 61.5114 24.78V30H59.4594V20.082H61.5114V21.522ZM75.4576 24.798C75.4576 25.17 75.4336 25.506 75.3856 25.806H67.8076C67.8676 26.598 68.1616 27.234 68.6896 27.714C69.2176 28.194 69.8656 28.434 70.6336 28.434C71.7376 28.434 72.5176 27.972 72.9736 27.048H75.1876C74.8876 27.96 74.3416 28.71 73.5496 29.298C72.7696 29.874 71.7976 30.162 70.6336 30.162C69.6856 30.162 68.8336 29.952 68.0776 29.532C67.3336 29.1 66.7456 28.5 66.3136 27.732C65.8936 26.952 65.6836 26.052 65.6836 25.032C65.6836 24.012 65.8876 23.118 66.2956 22.35C66.7156 21.57 67.2976 20.97 68.0416 20.55C68.7976 20.13 69.6616 19.92 70.6336 19.92C71.5696 19.92 72.4036 20.124 73.1356 20.532C73.8676 20.94 74.4376 21.516 74.8456 22.26C75.2536 22.992 75.4576 23.838 75.4576 24.798ZM73.3156 24.15C73.3036 23.394 73.0336 22.788 72.5056 22.332C71.9776 21.876 71.3236 21.648 70.5436 21.648C69.8356 21.648 69.2296 21.876 68.7256 22.332C68.2216 22.776 67.9216 23.382 67.8256 24.15H73.3156ZM89.5147 17.49V19.164H84.2047V22.854H88.3447V24.528H84.2047V30H82.1527V17.49H89.5147ZM100.506 24.798C100.506 25.17 100.482 25.506 100.434 25.806H92.8564C92.9164 26.598 93.2104 27.234 93.7384 27.714C94.2664 28.194 94.9144 28.434 95.6824 28.434C96.7864 28.434 97.5664 27.972 98.0224 27.048H100.236C99.9364 27.96 99.3904 28.71 98.5984 29.298C97.8184 29.874 96.8464 30.162 95.6824 30.162C94.7344 30.162 93.8824 29.952 93.1264 29.532C92.3824 29.1 91.7944 28.5 91.3624 27.732C90.9424 26.952 90.7324 26.052 90.7324 25.032C90.7324 24.012 90.9364 23.118 91.3444 22.35C91.7644 21.57 92.3464 20.97 93.0904 20.55C93.8464 20.13 94.7104 19.92 95.6824 19.92C96.6184 19.92 97.4524 20.124 98.1844 20.532C98.9164 20.94 99.4864 21.516 99.8944 22.26C100.302 22.992 100.506 23.838 100.506 24.798ZM98.3644 24.15C98.3524 23.394 98.0824 22.788 97.5544 22.332C97.0264 21.876 96.3724 21.648 95.5924 21.648C94.8844 21.648 94.2784 21.876 93.7744 22.332C93.2704 22.776 92.9704 23.382 92.8744 24.15H98.3644ZM111.616 24.798C111.616 25.17 111.592 25.506 111.544 25.806H103.966C104.026 26.598 104.32 27.234 104.848 27.714C105.376 28.194 106.024 28.434 106.792 28.434C107.896 28.434 108.676 27.972 109.132 27.048H111.346C111.046 27.96 110.5 28.71 109.708 29.298C108.928 29.874 107.956 30.162 106.792 30.162C105.844 30.162 104.992 29.952 104.236 29.532C103.492 29.1 102.904 28.5 102.472 27.732C102.052 26.952 101.842 26.052 101.842 25.032C101.842 24.012 102.046 23.118 102.454 22.35C102.874 21.57 103.456 20.97 104.2 20.55C104.956 20.13 105.82 19.92 106.792 19.92C107.728 19.92 108.562 20.124 109.294 20.532C110.026 20.94 110.596 21.516 111.004 22.26C111.412 22.992 111.616 23.838 111.616 24.798ZM109.474 24.15C109.462 23.394 109.192 22.788 108.664 22.332C108.136 21.876 107.482 21.648 106.702 21.648C105.994 21.648 105.388 21.876 104.884 22.332C104.38 22.776 104.08 23.382 103.984 24.15H109.474ZM112.951 24.996C112.951 24 113.155 23.118 113.563 22.35C113.983 21.582 114.547 20.988 115.255 20.568C115.975 20.136 116.773 19.92 117.649 19.92C118.297 19.92 118.933 20.064 119.557 20.352C120.193 20.628 120.697 21 121.069 21.468V16.68H123.139V30H121.069V28.506C120.733 28.986 120.265 29.382 119.665 29.694C119.077 30.006 118.399 30.162 117.631 30.162C116.767 30.162 115.975 29.946 115.255 29.514C114.547 29.07 113.983 28.458 113.563 27.678C113.155 26.886 112.951 25.992 112.951 24.996ZM121.069 25.032C121.069 24.348 120.925 23.754 120.637 23.25C120.361 22.746 119.995 22.362 119.539 22.098C119.083 21.834 118.591 21.702 118.063 21.702C117.535 21.702 117.043 21.834 116.587 22.098C116.131 22.35 115.759 22.728 115.471 23.232C115.195 23.724 115.057 24.312 115.057 24.996C115.057 25.68 115.195 26.28 115.471 26.796C115.759 27.312 116.131 27.708 116.587 27.984C117.055 28.248 117.547 28.38 118.063 28.38C118.591 28.38 119.083 28.248 119.539 27.984C119.995 27.72 120.361 27.336 120.637 26.832C120.925 26.316 121.069 25.716 121.069 25.032ZM127.886 21.558C128.234 21.078 128.708 20.688 129.308 20.388C129.92 20.076 130.598 19.92 131.342 19.92C132.218 19.92 133.01 20.13 133.718 20.55C134.426 20.97 134.984 21.57 135.392 22.35C135.8 23.118 136.004 24 136.004 24.996C136.004 25.992 135.8 26.886 135.392 27.678C134.984 28.458 134.42 29.07 133.7 29.514C132.992 29.946 132.206 30.162 131.342 30.162C130.574 30.162 129.89 30.012 129.29 29.712C128.702 29.412 128.234 29.028 127.886 28.56V30H125.834V16.68H127.886V21.558ZM133.916 24.996C133.916 24.312 133.772 23.724 133.484 23.232C133.208 22.728 132.836 22.35 132.368 22.098C131.912 21.834 131.42 21.702 130.892 21.702C130.376 21.702 129.884 21.834 129.416 22.098C128.96 22.362 128.588 22.746 128.3 23.25C128.024 23.754 127.886 24.348 127.886 25.032C127.886 25.716 128.024 26.316 128.3 26.832C128.588 27.336 128.96 27.72 129.416 27.984C129.884 28.248 130.376 28.38 130.892 28.38C131.42 28.38 131.912 28.248 132.368 27.984C132.836 27.708 133.208 27.312 133.484 26.796C133.772 26.28 133.916 25.68 133.916 24.996ZM137.35 24.996C137.35 24 137.554 23.118 137.962 22.35C138.382 21.582 138.946 20.988 139.654 20.568C140.374 20.136 141.166 19.92 142.03 19.92C142.81 19.92 143.488 20.076 144.064 20.388C144.652 20.688 145.12 21.066 145.468 21.522V20.082H147.538V30H145.468V28.524C145.12 28.992 144.646 29.382 144.046 29.694C143.446 30.006 142.762 30.162 141.994 30.162C141.142 30.162 140.362 29.946 139.654 29.514C138.946 29.07 138.382 28.458 137.962 27.678C137.554 26.886 137.35 25.992 137.35 24.996ZM145.468 25.032C145.468 24.348 145.324 23.754 145.036 23.25C144.76 22.746 144.394 22.362 143.938 22.098C143.482 21.834 142.99 21.702 142.462 21.702C141.934 21.702 141.442 21.834 140.986 22.098C140.53 22.35 140.158 22.728 139.87 23.232C139.594 23.724 139.456 24.312 139.456 24.996C139.456 25.68 139.594 26.28 139.87 26.796C140.158 27.312 140.53 27.708 140.986 27.984C141.454 28.248 141.946 28.38 142.462 28.38C142.99 28.38 143.482 28.248 143.938 27.984C144.394 27.72 144.76 27.336 145.036 26.832C145.324 26.316 145.468 25.716 145.468 25.032ZM149.549 25.032C149.549 24.012 149.753 23.118 150.161 22.35C150.581 21.57 151.157 20.97 151.889 20.55C152.621 20.13 153.461 19.92 154.409 19.92C155.609 19.92 156.599 20.208 157.379 20.784C158.171 21.348 158.705 22.158 158.981 23.214H156.767C156.587 22.722 156.299 22.338 155.903 22.062C155.507 21.786 155.009 21.648 154.409 21.648C153.569 21.648 152.897 21.948 152.393 22.548C151.901 23.136 151.655 23.964 151.655 25.032C151.655 26.1 151.901 26.934 152.393 27.534C152.897 28.134 153.569 28.434 154.409 28.434C155.597 28.434 156.383 27.912 156.767 26.868H158.981C158.693 27.876 158.153 28.68 157.361 29.28C156.569 29.868 155.585 30.162 154.409 30.162C153.461 30.162 152.621 29.952 151.889 29.532C151.157 29.1 150.581 28.5 150.161 27.732C149.753 26.952 149.549 26.052 149.549 25.032ZM164.95 25.05L169.522 30H166.75L163.078 25.734V30H161.026V16.68H163.078V24.42L166.678 20.082H169.522L164.95 25.05Z" fill="#0F0F0F"/>
</g>
<defs>
<filter id="filter0_d_6000_3487" x="0" y="0" width="195" height="50" filterUnits="userSpaceOnUse" color-interpolation-filters="sRGB">
<feFlood flood-opacity="0" result="BackgroundImageFix"/>
<feColorMatrix in="SourceAlpha" type="matrix" values="0 0 0 0 0 0 0 0 0 0 0 0 0 0 0 0 0 0 127 0" result="hardAlpha"/>
<feOffset dx="1" dy="1"/>
<feGaussianBlur stdDeviation="4"/>
<feComposite in2="hardAlpha" operator="out"/>
<feColorMatrix type="matrix" values="0 0 0 0 0 0 0 0 0 0 0 0 0 0 0 0 0 0 0.5 0"/>
<feBlend mode="normal" in2="BackgroundImageFix" result="effect1_dropShadow_6000_3487"/>
<feBlend mode="normal" in="SourceGraphic" in2="effect1_dropShadow_6000_3487" result="shape"/>
</filter>
</defs>
</svg>
