<svg width="196" height="50" viewBox="0 0 196 50" fill="none" xmlns="http://www.w3.org/2000/svg">
<g filter="url(#filter0_d_6000_3506)">
<rect x="7" y="7" width="180" height="34" rx="4" fill="#F8F8F8" shape-rendering="crispEdges"/>
<rect x="7.5" y="7.5" width="179" height="33" rx="3.5" stroke="#CCCCCC" shape-rendering="crispEdges"/>
<path d="M33.8483 21.09C33.5243 20.466 33.0743 19.998 32.4983 19.686C31.9223 19.362 31.2563 19.2 30.5003 19.2C29.6723 19.2 28.9343 19.386 28.2863 19.758C27.6383 20.13 27.1283 20.658 26.7563 21.342C26.3963 22.026 26.2163 22.818 26.2163 23.718C26.2163 24.618 26.3963 25.416 26.7563 26.112C27.1283 26.796 27.6383 27.324 28.2863 27.696C28.9343 28.068 29.6723 28.254 30.5003 28.254C31.6163 28.254 32.5223 27.942 33.2183 27.318C33.9143 26.694 34.3403 25.848 34.4963 24.78H29.7983V23.142H36.6923V24.744C36.5603 25.716 36.2123 26.61 35.6483 27.426C35.0963 28.242 34.3703 28.896 33.4703 29.388C32.5823 29.868 31.5923 30.108 30.5003 30.108C29.3243 30.108 28.2503 29.838 27.2783 29.298C26.3063 28.746 25.5323 27.984 24.9563 27.012C24.3923 26.04 24.1103 24.942 24.1103 23.718C24.1103 22.494 24.3923 21.396 24.9563 20.424C25.5323 19.452 26.3063 18.696 27.2783 18.156C28.2623 17.604 29.3363 17.328 30.5003 17.328C31.8323 17.328 33.0143 17.658 34.0463 18.318C35.0903 18.966 35.8463 19.89 36.3143 21.09H33.8483ZM39.7602 18.768C39.3882 18.768 39.0762 18.642 38.8242 18.39C38.5722 18.138 38.4462 17.826 38.4462 17.454C38.4462 17.082 38.5722 16.77 38.8242 16.518C39.0762 16.266 39.3882 16.14 39.7602 16.14C40.1202 16.14 40.4262 16.266 40.6782 16.518C40.9302 16.77 41.0562 17.082 41.0562 17.454C41.0562 17.826 40.9302 18.138 40.6782 18.39C40.4262 18.642 40.1202 18.768 39.7602 18.768ZM40.7682 20.082V30H38.7162V20.082H40.7682ZM47.2963 28.164L50.1043 20.082H52.2823L48.5023 30H46.0543L42.2923 20.082H44.4883L47.2963 28.164ZM62.9234 24.798C62.9234 25.17 62.8994 25.506 62.8514 25.806H55.2734C55.3334 26.598 55.6274 27.234 56.1554 27.714C56.6834 28.194 57.3314 28.434 58.0994 28.434C59.2034 28.434 59.9834 27.972 60.4394 27.048H62.6534C62.3534 27.96 61.8074 28.71 61.0154 29.298C60.2354 29.874 59.2634 30.162 58.0994 30.162C57.1514 30.162 56.2994 29.952 55.5434 29.532C54.7994 29.1 54.2114 28.5 53.7794 27.732C53.3594 26.952 53.1494 26.052 53.1494 25.032C53.1494 24.012 53.3534 23.118 53.7614 22.35C54.1814 21.57 54.7634 20.97 55.5074 20.55C56.2634 20.13 57.1274 19.92 58.0994 19.92C59.0354 19.92 59.8694 20.124 60.6014 20.532C61.3334 20.94 61.9034 21.516 62.3114 22.26C62.7194 22.992 62.9234 23.838 62.9234 24.798ZM60.7814 24.15C60.7694 23.394 60.4994 22.788 59.9714 22.332C59.4434 21.876 58.7894 21.648 58.0094 21.648C57.3014 21.648 56.6954 21.876 56.1914 22.332C55.6874 22.776 55.3874 23.382 55.2914 24.15H60.7814ZM73.7406 30.126C72.9006 30.126 72.1446 29.982 71.4726 29.694C70.8006 29.394 70.2726 28.974 69.8886 28.434C69.5046 27.894 69.3126 27.264 69.3126 26.544H71.5086C71.5566 27.084 71.7666 27.528 72.1386 27.876C72.5226 28.224 73.0566 28.398 73.7406 28.398C74.4486 28.398 75.0006 28.23 75.3966 27.894C75.7926 27.546 75.9906 27.102 75.9906 26.562C75.9906 26.142 75.8646 25.8 75.6126 25.536C75.3726 25.272 75.0666 25.068 74.6946 24.924C74.3346 24.78 73.8306 24.624 73.1826 24.456C72.3666 24.24 71.7006 24.024 71.1846 23.808C70.6806 23.58 70.2486 23.232 69.8886 22.764C69.5286 22.296 69.3486 21.672 69.3486 20.892C69.3486 20.172 69.5286 19.542 69.8886 19.002C70.2486 18.462 70.7526 18.048 71.4006 17.76C72.0486 17.472 72.7986 17.328 73.6506 17.328C74.8626 17.328 75.8526 17.634 76.6206 18.246C77.4006 18.846 77.8326 19.674 77.9166 20.73H75.6486C75.6126 20.274 75.3966 19.884 75.0006 19.56C74.6046 19.236 74.0826 19.074 73.4346 19.074C72.8466 19.074 72.3666 19.224 71.9946 19.524C71.6226 19.824 71.4366 20.256 71.4366 20.82C71.4366 21.204 71.5506 21.522 71.7786 21.774C72.0186 22.014 72.3186 22.206 72.6786 22.35C73.0386 22.494 73.5306 22.65 74.1546 22.818C74.9826 23.046 75.6546 23.274 76.1706 23.502C76.6986 23.73 77.1426 24.084 77.5026 24.564C77.8746 25.032 78.0606 25.662 78.0606 26.454C78.0606 27.09 77.8866 27.69 77.5386 28.254C77.2026 28.818 76.7046 29.274 76.0446 29.622C75.3966 29.958 74.6286 30.126 73.7406 30.126ZM89.4638 20.082V30H87.4118V28.83C87.0878 29.238 86.6618 29.562 86.1338 29.802C85.6178 30.03 85.0658 30.144 84.4778 30.144C83.6978 30.144 82.9958 29.982 82.3718 29.658C81.7598 29.334 81.2738 28.854 80.9138 28.218C80.5658 27.582 80.3918 26.814 80.3918 25.914V20.082H82.4258V25.608C82.4258 26.496 82.6478 27.18 83.0918 27.66C83.5358 28.128 84.1418 28.362 84.9098 28.362C85.6778 28.362 86.2838 28.128 86.7278 27.66C87.1838 27.18 87.4118 26.496 87.4118 25.608V20.082H89.4638ZM96.1673 19.92C96.9353 19.92 97.6133 20.076 98.2013 20.388C98.8013 20.688 99.2693 21.066 99.6053 21.522V20.082H101.675V30.162C101.675 31.074 101.483 31.884 101.099 32.592C100.715 33.312 100.157 33.876 99.4253 34.284C98.7053 34.692 97.8413 34.896 96.8333 34.896C95.4893 34.896 94.3733 34.578 93.4853 33.942C92.5973 33.318 92.0933 32.466 91.9733 31.386H94.0073C94.1633 31.902 94.4933 32.316 94.9973 32.628C95.5133 32.952 96.1253 33.114 96.8333 33.114C97.6613 33.114 98.3273 32.862 98.8313 32.358C99.3473 31.854 99.6053 31.122 99.6053 30.162V28.506C99.2573 28.974 98.7833 29.37 98.1833 29.694C97.5953 30.006 96.9233 30.162 96.1673 30.162C95.3033 30.162 94.5113 29.946 93.7913 29.514C93.0833 29.07 92.5193 28.458 92.0993 27.678C91.6913 26.886 91.4873 25.992 91.4873 24.996C91.4873 24 91.6913 23.118 92.0993 22.35C92.5193 21.582 93.0833 20.988 93.7913 20.568C94.5113 20.136 95.3033 19.92 96.1673 19.92ZM99.6053 25.032C99.6053 24.348 99.4613 23.754 99.1733 23.25C98.8973 22.746 98.5313 22.362 98.0753 22.098C97.6193 21.834 97.1273 21.702 96.5993 21.702C96.0713 21.702 95.5793 21.834 95.1233 22.098C94.6673 22.35 94.2953 22.728 94.0073 23.232C93.7313 23.724 93.5933 24.312 93.5933 24.996C93.5933 25.68 93.7313 26.28 94.0073 26.796C94.2953 27.312 94.6673 27.708 95.1233 27.984C95.5913 28.248 96.0833 28.38 96.5993 28.38C97.1273 28.38 97.6193 28.248 98.0753 27.984C98.5313 27.72 98.8973 27.336 99.1733 26.832C99.4613 26.316 99.6053 25.716 99.6053 25.032ZM108.367 19.92C109.135 19.92 109.813 20.076 110.401 20.388C111.001 20.688 111.469 21.066 111.805 21.522V20.082H113.875V30.162C113.875 31.074 113.683 31.884 113.299 32.592C112.915 33.312 112.357 33.876 111.625 34.284C110.905 34.692 110.041 34.896 109.033 34.896C107.689 34.896 106.573 34.578 105.685 33.942C104.797 33.318 104.293 32.466 104.173 31.386H106.207C106.363 31.902 106.693 32.316 107.197 32.628C107.713 32.952 108.325 33.114 109.033 33.114C109.861 33.114 110.527 32.862 111.031 32.358C111.547 31.854 111.805 31.122 111.805 30.162V28.506C111.457 28.974 110.983 29.37 110.383 29.694C109.795 30.006 109.123 30.162 108.367 30.162C107.503 30.162 106.711 29.946 105.991 29.514C105.283 29.07 104.719 28.458 104.299 27.678C103.891 26.886 103.687 25.992 103.687 24.996C103.687 24 103.891 23.118 104.299 22.35C104.719 21.582 105.283 20.988 105.991 20.568C106.711 20.136 107.503 19.92 108.367 19.92ZM111.805 25.032C111.805 24.348 111.661 23.754 111.373 23.25C111.097 22.746 110.731 22.362 110.275 22.098C109.819 21.834 109.327 21.702 108.799 21.702C108.271 21.702 107.779 21.834 107.323 22.098C106.867 22.35 106.495 22.728 106.207 23.232C105.931 23.724 105.793 24.312 105.793 24.996C105.793 25.68 105.931 26.28 106.207 26.796C106.495 27.312 106.867 27.708 107.323 27.984C107.791 28.248 108.283 28.38 108.799 28.38C109.327 28.38 109.819 28.248 110.275 27.984C110.731 27.72 111.097 27.336 111.373 26.832C111.661 26.316 111.805 25.716 111.805 25.032ZM125.66 24.798C125.66 25.17 125.636 25.506 125.588 25.806H118.01C118.07 26.598 118.364 27.234 118.892 27.714C119.42 28.194 120.068 28.434 120.836 28.434C121.94 28.434 122.72 27.972 123.176 27.048H125.39C125.09 27.96 124.544 28.71 123.752 29.298C122.972 29.874 122 30.162 120.836 30.162C119.888 30.162 119.036 29.952 118.28 29.532C117.536 29.1 116.948 28.5 116.516 27.732C116.096 26.952 115.886 26.052 115.886 25.032C115.886 24.012 116.09 23.118 116.498 22.35C116.918 21.57 117.5 20.97 118.244 20.55C119 20.13 119.864 19.92 120.836 19.92C121.772 19.92 122.606 20.124 123.338 20.532C124.07 20.94 124.64 21.516 125.048 22.26C125.456 22.992 125.66 23.838 125.66 24.798ZM123.518 24.15C123.506 23.394 123.236 22.788 122.708 22.332C122.18 21.876 121.526 21.648 120.746 21.648C120.038 21.648 119.432 21.876 118.928 22.332C118.424 22.776 118.124 23.382 118.028 24.15H123.518ZM131.279 30.162C130.499 30.162 129.797 30.024 129.173 29.748C128.561 29.46 128.075 29.076 127.715 28.596C127.355 28.104 127.163 27.558 127.139 26.958H129.263C129.299 27.378 129.497 27.732 129.857 28.02C130.229 28.296 130.691 28.434 131.243 28.434C131.819 28.434 132.263 28.326 132.575 28.11C132.899 27.882 133.061 27.594 133.061 27.246C133.061 26.874 132.881 26.598 132.521 26.418C132.173 26.238 131.615 26.04 130.847 25.824C130.103 25.62 129.497 25.422 129.029 25.23C128.561 25.038 128.153 24.744 127.805 24.348C127.469 23.952 127.301 23.43 127.301 22.782C127.301 22.254 127.457 21.774 127.769 21.342C128.081 20.898 128.525 20.55 129.101 20.298C129.689 20.046 130.361 19.92 131.117 19.92C132.245 19.92 133.151 20.208 133.835 20.784C134.531 21.348 134.903 22.122 134.951 23.106H132.899C132.863 22.662 132.683 22.308 132.359 22.044C132.035 21.78 131.597 21.648 131.045 21.648C130.505 21.648 130.091 21.75 129.803 21.954C129.515 22.158 129.371 22.428 129.371 22.764C129.371 23.028 129.467 23.25 129.659 23.43C129.851 23.61 130.085 23.754 130.361 23.862C130.637 23.958 131.045 24.084 131.585 24.24C132.305 24.432 132.893 24.63 133.349 24.834C133.817 25.026 134.219 25.314 134.555 25.698C134.891 26.082 135.065 26.592 135.077 27.228C135.077 27.792 134.921 28.296 134.609 28.74C134.297 29.184 133.853 29.532 133.277 29.784C132.713 30.036 132.047 30.162 131.279 30.162ZM139.688 21.756V27.246C139.688 27.618 139.772 27.888 139.94 28.056C140.12 28.212 140.42 28.29 140.84 28.29H142.1V30H140.48C139.556 30 138.848 29.784 138.356 29.352C137.864 28.92 137.618 28.218 137.618 27.246V21.756H136.448V20.082H137.618V17.616H139.688V20.082H142.1V21.756H139.688ZM145.036 18.768C144.664 18.768 144.352 18.642 144.1 18.39C143.848 18.138 143.722 17.826 143.722 17.454C143.722 17.082 143.848 16.77 144.1 16.518C144.352 16.266 144.664 16.14 145.036 16.14C145.396 16.14 145.702 16.266 145.954 16.518C146.206 16.77 146.332 17.082 146.332 17.454C146.332 17.826 146.206 18.138 145.954 18.39C145.702 18.642 145.396 18.768 145.036 18.768ZM146.044 20.082V30H143.992V20.082H146.044ZM153.04 30.162C152.104 30.162 151.258 29.952 150.502 29.532C149.746 29.1 149.152 28.5 148.72 27.732C148.288 26.952 148.072 26.052 148.072 25.032C148.072 24.024 148.294 23.13 148.738 22.35C149.182 21.57 149.788 20.97 150.556 20.55C151.324 20.13 152.182 19.92 153.13 19.92C154.078 19.92 154.936 20.13 155.704 20.55C156.472 20.97 157.078 21.57 157.522 22.35C157.966 23.13 158.188 24.024 158.188 25.032C158.188 26.04 157.96 26.934 157.504 27.714C157.048 28.494 156.424 29.1 155.632 29.532C154.852 29.952 153.988 30.162 153.04 30.162ZM153.04 28.38C153.568 28.38 154.06 28.254 154.516 28.002C154.984 27.75 155.362 27.372 155.65 26.868C155.938 26.364 156.082 25.752 156.082 25.032C156.082 24.312 155.944 23.706 155.668 23.214C155.392 22.71 155.026 22.332 154.57 22.08C154.114 21.828 153.622 21.702 153.094 21.702C152.566 21.702 152.074 21.828 151.618 22.08C151.174 22.332 150.82 22.71 150.556 23.214C150.292 23.706 150.16 24.312 150.16 25.032C150.16 26.1 150.43 26.928 150.97 27.516C151.522 28.092 152.212 28.38 153.04 28.38ZM165.22 19.92C166 19.92 166.696 20.082 167.308 20.406C167.932 20.73 168.418 21.21 168.766 21.846C169.114 22.482 169.288 23.25 169.288 24.15V30H167.254V24.456C167.254 23.568 167.032 22.89 166.588 22.422C166.144 21.942 165.538 21.702 164.77 21.702C164.002 21.702 163.39 21.942 162.934 22.422C162.49 22.89 162.268 23.568 162.268 24.456V30H160.216V20.082H162.268V21.216C162.604 20.808 163.03 20.49 163.546 20.262C164.074 20.034 164.632 19.92 165.22 19.92Z" fill="#0F0F0F"/>
</g>
<defs>
<filter id="filter0_d_6000_3506" x="0" y="0" width="196" height="50" filterUnits="userSpaceOnUse" color-interpolation-filters="sRGB">
<feFlood flood-opacity="0" result="BackgroundImageFix"/>
<feColorMatrix in="SourceAlpha" type="matrix" values="0 0 0 0 0 0 0 0 0 0 0 0 0 0 0 0 0 0 127 0" result="hardAlpha"/>
<feOffset dx="1" dy="1"/>
<feGaussianBlur stdDeviation="4"/>
<feComposite in2="hardAlpha" operator="out"/>
<feColorMatrix type="matrix" values="0 0 0 0 0 0 0 0 0 0 0 0 0 0 0 0 0 0 0.5 0"/>
<feBlend mode="normal" in2="BackgroundImageFix" result="effect1_dropShadow_6000_3506"/>
<feBlend mode="normal" in="SourceGraphic" in2="effect1_dropShadow_6000_3506" result="shape"/>
</filter>
</defs>
</svg>
