<svg width="149" height="50" viewBox="0 0 149 50" fill="none" xmlns="http://www.w3.org/2000/svg">
<g filter="url(#filter0_d_6000_3512)">
<rect x="7" y="7" width="133" height="34" rx="4" fill="#F8F8F8" shape-rendering="crispEdges"/>
<rect x="7.5" y="7.5" width="132" height="33" rx="3.5" stroke="#CCCCCC" shape-rendering="crispEdges"/>
<path d="M24.0683 23.718C24.0683 22.494 24.3503 21.396 24.9143 20.424C25.4903 19.452 26.2643 18.696 27.2363 18.156C28.2203 17.604 29.2943 17.328 30.4583 17.328C31.7903 17.328 32.9723 17.658 34.0043 18.318C35.0483 18.966 35.8043 19.89 36.2723 21.09H33.8063C33.4823 20.43 33.0323 19.938 32.4563 19.614C31.8803 19.29 31.2143 19.128 30.4583 19.128C29.6303 19.128 28.8923 19.314 28.2443 19.686C27.5963 20.058 27.0863 20.592 26.7143 21.288C26.3543 21.984 26.1743 22.794 26.1743 23.718C26.1743 24.642 26.3543 25.452 26.7143 26.148C27.0863 26.844 27.5963 27.384 28.2443 27.768C28.8923 28.14 29.6303 28.326 30.4583 28.326C31.2143 28.326 31.8803 28.164 32.4563 27.84C33.0323 27.516 33.4823 27.024 33.8063 26.364H36.2723C35.8043 27.564 35.0483 28.488 34.0043 29.136C32.9723 29.784 31.7903 30.108 30.4583 30.108C29.2823 30.108 28.2083 29.838 27.2363 29.298C26.2643 28.746 25.4903 27.984 24.9143 27.012C24.3503 26.04 24.0683 24.942 24.0683 23.718ZM42.9762 30.162C42.0402 30.162 41.1942 29.952 40.4382 29.532C39.6822 29.1 39.0882 28.5 38.6562 27.732C38.2242 26.952 38.0082 26.052 38.0082 25.032C38.0082 24.024 38.2302 23.13 38.6742 22.35C39.1182 21.57 39.7242 20.97 40.4922 20.55C41.2602 20.13 42.1182 19.92 43.0662 19.92C44.0142 19.92 44.8722 20.13 45.6402 20.55C46.4082 20.97 47.0142 21.57 47.4582 22.35C47.9022 23.13 48.1242 24.024 48.1242 25.032C48.1242 26.04 47.8962 26.934 47.4402 27.714C46.9842 28.494 46.3602 29.1 45.5682 29.532C44.7882 29.952 43.9242 30.162 42.9762 30.162ZM42.9762 28.38C43.5042 28.38 43.9962 28.254 44.4522 28.002C44.9202 27.75 45.2982 27.372 45.5862 26.868C45.8742 26.364 46.0182 25.752 46.0182 25.032C46.0182 24.312 45.8802 23.706 45.6042 23.214C45.3282 22.71 44.9622 22.332 44.5062 22.08C44.0502 21.828 43.5582 21.702 43.0302 21.702C42.5022 21.702 42.0102 21.828 41.5542 22.08C41.1102 22.332 40.7562 22.71 40.4922 23.214C40.2282 23.706 40.0962 24.312 40.0962 25.032C40.0962 26.1 40.3662 26.928 40.9062 27.516C41.4582 28.092 42.1482 28.38 42.9762 28.38ZM55.1567 19.92C55.9367 19.92 56.6327 20.082 57.2447 20.406C57.8687 20.73 58.3547 21.21 58.7027 21.846C59.0507 22.482 59.2247 23.25 59.2247 24.15V30H57.1907V24.456C57.1907 23.568 56.9687 22.89 56.5247 22.422C56.0807 21.942 55.4747 21.702 54.7067 21.702C53.9387 21.702 53.3267 21.942 52.8707 22.422C52.4267 22.89 52.2047 23.568 52.2047 24.456V30H50.1527V20.082H52.2047V21.216C52.5407 20.808 52.9667 20.49 53.4827 20.262C54.0107 20.034 54.5687 19.92 55.1567 19.92ZM64.2362 21.756V27.246C64.2362 27.618 64.3202 27.888 64.4882 28.056C64.6682 28.212 64.9682 28.29 65.3882 28.29H66.6482V30H65.0282C64.1042 30 63.3962 29.784 62.9042 29.352C62.4122 28.92 62.1662 28.218 62.1662 27.246V21.756H60.9962V20.082H62.1662V17.616H64.2362V20.082H66.6482V21.756H64.2362ZM67.8555 24.996C67.8555 24 68.0595 23.118 68.4675 22.35C68.8875 21.582 69.4515 20.988 70.1595 20.568C70.8795 20.136 71.6715 19.92 72.5355 19.92C73.3155 19.92 73.9935 20.076 74.5695 20.388C75.1575 20.688 75.6255 21.066 75.9735 21.522V20.082H78.0435V30H75.9735V28.524C75.6255 28.992 75.1515 29.382 74.5515 29.694C73.9515 30.006 73.2675 30.162 72.4995 30.162C71.6475 30.162 70.8675 29.946 70.1595 29.514C69.4515 29.07 68.8875 28.458 68.4675 27.678C68.0595 26.886 67.8555 25.992 67.8555 24.996ZM75.9735 25.032C75.9735 24.348 75.8295 23.754 75.5415 23.25C75.2655 22.746 74.8995 22.362 74.4435 22.098C73.9875 21.834 73.4955 21.702 72.9675 21.702C72.4395 21.702 71.9475 21.834 71.4915 22.098C71.0355 22.35 70.6635 22.728 70.3755 23.232C70.0995 23.724 69.9615 24.312 69.9615 24.996C69.9615 25.68 70.0995 26.28 70.3755 26.796C70.6635 27.312 71.0355 27.708 71.4915 27.984C71.9595 28.248 72.4515 28.38 72.9675 28.38C73.4955 28.38 73.9875 28.248 74.4435 27.984C74.8995 27.72 75.2655 27.336 75.5415 26.832C75.8295 26.316 75.9735 25.716 75.9735 25.032ZM80.0547 25.032C80.0547 24.012 80.2587 23.118 80.6667 22.35C81.0867 21.57 81.6627 20.97 82.3947 20.55C83.1267 20.13 83.9667 19.92 84.9147 19.92C86.1147 19.92 87.1047 20.208 87.8847 20.784C88.6767 21.348 89.2107 22.158 89.4867 23.214H87.2727C87.0927 22.722 86.8047 22.338 86.4087 22.062C86.0127 21.786 85.5147 21.648 84.9147 21.648C84.0747 21.648 83.4027 21.948 82.8987 22.548C82.4067 23.136 82.1607 23.964 82.1607 25.032C82.1607 26.1 82.4067 26.934 82.8987 27.534C83.4027 28.134 84.0747 28.434 84.9147 28.434C86.1027 28.434 86.8887 27.912 87.2727 26.868H89.4867C89.1987 27.876 88.6587 28.68 87.8667 29.28C87.0747 29.868 86.0907 30.162 84.9147 30.162C83.9667 30.162 83.1267 29.952 82.3947 29.532C81.6627 29.1 81.0867 28.5 80.6667 27.732C80.2587 26.952 80.0547 26.052 80.0547 25.032ZM93.9256 21.756V27.246C93.9256 27.618 94.0096 27.888 94.1776 28.056C94.3576 28.212 94.6576 28.29 95.0776 28.29H96.3376V30H94.7176C93.7936 30 93.0856 29.784 92.5936 29.352C92.1016 28.92 91.8556 28.218 91.8556 27.246V21.756H90.6856V20.082H91.8556V17.616H93.9256V20.082H96.3376V21.756H93.9256ZM104.939 17.49V25.464C104.939 26.412 105.185 27.126 105.677 27.606C106.181 28.086 106.877 28.326 107.765 28.326C108.665 28.326 109.361 28.086 109.853 27.606C110.357 27.126 110.609 26.412 110.609 25.464V17.49H112.661V25.428C112.661 26.448 112.439 27.312 111.995 28.02C111.551 28.728 110.957 29.256 110.213 29.604C109.469 29.952 108.647 30.126 107.747 30.126C106.847 30.126 106.025 29.952 105.281 29.604C104.549 29.256 103.967 28.728 103.535 28.02C103.103 27.312 102.887 26.448 102.887 25.428V17.49H104.939ZM118.932 30.162C118.152 30.162 117.45 30.024 116.826 29.748C116.214 29.46 115.728 29.076 115.368 28.596C115.008 28.104 114.816 27.558 114.792 26.958H116.916C116.952 27.378 117.15 27.732 117.51 28.02C117.882 28.296 118.344 28.434 118.896 28.434C119.472 28.434 119.916 28.326 120.228 28.11C120.552 27.882 120.714 27.594 120.714 27.246C120.714 26.874 120.534 26.598 120.174 26.418C119.826 26.238 119.268 26.04 118.5 25.824C117.756 25.62 117.15 25.422 116.682 25.23C116.214 25.038 115.806 24.744 115.458 24.348C115.122 23.952 114.954 23.43 114.954 22.782C114.954 22.254 115.11 21.774 115.422 21.342C115.734 20.898 116.178 20.55 116.754 20.298C117.342 20.046 118.014 19.92 118.77 19.92C119.898 19.92 120.804 20.208 121.488 20.784C122.184 21.348 122.556 22.122 122.604 23.106H120.552C120.516 22.662 120.336 22.308 120.012 22.044C119.688 21.78 119.25 21.648 118.698 21.648C118.158 21.648 117.744 21.75 117.456 21.954C117.168 22.158 117.024 22.428 117.024 22.764C117.024 23.028 117.12 23.25 117.312 23.43C117.504 23.61 117.738 23.754 118.014 23.862C118.29 23.958 118.698 24.084 119.238 24.24C119.958 24.432 120.546 24.63 121.002 24.834C121.47 25.026 121.872 25.314 122.208 25.698C122.544 26.082 122.718 26.592 122.73 27.228C122.73 27.792 122.574 28.296 122.262 28.74C121.95 29.184 121.506 29.532 120.93 29.784C120.366 30.036 119.7 30.162 118.932 30.162Z" fill="#0F0F0F"/>
</g>
<defs>
<filter id="filter0_d_6000_3512" x="0" y="0" width="149" height="50" filterUnits="userSpaceOnUse" color-interpolation-filters="sRGB">
<feFlood flood-opacity="0" result="BackgroundImageFix"/>
<feColorMatrix in="SourceAlpha" type="matrix" values="0 0 0 0 0 0 0 0 0 0 0 0 0 0 0 0 0 0 127 0" result="hardAlpha"/>
<feOffset dx="1" dy="1"/>
<feGaussianBlur stdDeviation="4"/>
<feComposite in2="hardAlpha" operator="out"/>
<feColorMatrix type="matrix" values="0 0 0 0 0 0 0 0 0 0 0 0 0 0 0 0 0 0 0.5 0"/>
<feBlend mode="normal" in2="BackgroundImageFix" result="effect1_dropShadow_6000_3512"/>
<feBlend mode="normal" in="SourceGraphic" in2="effect1_dropShadow_6000_3512" result="shape"/>
</filter>
</defs>
</svg>
