<svg width="84" height="84" viewBox="0 0 84 84" fill="none" xmlns="http://www.w3.org/2000/svg">
<g filter="url(#filter0_d_1_4828)">
<rect x="11" y="11" width="60" height="60" rx="30" fill="white"/>
<g clip-path="url(#clip0_1_4828)">
<path d="M29.9789 27.0393C29.6973 27.0827 29.1285 27.2885 28.8144 27.451C28.3864 27.6785 27.6769 28.3881 27.4494 28.816C27.3573 28.9948 27.2219 29.3089 27.1514 29.5202L27.0269 29.8993V34.4764C27.0269 39.4327 27.0214 39.2972 27.3248 39.9797C27.7202 40.8572 28.6302 41.6697 29.4752 41.8918L29.7027 41.9514L29.7189 43.0781C29.7352 44.3293 29.7677 44.4431 30.1035 44.6543C30.3202 44.7897 30.6777 44.806 30.8889 44.6922C30.9702 44.6489 31.6094 44.0368 32.3081 43.3381L33.581 42.0597H33.8302H34.0848L34.1119 40.7977C34.1335 39.7089 34.1498 39.4868 34.2527 39.1402C34.7781 37.3581 36.0998 36.0364 37.8873 35.4948C38.2881 35.3756 38.326 35.3756 42.1556 35.3539L46.0123 35.3377V32.6998C46.0123 29.8073 46.0014 29.6881 45.6819 29.0218C45.346 28.3177 44.7664 27.7381 44.0352 27.3752C43.2498 26.9852 43.5748 27.0014 36.4789 27.0123C32.9798 27.0123 30.0548 27.0285 29.9789 27.0393Z" fill="black"/>
<path d="M38.3315 37.0772C37.1074 37.3967 36.1432 38.3772 35.8236 39.6121C35.7261 39.9967 35.7207 40.2459 35.7207 44.4438C35.7207 47.3309 35.7424 48.9776 35.7803 49.1888C35.8074 49.3621 35.9482 49.7413 36.0836 50.023C36.5061 50.895 37.2645 51.545 38.2395 51.8755L38.6186 52L43.3853 52.0163L48.152 52.0325L49.479 53.3488C50.8928 54.7571 50.9524 54.8005 51.3695 54.7084C51.559 54.6705 51.8299 54.4592 51.9328 54.2805C51.9761 54.2046 52.0086 53.7821 52.0249 53.0346L52.052 51.9025L52.2686 51.8375C52.6315 51.7292 53.1353 51.4475 53.482 51.1605C54.094 50.6513 54.5599 49.8117 54.679 49.0155C54.7115 48.7934 54.7332 46.9138 54.7332 44.3896C54.7332 39.6338 54.7386 39.7096 54.3595 38.9459C53.9965 38.2147 53.417 37.6351 52.7128 37.2992C51.9978 36.958 52.3065 36.9688 45.1999 36.9742C39.0032 36.9742 38.7107 36.9797 38.3315 37.0772Z" fill="black"/>
<path d="M45.6364 45.1738C45.5907 45.1831 45.5497 45.2079 45.5202 45.2441C45.4907 45.2802 45.4746 45.3254 45.4746 45.372V45.807C45.4746 45.8874 45.4427 45.9646 45.3858 46.0214C45.3289 46.0783 45.2518 46.1103 45.1713 46.1103C45.0909 46.1103 45.0137 46.0783 44.9568 46.0214C44.8999 45.9646 44.868 45.8874 44.868 45.807V44.933C44.868 44.8562 44.8971 44.7823 44.9495 44.7262C45.0018 44.67 45.0735 44.6358 45.1501 44.6304C45.5096 44.6054 46.0384 44.4828 46.4675 44.2092C46.8863 43.9419 47.1935 43.5449 47.1935 42.9445C47.1935 42.3662 46.9789 41.9652 46.6673 41.6993C46.3482 41.4269 45.9041 41.2776 45.4273 41.259C44.4403 41.2204 43.5204 41.7262 43.344 42.5136C43.3265 42.5921 43.2784 42.6604 43.2105 42.7035C43.1426 42.7466 43.0603 42.761 42.9818 42.7434C42.9033 42.7259 42.8349 42.6778 42.7918 42.6099C42.7487 42.5419 42.7344 42.4597 42.7519 42.3812C42.8866 41.7797 43.2751 41.3395 43.778 41.0514C44.2836 40.7616 44.8965 40.6311 45.4512 40.653C46.0311 40.6756 46.616 40.8578 47.0612 41.2378C47.5142 41.6244 47.8002 42.1971 47.8002 42.9445C47.8002 43.8015 47.3411 44.3714 46.7939 44.7206C46.4234 44.957 46.0051 45.099 45.6364 45.1738ZM44.6658 47.6269C44.6658 47.466 44.7297 47.3117 44.8434 47.198C44.9572 47.0842 45.1115 47.0203 45.2724 47.0203C45.4333 47.0203 45.5876 47.0842 45.7014 47.198C45.8152 47.3117 45.8791 47.466 45.8791 47.6269C45.8791 47.7878 45.8152 47.9421 45.7014 48.0559C45.5876 48.1697 45.4333 48.2336 45.2724 48.2336C45.1115 48.2336 44.9572 48.1697 44.8434 48.0559C44.7297 47.9421 44.6658 47.7878 44.6658 47.6269Z" fill="#F8F8F8" stroke="#F8F8F8" stroke-width="0.404439" stroke-linecap="round" stroke-linejoin="round"/>
</g>
</g>
<defs>
<filter id="filter0_d_1_4828" x="0" y="0" width="84" height="84" filterUnits="userSpaceOnUse" color-interpolation-filters="sRGB">
<feFlood flood-opacity="0" result="BackgroundImageFix"/>
<feColorMatrix in="SourceAlpha" type="matrix" values="0 0 0 0 0 0 0 0 0 0 0 0 0 0 0 0 0 0 127 0" result="hardAlpha"/>
<feOffset dx="1" dy="1"/>
<feGaussianBlur stdDeviation="6"/>
<feComposite in2="hardAlpha" operator="out"/>
<feColorMatrix type="matrix" values="0 0 0 0 1 0 0 0 0 1 0 0 0 0 1 0 0 0 0.24 0"/>
<feBlend mode="normal" in2="BackgroundImageFix" result="effect1_dropShadow_1_4828"/>
<feBlend mode="normal" in="SourceGraphic" in2="effect1_dropShadow_1_4828" result="shape"/>
</filter>
<clipPath id="clip0_1_4828">
<rect width="27.7333" height="27.7333" fill="white" transform="translate(27 27)"/>
</clipPath>
</defs>
</svg>
