<svg width="476" height="148" viewBox="0 0 476 148" fill="none" xmlns="http://www.w3.org/2000/svg">
<g filter="url(#filter0_d_1_5155)">
<path d="M32 34C32 29.5817 35.5817 26 40 26H440C444.418 26 448 29.5817 448 34V94.7705C448 99.1888 444.418 102.77 440 102.77H430.783C430.084 102.77 429.435 103.136 429.073 103.734L423.689 112.623C423.305 113.257 422.389 113.268 421.99 112.643L416.29 103.696C415.923 103.119 415.287 102.77 414.603 102.77H40C35.5817 102.77 32 99.1887 32 94.7705V34Z" fill="#F8F8F8"/>
<path d="M111.435 44.436V46.47H108.087V57H105.567V46.47H102.219V44.436H111.435ZM118.889 46.884C119.645 46.884 120.317 47.052 120.905 47.388C121.493 47.712 121.949 48.198 122.273 48.846C122.609 49.482 122.777 50.25 122.777 51.15V57H120.257V51.492C120.257 50.7 120.059 50.094 119.663 49.674C119.267 49.242 118.727 49.026 118.043 49.026C117.347 49.026 116.795 49.242 116.387 49.674C115.991 50.094 115.793 50.7 115.793 51.492V57H113.273V43.68H115.793V48.27C116.117 47.838 116.549 47.502 117.089 47.262C117.629 47.01 118.229 46.884 118.889 46.884ZM124.526 51.978C124.526 50.97 124.724 50.076 125.12 49.296C125.528 48.516 126.074 47.916 126.758 47.496C127.454 47.076 128.228 46.866 129.08 46.866C129.824 46.866 130.472 47.016 131.024 47.316C131.588 47.616 132.038 47.994 132.374 48.45V47.028H134.912V57H132.374V55.542C132.05 56.01 131.6 56.4 131.024 56.712C130.46 57.012 129.806 57.162 129.062 57.162C128.222 57.162 127.454 56.946 126.758 56.514C126.074 56.082 125.528 55.476 125.12 54.696C124.724 53.904 124.526 52.998 124.526 51.978ZM132.374 52.014C132.374 51.402 132.254 50.88 132.014 50.448C131.774 50.004 131.45 49.668 131.042 49.44C130.634 49.2 130.196 49.08 129.728 49.08C129.26 49.08 128.828 49.194 128.432 49.422C128.036 49.65 127.712 49.986 127.46 50.43C127.22 50.862 127.1 51.378 127.1 51.978C127.1 52.578 127.22 53.106 127.46 53.562C127.712 54.006 128.036 54.348 128.432 54.588C128.84 54.828 129.272 54.948 129.728 54.948C130.196 54.948 130.634 54.834 131.042 54.606C131.45 54.366 131.774 54.03 132.014 53.598C132.254 53.154 132.374 52.626 132.374 52.014ZM142.899 46.884C144.087 46.884 145.047 47.262 145.779 48.018C146.511 48.762 146.877 49.806 146.877 51.15V57H144.357V51.492C144.357 50.7 144.159 50.094 143.763 49.674C143.367 49.242 142.827 49.026 142.143 49.026C141.447 49.026 140.895 49.242 140.487 49.674C140.091 50.094 139.893 50.7 139.893 51.492V57H137.373V47.028H139.893V48.27C140.229 47.838 140.655 47.502 141.171 47.262C141.699 47.01 142.275 46.884 142.899 46.884ZM155.177 57L151.793 52.752V57H149.273V43.68H151.793V51.258L155.141 47.028H158.417L154.025 52.032L158.453 57H155.177ZM163.601 57.162C162.785 57.162 162.053 57.018 161.405 56.73C160.757 56.43 160.241 56.028 159.857 55.524C159.485 55.02 159.281 54.462 159.245 53.85H161.783C161.831 54.234 162.017 54.552 162.341 54.804C162.677 55.056 163.091 55.182 163.583 55.182C164.063 55.182 164.435 55.086 164.699 54.894C164.975 54.702 165.113 54.456 165.113 54.156C165.113 53.832 164.945 53.592 164.609 53.436C164.285 53.268 163.763 53.088 163.043 52.896C162.299 52.716 161.687 52.53 161.207 52.338C160.739 52.146 160.331 51.852 159.983 51.456C159.647 51.06 159.479 50.526 159.479 49.854C159.479 49.302 159.635 48.798 159.947 48.342C160.271 47.886 160.727 47.526 161.315 47.262C161.915 46.998 162.617 46.866 163.421 46.866C164.609 46.866 165.557 47.166 166.265 47.766C166.973 48.354 167.363 49.152 167.435 50.16H165.023C164.987 49.764 164.819 49.452 164.519 49.224C164.231 48.984 163.841 48.864 163.349 48.864C162.893 48.864 162.539 48.948 162.287 49.116C162.047 49.284 161.927 49.518 161.927 49.818C161.927 50.154 162.095 50.412 162.431 50.592C162.767 50.76 163.289 50.934 163.997 51.114C164.717 51.294 165.311 51.48 165.779 51.672C166.247 51.864 166.649 52.164 166.985 52.572C167.333 52.968 167.513 53.496 167.525 54.156C167.525 54.732 167.363 55.248 167.039 55.704C166.727 56.16 166.271 56.52 165.671 56.784C165.083 57.036 164.393 57.162 163.601 57.162ZM178.455 49.098H176.709V57H174.153V49.098H173.019V47.028H174.153V46.524C174.153 45.3 174.501 44.4 175.197 43.824C175.893 43.248 176.943 42.978 178.347 43.014V45.138C177.735 45.126 177.309 45.228 177.069 45.444C176.829 45.66 176.709 46.05 176.709 46.614V47.028H178.455V49.098ZM184.516 57.162C183.556 57.162 182.692 56.952 181.924 56.532C181.156 56.1 180.55 55.494 180.106 54.714C179.674 53.934 179.458 53.034 179.458 52.014C179.458 50.994 179.68 50.094 180.124 49.314C180.58 48.534 181.198 47.934 181.978 47.514C182.758 47.082 183.628 46.866 184.588 46.866C185.548 46.866 186.418 47.082 187.198 47.514C187.978 47.934 188.59 48.534 189.034 49.314C189.49 50.094 189.718 50.994 189.718 52.014C189.718 53.034 189.484 53.934 189.016 54.714C188.56 55.494 187.936 56.1 187.144 56.532C186.364 56.952 185.488 57.162 184.516 57.162ZM184.516 54.966C184.972 54.966 185.398 54.858 185.794 54.642C186.202 54.414 186.526 54.078 186.766 53.634C187.006 53.19 187.126 52.65 187.126 52.014C187.126 51.066 186.874 50.34 186.37 49.836C185.878 49.32 185.272 49.062 184.552 49.062C183.832 49.062 183.226 49.32 182.734 49.836C182.254 50.34 182.014 51.066 182.014 52.014C182.014 52.962 182.248 53.694 182.716 54.21C183.196 54.714 183.796 54.966 184.516 54.966ZM194.086 48.576C194.41 48.048 194.83 47.634 195.346 47.334C195.874 47.034 196.474 46.884 197.146 46.884V49.53H196.48C195.688 49.53 195.088 49.716 194.68 50.088C194.284 50.46 194.086 51.108 194.086 52.032V57H191.566V47.028H194.086V48.576ZM205.653 48.576C205.977 48.048 206.397 47.634 206.913 47.334C207.441 47.034 208.041 46.884 208.713 46.884V49.53H208.047C207.255 49.53 206.655 49.716 206.247 50.088C205.851 50.46 205.653 51.108 205.653 52.032V57H203.133V47.028H205.653V48.576ZM219.68 51.798C219.68 52.158 219.656 52.482 219.608 52.77H212.318C212.378 53.49 212.63 54.054 213.074 54.462C213.518 54.87 214.064 55.074 214.712 55.074C215.648 55.074 216.314 54.672 216.71 53.868H219.428C219.14 54.828 218.588 55.62 217.772 56.244C216.956 56.856 215.954 57.162 214.766 57.162C213.806 57.162 212.942 56.952 212.174 56.532C211.418 56.1 210.824 55.494 210.392 54.714C209.972 53.934 209.762 53.034 209.762 52.014C209.762 50.982 209.972 50.076 210.392 49.296C210.812 48.516 211.4 47.916 212.156 47.496C212.912 47.076 213.782 46.866 214.766 46.866C215.714 46.866 216.56 47.07 217.304 47.478C218.06 47.886 218.642 48.468 219.05 49.224C219.47 49.968 219.68 50.826 219.68 51.798ZM217.07 51.078C217.058 50.43 216.824 49.914 216.368 49.53C215.912 49.134 215.354 48.936 214.694 48.936C214.07 48.936 213.542 49.128 213.11 49.512C212.69 49.884 212.432 50.406 212.336 51.078H217.07ZM220.871 51.978C220.871 50.97 221.069 50.076 221.465 49.296C221.873 48.516 222.419 47.916 223.103 47.496C223.799 47.076 224.573 46.866 225.425 46.866C226.169 46.866 226.817 47.016 227.369 47.316C227.933 47.616 228.383 47.994 228.719 48.45V47.028H231.257V57H228.719V55.542C228.395 56.01 227.945 56.4 227.369 56.712C226.805 57.012 226.151 57.162 225.407 57.162C224.567 57.162 223.799 56.946 223.103 56.514C222.419 56.082 221.873 55.476 221.465 54.696C221.069 53.904 220.871 52.998 220.871 51.978ZM228.719 52.014C228.719 51.402 228.599 50.88 228.359 50.448C228.119 50.004 227.795 49.668 227.387 49.44C226.979 49.2 226.541 49.08 226.073 49.08C225.605 49.08 225.173 49.194 224.777 49.422C224.381 49.65 224.057 49.986 223.805 50.43C223.565 50.862 223.445 51.378 223.445 51.978C223.445 52.578 223.565 53.106 223.805 53.562C224.057 54.006 224.381 54.348 224.777 54.588C225.185 54.828 225.617 54.948 226.073 54.948C226.541 54.948 226.979 54.834 227.387 54.606C227.795 54.366 228.119 54.03 228.359 53.598C228.599 53.154 228.719 52.626 228.719 52.014ZM233.071 52.014C233.071 50.982 233.281 50.082 233.701 49.314C234.121 48.534 234.703 47.934 235.447 47.514C236.191 47.082 237.043 46.866 238.003 46.866C239.239 46.866 240.259 47.178 241.063 47.802C241.879 48.414 242.425 49.278 242.701 50.394H239.983C239.839 49.962 239.593 49.626 239.245 49.386C238.909 49.134 238.489 49.008 237.985 49.008C237.265 49.008 236.695 49.272 236.275 49.8C235.855 50.316 235.645 51.054 235.645 52.014C235.645 52.962 235.855 53.7 236.275 54.228C236.695 54.744 237.265 55.002 237.985 55.002C239.005 55.002 239.671 54.546 239.983 53.634H242.701C242.425 54.714 241.879 55.572 241.063 56.208C240.247 56.844 239.227 57.162 238.003 57.162C237.043 57.162 236.191 56.952 235.447 56.532C234.703 56.1 234.121 55.5 233.701 54.732C233.281 53.952 233.071 53.046 233.071 52.014ZM250.163 46.884C250.919 46.884 251.591 47.052 252.179 47.388C252.767 47.712 253.223 48.198 253.547 48.846C253.883 49.482 254.051 50.25 254.051 51.15V57H251.531V51.492C251.531 50.7 251.333 50.094 250.937 49.674C250.541 49.242 250.001 49.026 249.317 49.026C248.621 49.026 248.069 49.242 247.661 49.674C247.265 50.094 247.067 50.7 247.067 51.492V57H244.547V43.68H247.067V48.27C247.391 47.838 247.823 47.502 248.363 47.262C248.903 47.01 249.503 46.884 250.163 46.884ZM257.725 45.84C257.281 45.84 256.909 45.702 256.609 45.426C256.321 45.138 256.177 44.784 256.177 44.364C256.177 43.944 256.321 43.596 256.609 43.32C256.909 43.032 257.281 42.888 257.725 42.888C258.169 42.888 258.535 43.032 258.823 43.32C259.123 43.596 259.273 43.944 259.273 44.364C259.273 44.784 259.123 45.138 258.823 45.426C258.535 45.702 258.169 45.84 257.725 45.84ZM258.967 47.028V57H256.447V47.028H258.967ZM266.983 46.884C268.171 46.884 269.131 47.262 269.863 48.018C270.595 48.762 270.961 49.806 270.961 51.15V57H268.441V51.492C268.441 50.7 268.243 50.094 267.847 49.674C267.451 49.242 266.911 49.026 266.227 49.026C265.531 49.026 264.979 49.242 264.571 49.674C264.175 50.094 263.977 50.7 263.977 51.492V57H261.457V47.028H263.977V48.27C264.313 47.838 264.739 47.502 265.255 47.262C265.783 47.01 266.359 46.884 266.983 46.884ZM277.263 46.866C278.007 46.866 278.661 47.016 279.225 47.316C279.789 47.604 280.233 47.982 280.557 48.45V47.028H283.095V57.072C283.095 57.996 282.909 58.818 282.537 59.538C282.165 60.27 281.607 60.846 280.863 61.266C280.119 61.698 279.219 61.914 278.163 61.914C276.747 61.914 275.583 61.584 274.671 60.924C273.771 60.264 273.261 59.364 273.141 58.224H275.643C275.775 58.68 276.057 59.04 276.489 59.304C276.933 59.58 277.467 59.718 278.091 59.718C278.823 59.718 279.417 59.496 279.873 59.052C280.329 58.62 280.557 57.96 280.557 57.072V55.524C280.233 55.992 279.783 56.382 279.207 56.694C278.643 57.006 277.995 57.162 277.263 57.162C276.423 57.162 275.655 56.946 274.959 56.514C274.263 56.082 273.711 55.476 273.303 54.696C272.907 53.904 272.709 52.998 272.709 51.978C272.709 50.97 272.907 50.076 273.303 49.296C273.711 48.516 274.257 47.916 274.941 47.496C275.637 47.076 276.411 46.866 277.263 46.866ZM280.557 52.014C280.557 51.402 280.437 50.88 280.197 50.448C279.957 50.004 279.633 49.668 279.225 49.44C278.817 49.2 278.379 49.08 277.911 49.08C277.443 49.08 277.011 49.194 276.615 49.422C276.219 49.65 275.895 49.986 275.643 50.43C275.403 50.862 275.283 51.378 275.283 51.978C275.283 52.578 275.403 53.106 275.643 53.562C275.895 54.006 276.219 54.348 276.615 54.588C277.023 54.828 277.455 54.948 277.911 54.948C278.379 54.948 278.817 54.834 279.225 54.606C279.633 54.366 279.957 54.03 280.197 53.598C280.437 53.154 280.557 52.626 280.557 52.014ZM294.274 57.162C293.314 57.162 292.45 56.952 291.682 56.532C290.914 56.1 290.308 55.494 289.864 54.714C289.432 53.934 289.216 53.034 289.216 52.014C289.216 50.994 289.438 50.094 289.882 49.314C290.338 48.534 290.956 47.934 291.736 47.514C292.516 47.082 293.386 46.866 294.346 46.866C295.306 46.866 296.176 47.082 296.956 47.514C297.736 47.934 298.348 48.534 298.792 49.314C299.248 50.094 299.476 50.994 299.476 52.014C299.476 53.034 299.242 53.934 298.774 54.714C298.318 55.494 297.694 56.1 296.902 56.532C296.122 56.952 295.246 57.162 294.274 57.162ZM294.274 54.966C294.73 54.966 295.156 54.858 295.552 54.642C295.96 54.414 296.284 54.078 296.524 53.634C296.764 53.19 296.884 52.65 296.884 52.014C296.884 51.066 296.632 50.34 296.128 49.836C295.636 49.32 295.03 49.062 294.31 49.062C293.59 49.062 292.984 49.32 292.492 49.836C292.012 50.34 291.772 51.066 291.772 52.014C291.772 52.962 292.006 53.694 292.474 54.21C292.954 54.714 293.554 54.966 294.274 54.966ZM310.738 47.028V57H308.2V55.74C307.876 56.172 307.45 56.514 306.922 56.766C306.406 57.006 305.842 57.126 305.23 57.126C304.45 57.126 303.76 56.964 303.16 56.64C302.56 56.304 302.086 55.818 301.738 55.182C301.402 54.534 301.234 53.766 301.234 52.878V47.028H303.754V52.518C303.754 53.31 303.952 53.922 304.348 54.354C304.744 54.774 305.284 54.984 305.968 54.984C306.664 54.984 307.21 54.774 307.606 54.354C308.002 53.922 308.2 53.31 308.2 52.518V47.028H310.738ZM316.158 49.098V53.922C316.158 54.258 316.236 54.504 316.392 54.66C316.56 54.804 316.836 54.876 317.22 54.876H318.39V57H316.806C314.682 57 313.62 55.968 313.62 53.904V49.098H312.432V47.028H313.62V44.562H316.158V47.028H318.39V49.098H316.158ZM327.426 49.098V53.922C327.426 54.258 327.504 54.504 327.66 54.66C327.828 54.804 328.104 54.876 328.488 54.876H329.658V57H328.074C325.95 57 324.888 55.968 324.888 53.904V49.098H323.7V47.028H324.888V44.562H327.426V47.028H329.658V49.098H327.426ZM335.899 57.162C334.939 57.162 334.075 56.952 333.307 56.532C332.539 56.1 331.933 55.494 331.489 54.714C331.057 53.934 330.841 53.034 330.841 52.014C330.841 50.994 331.063 50.094 331.507 49.314C331.963 48.534 332.581 47.934 333.361 47.514C334.141 47.082 335.011 46.866 335.971 46.866C336.931 46.866 337.801 47.082 338.581 47.514C339.361 47.934 339.973 48.534 340.417 49.314C340.873 50.094 341.101 50.994 341.101 52.014C341.101 53.034 340.867 53.934 340.399 54.714C339.943 55.494 339.319 56.1 338.527 56.532C337.747 56.952 336.871 57.162 335.899 57.162ZM335.899 54.966C336.355 54.966 336.781 54.858 337.177 54.642C337.585 54.414 337.909 54.078 338.149 53.634C338.389 53.19 338.509 52.65 338.509 52.014C338.509 51.066 338.257 50.34 337.753 49.836C337.261 49.32 336.655 49.062 335.935 49.062C335.215 49.062 334.609 49.32 334.117 49.836C333.637 50.34 333.397 51.066 333.397 52.014C333.397 52.962 333.631 53.694 334.099 54.21C334.579 54.714 335.179 54.966 335.899 54.966ZM356.652 47.028V57H354.114V55.74C353.79 56.172 353.364 56.514 352.836 56.766C352.32 57.006 351.756 57.126 351.144 57.126C350.364 57.126 349.674 56.964 349.074 56.64C348.474 56.304 348 55.818 347.652 55.182C347.316 54.534 347.148 53.766 347.148 52.878V47.028H349.668V52.518C349.668 53.31 349.866 53.922 350.262 54.354C350.658 54.774 351.198 54.984 351.882 54.984C352.578 54.984 353.124 54.774 353.52 54.354C353.916 53.922 354.114 53.31 354.114 52.518V47.028H356.652ZM362.954 57.162C362.138 57.162 361.406 57.018 360.758 56.73C360.11 56.43 359.594 56.028 359.21 55.524C358.838 55.02 358.634 54.462 358.598 53.85H361.136C361.184 54.234 361.37 54.552 361.694 54.804C362.03 55.056 362.444 55.182 362.936 55.182C363.416 55.182 363.788 55.086 364.052 54.894C364.328 54.702 364.466 54.456 364.466 54.156C364.466 53.832 364.298 53.592 363.962 53.436C363.638 53.268 363.116 53.088 362.396 52.896C361.652 52.716 361.04 52.53 360.56 52.338C360.092 52.146 359.684 51.852 359.336 51.456C359 51.06 358.832 50.526 358.832 49.854C358.832 49.302 358.988 48.798 359.3 48.342C359.624 47.886 360.08 47.526 360.668 47.262C361.268 46.998 361.97 46.866 362.774 46.866C363.962 46.866 364.91 47.166 365.618 47.766C366.326 48.354 366.716 49.152 366.788 50.16H364.376C364.34 49.764 364.172 49.452 363.872 49.224C363.584 48.984 363.194 48.864 362.702 48.864C362.246 48.864 361.892 48.948 361.64 49.116C361.4 49.284 361.28 49.518 361.28 49.818C361.28 50.154 361.448 50.412 361.784 50.592C362.12 50.76 362.642 50.934 363.35 51.114C364.07 51.294 364.664 51.48 365.132 51.672C365.6 51.864 366.002 52.164 366.338 52.572C366.686 52.968 366.866 53.496 366.878 54.156C366.878 54.732 366.716 55.248 366.392 55.704C366.08 56.16 365.624 56.52 365.024 56.784C364.436 57.036 363.746 57.162 362.954 57.162ZM372.205 44.22L371.917 52.914H369.793L369.487 44.22H372.205ZM370.909 57.126C370.453 57.126 370.075 56.988 369.775 56.712C369.487 56.424 369.343 56.07 369.343 55.65C369.343 55.23 369.487 54.882 369.775 54.606C370.075 54.318 370.453 54.174 370.909 54.174C371.353 54.174 371.719 54.318 372.007 54.606C372.295 54.882 372.439 55.23 372.439 55.65C372.439 56.07 372.295 56.424 372.007 56.712C371.719 56.988 371.353 57.126 370.909 57.126ZM61.8202 71.436L58.3102 84H55.3402L52.9822 75.054L50.5162 84L47.5642 84.018L44.1802 71.436H46.8802L49.0942 81.192L51.6502 71.436H54.4582L56.8702 81.138L59.1022 71.436H61.8202ZM72.7356 78.798C72.7356 79.158 72.7116 79.482 72.6636 79.77H65.3736C65.4336 80.49 65.6856 81.054 66.1296 81.462C66.5736 81.87 67.1196 82.074 67.7676 82.074C68.7036 82.074 69.3696 81.672 69.7656 80.868H72.4836C72.1956 81.828 71.6436 82.62 70.8276 83.244C70.0116 83.856 69.0096 84.162 67.8216 84.162C66.8616 84.162 65.9976 83.952 65.2296 83.532C64.4736 83.1 63.8796 82.494 63.4476 81.714C63.0276 80.934 62.8176 80.034 62.8176 79.014C62.8176 77.982 63.0276 77.076 63.4476 76.296C63.8676 75.516 64.4556 74.916 65.2116 74.496C65.9676 74.076 66.8376 73.866 67.8216 73.866C68.7696 73.866 69.6156 74.07 70.3596 74.478C71.1156 74.886 71.6976 75.468 72.1056 76.224C72.5256 76.968 72.7356 77.826 72.7356 78.798ZM70.1256 78.078C70.1136 77.43 69.8796 76.914 69.4236 76.53C68.9676 76.134 68.4096 75.936 67.7496 75.936C67.1256 75.936 66.5976 76.128 66.1656 76.512C65.7456 76.884 65.4876 77.406 65.3916 78.078H70.1256ZM92.6881 74.028L89.7721 84H87.0541L85.2361 77.034L83.4181 84H80.6821L77.7481 74.028H80.3041L82.0681 81.624L83.9761 74.028H86.6401L88.5121 81.606L90.2761 74.028H92.6881ZM95.3296 72.84C94.8856 72.84 94.5136 72.702 94.2136 72.426C93.9256 72.138 93.7816 71.784 93.7816 71.364C93.7816 70.944 93.9256 70.596 94.2136 70.32C94.5136 70.032 94.8856 69.888 95.3296 69.888C95.7736 69.888 96.1396 70.032 96.4276 70.32C96.7276 70.596 96.8776 70.944 96.8776 71.364C96.8776 71.784 96.7276 72.138 96.4276 72.426C96.1396 72.702 95.7736 72.84 95.3296 72.84ZM96.5716 74.028V84H94.0516V74.028H96.5716ZM101.581 70.68V84H99.0613V70.68H101.581ZM106.591 70.68V84H104.071V70.68H106.591ZM117.276 73.866C118.02 73.866 118.674 74.016 119.238 74.316C119.802 74.604 120.246 74.982 120.57 75.45V74.028H123.108V84.072C123.108 84.996 122.922 85.818 122.55 86.538C122.178 87.27 121.62 87.846 120.876 88.266C120.132 88.698 119.232 88.914 118.176 88.914C116.76 88.914 115.596 88.584 114.684 87.924C113.784 87.264 113.274 86.364 113.154 85.224H115.656C115.788 85.68 116.07 86.04 116.502 86.304C116.946 86.58 117.48 86.718 118.104 86.718C118.836 86.718 119.43 86.496 119.886 86.052C120.342 85.62 120.57 84.96 120.57 84.072V82.524C120.246 82.992 119.796 83.382 119.22 83.694C118.656 84.006 118.008 84.162 117.276 84.162C116.436 84.162 115.668 83.946 114.972 83.514C114.276 83.082 113.724 82.476 113.316 81.696C112.92 80.904 112.722 79.998 112.722 78.978C112.722 77.97 112.92 77.076 113.316 76.296C113.724 75.516 114.27 74.916 114.954 74.496C115.65 74.076 116.424 73.866 117.276 73.866ZM120.57 79.014C120.57 78.402 120.45 77.88 120.21 77.448C119.97 77.004 119.646 76.668 119.238 76.44C118.83 76.2 118.392 76.08 117.924 76.08C117.456 76.08 117.024 76.194 116.628 76.422C116.232 76.65 115.908 76.986 115.656 77.43C115.416 77.862 115.296 78.378 115.296 78.978C115.296 79.578 115.416 80.106 115.656 80.562C115.908 81.006 116.232 81.348 116.628 81.588C117.036 81.828 117.468 81.948 117.924 81.948C118.392 81.948 118.83 81.834 119.238 81.606C119.646 81.366 119.97 81.03 120.21 80.598C120.45 80.154 120.57 79.626 120.57 79.014ZM134.839 78.798C134.839 79.158 134.815 79.482 134.767 79.77H127.477C127.537 80.49 127.789 81.054 128.233 81.462C128.677 81.87 129.223 82.074 129.871 82.074C130.807 82.074 131.473 81.672 131.869 80.868H134.587C134.299 81.828 133.747 82.62 132.931 83.244C132.115 83.856 131.113 84.162 129.925 84.162C128.965 84.162 128.101 83.952 127.333 83.532C126.577 83.1 125.983 82.494 125.551 81.714C125.131 80.934 124.921 80.034 124.921 79.014C124.921 77.982 125.131 77.076 125.551 76.296C125.971 75.516 126.559 74.916 127.315 74.496C128.071 74.076 128.941 73.866 129.925 73.866C130.873 73.866 131.719 74.07 132.463 74.478C133.219 74.886 133.801 75.468 134.209 76.224C134.629 76.968 134.839 77.826 134.839 78.798ZM132.229 78.078C132.217 77.43 131.983 76.914 131.527 76.53C131.071 76.134 130.513 75.936 129.853 75.936C129.229 75.936 128.701 76.128 128.269 76.512C127.849 76.884 127.591 77.406 127.495 78.078H132.229ZM139.613 76.098V80.922C139.613 81.258 139.691 81.504 139.847 81.66C140.015 81.804 140.291 81.876 140.675 81.876H141.845V84H140.261C138.137 84 137.075 82.968 137.075 80.904V76.098H135.887V74.028H137.075V71.562H139.613V74.028H141.845V76.098H139.613ZM150.466 75.486C150.79 75.006 151.234 74.616 151.798 74.316C152.374 74.016 153.028 73.866 153.76 73.866C154.612 73.866 155.38 74.076 156.064 74.496C156.76 74.916 157.306 75.516 157.702 76.296C158.11 77.064 158.314 77.958 158.314 78.978C158.314 79.998 158.11 80.904 157.702 81.696C157.306 82.476 156.76 83.082 156.064 83.514C155.38 83.946 154.612 84.162 153.76 84.162C153.016 84.162 152.362 84.018 151.798 83.73C151.246 83.43 150.802 83.046 150.466 82.578V84H147.946V70.68H150.466V75.486ZM155.74 78.978C155.74 78.378 155.614 77.862 155.362 77.43C155.122 76.986 154.798 76.65 154.39 76.422C153.994 76.194 153.562 76.08 153.094 76.08C152.638 76.08 152.206 76.2 151.798 76.44C151.402 76.668 151.078 77.004 150.826 77.448C150.586 77.892 150.466 78.414 150.466 79.014C150.466 79.614 150.586 80.136 150.826 80.58C151.078 81.024 151.402 81.366 151.798 81.606C152.206 81.834 152.638 81.948 153.094 81.948C153.562 81.948 153.994 81.828 154.39 81.588C154.798 81.348 155.122 81.006 155.362 80.562C155.614 80.118 155.74 79.59 155.74 78.978ZM159.497 78.978C159.497 77.97 159.695 77.076 160.091 76.296C160.499 75.516 161.045 74.916 161.729 74.496C162.425 74.076 163.199 73.866 164.051 73.866C164.795 73.866 165.443 74.016 165.995 74.316C166.559 74.616 167.009 74.994 167.345 75.45V74.028H169.883V84H167.345V82.542C167.021 83.01 166.571 83.4 165.995 83.712C165.431 84.012 164.777 84.162 164.033 84.162C163.193 84.162 162.425 83.946 161.729 83.514C161.045 83.082 160.499 82.476 160.091 81.696C159.695 80.904 159.497 79.998 159.497 78.978ZM167.345 79.014C167.345 78.402 167.225 77.88 166.985 77.448C166.745 77.004 166.421 76.668 166.013 76.44C165.605 76.2 165.167 76.08 164.699 76.08C164.231 76.08 163.799 76.194 163.403 76.422C163.007 76.65 162.683 76.986 162.431 77.43C162.191 77.862 162.071 78.378 162.071 78.978C162.071 79.578 162.191 80.106 162.431 80.562C162.683 81.006 163.007 81.348 163.403 81.588C163.811 81.828 164.243 81.948 164.699 81.948C165.167 81.948 165.605 81.834 166.013 81.606C166.421 81.366 166.745 81.03 166.985 80.598C167.225 80.154 167.345 79.626 167.345 79.014ZM171.697 79.014C171.697 77.982 171.907 77.082 172.327 76.314C172.747 75.534 173.329 74.934 174.073 74.514C174.817 74.082 175.669 73.866 176.629 73.866C177.865 73.866 178.885 74.178 179.689 74.802C180.505 75.414 181.051 76.278 181.327 77.394H178.609C178.465 76.962 178.219 76.626 177.871 76.386C177.535 76.134 177.115 76.008 176.611 76.008C175.891 76.008 175.321 76.272 174.901 76.8C174.481 77.316 174.271 78.054 174.271 79.014C174.271 79.962 174.481 80.7 174.901 81.228C175.321 81.744 175.891 82.002 176.611 82.002C177.631 82.002 178.297 81.546 178.609 80.634H181.327C181.051 81.714 180.505 82.572 179.689 83.208C178.873 83.844 177.853 84.162 176.629 84.162C175.669 84.162 174.817 83.952 174.073 83.532C173.329 83.1 172.747 82.5 172.327 81.732C171.907 80.952 171.697 80.046 171.697 79.014ZM189.077 84L185.693 79.752V84H183.173V70.68H185.693V78.258L189.041 74.028H192.317L187.925 79.032L192.353 84H189.077ZM200.907 76.098V80.922C200.907 81.258 200.985 81.504 201.141 81.66C201.309 81.804 201.585 81.876 201.969 81.876H203.139V84H201.555C199.431 84 198.369 82.968 198.369 80.904V76.098H197.181V74.028H198.369V71.562H200.907V74.028H203.139V76.098H200.907ZM209.38 84.162C208.42 84.162 207.556 83.952 206.788 83.532C206.02 83.1 205.414 82.494 204.97 81.714C204.538 80.934 204.322 80.034 204.322 79.014C204.322 77.994 204.544 77.094 204.988 76.314C205.444 75.534 206.062 74.934 206.842 74.514C207.622 74.082 208.492 73.866 209.452 73.866C210.412 73.866 211.282 74.082 212.062 74.514C212.842 74.934 213.454 75.534 213.898 76.314C214.354 77.094 214.582 77.994 214.582 79.014C214.582 80.034 214.348 80.934 213.88 81.714C213.424 82.494 212.8 83.1 212.008 83.532C211.228 83.952 210.352 84.162 209.38 84.162ZM209.38 81.966C209.836 81.966 210.262 81.858 210.658 81.642C211.066 81.414 211.39 81.078 211.63 80.634C211.87 80.19 211.99 79.65 211.99 79.014C211.99 78.066 211.738 77.34 211.234 76.836C210.742 76.32 210.136 76.062 209.416 76.062C208.696 76.062 208.09 76.32 207.598 76.836C207.118 77.34 206.878 78.066 206.878 79.014C206.878 79.962 207.112 80.694 207.58 81.21C208.06 81.714 208.66 81.966 209.38 81.966ZM230.26 74.028L224.086 88.716H221.404L223.564 83.748L219.568 74.028H222.394L224.968 80.994L227.578 74.028H230.26ZM236.046 84.162C235.086 84.162 234.222 83.952 233.454 83.532C232.686 83.1 232.08 82.494 231.636 81.714C231.204 80.934 230.988 80.034 230.988 79.014C230.988 77.994 231.21 77.094 231.654 76.314C232.11 75.534 232.728 74.934 233.508 74.514C234.288 74.082 235.158 73.866 236.118 73.866C237.078 73.866 237.948 74.082 238.728 74.514C239.508 74.934 240.12 75.534 240.564 76.314C241.02 77.094 241.248 77.994 241.248 79.014C241.248 80.034 241.014 80.934 240.546 81.714C240.09 82.494 239.466 83.1 238.674 83.532C237.894 83.952 237.018 84.162 236.046 84.162ZM236.046 81.966C236.502 81.966 236.928 81.858 237.324 81.642C237.732 81.414 238.056 81.078 238.296 80.634C238.536 80.19 238.656 79.65 238.656 79.014C238.656 78.066 238.404 77.34 237.9 76.836C237.408 76.32 236.802 76.062 236.082 76.062C235.362 76.062 234.756 76.32 234.264 76.836C233.784 77.34 233.544 78.066 233.544 79.014C233.544 79.962 233.778 80.694 234.246 81.21C234.726 81.714 235.326 81.966 236.046 81.966ZM252.51 74.028V84H249.972V82.74C249.648 83.172 249.222 83.514 248.694 83.766C248.178 84.006 247.614 84.126 247.002 84.126C246.222 84.126 245.532 83.964 244.932 83.64C244.332 83.304 243.858 82.818 243.51 82.182C243.174 81.534 243.006 80.766 243.006 79.878V74.028H245.526V79.518C245.526 80.31 245.724 80.922 246.12 81.354C246.516 81.774 247.056 81.984 247.74 81.984C248.436 81.984 248.982 81.774 249.378 81.354C249.774 80.922 249.972 80.31 249.972 79.518V74.028H252.51ZM258.638 78.978C258.638 77.97 258.836 77.076 259.232 76.296C259.64 75.516 260.186 74.916 260.87 74.496C261.566 74.076 262.34 73.866 263.192 73.866C263.936 73.866 264.584 74.016 265.136 74.316C265.7 74.616 266.15 74.994 266.486 75.45V74.028H269.024V84H266.486V82.542C266.162 83.01 265.712 83.4 265.136 83.712C264.572 84.012 263.918 84.162 263.174 84.162C262.334 84.162 261.566 83.946 260.87 83.514C260.186 83.082 259.64 82.476 259.232 81.696C258.836 80.904 258.638 79.998 258.638 78.978ZM266.486 79.014C266.486 78.402 266.366 77.88 266.126 77.448C265.886 77.004 265.562 76.668 265.154 76.44C264.746 76.2 264.308 76.08 263.84 76.08C263.372 76.08 262.94 76.194 262.544 76.422C262.148 76.65 261.824 76.986 261.572 77.43C261.332 77.862 261.212 78.378 261.212 78.978C261.212 79.578 261.332 80.106 261.572 80.562C261.824 81.006 262.148 81.348 262.544 81.588C262.952 81.828 263.384 81.948 263.84 81.948C264.308 81.948 264.746 81.834 265.154 81.606C265.562 81.366 265.886 81.03 266.126 80.598C266.366 80.154 266.486 79.626 266.486 79.014ZM275.301 84.162C274.485 84.162 273.753 84.018 273.105 83.73C272.457 83.43 271.941 83.028 271.557 82.524C271.185 82.02 270.981 81.462 270.945 80.85H273.483C273.531 81.234 273.717 81.552 274.041 81.804C274.377 82.056 274.791 82.182 275.283 82.182C275.763 82.182 276.135 82.086 276.399 81.894C276.675 81.702 276.813 81.456 276.813 81.156C276.813 80.832 276.645 80.592 276.309 80.436C275.985 80.268 275.463 80.088 274.743 79.896C273.999 79.716 273.387 79.53 272.907 79.338C272.439 79.146 272.031 78.852 271.683 78.456C271.347 78.06 271.179 77.526 271.179 76.854C271.179 76.302 271.335 75.798 271.647 75.342C271.971 74.886 272.427 74.526 273.015 74.262C273.615 73.998 274.317 73.866 275.121 73.866C276.309 73.866 277.257 74.166 277.965 74.766C278.673 75.354 279.063 76.152 279.135 77.16H276.723C276.687 76.764 276.519 76.452 276.219 76.224C275.931 75.984 275.541 75.864 275.049 75.864C274.593 75.864 274.239 75.948 273.987 76.116C273.747 76.284 273.627 76.518 273.627 76.818C273.627 77.154 273.795 77.412 274.131 77.592C274.467 77.76 274.989 77.934 275.697 78.114C276.417 78.294 277.011 78.48 277.479 78.672C277.947 78.864 278.349 79.164 278.685 79.572C279.033 79.968 279.213 80.496 279.225 81.156C279.225 81.732 279.063 82.248 278.739 82.704C278.427 83.16 277.971 83.52 277.371 83.784C276.783 84.036 276.093 84.162 275.301 84.162ZM289.399 84.162C288.583 84.162 287.851 84.018 287.203 83.73C286.555 83.43 286.039 83.028 285.655 82.524C285.283 82.02 285.079 81.462 285.043 80.85H287.581C287.629 81.234 287.815 81.552 288.139 81.804C288.475 82.056 288.889 82.182 289.381 82.182C289.861 82.182 290.233 82.086 290.497 81.894C290.773 81.702 290.911 81.456 290.911 81.156C290.911 80.832 290.743 80.592 290.407 80.436C290.083 80.268 289.561 80.088 288.841 79.896C288.097 79.716 287.485 79.53 287.005 79.338C286.537 79.146 286.129 78.852 285.781 78.456C285.445 78.06 285.277 77.526 285.277 76.854C285.277 76.302 285.433 75.798 285.745 75.342C286.069 74.886 286.525 74.526 287.113 74.262C287.713 73.998 288.415 73.866 289.219 73.866C290.407 73.866 291.355 74.166 292.063 74.766C292.771 75.354 293.161 76.152 293.233 77.16H290.821C290.785 76.764 290.617 76.452 290.317 76.224C290.029 75.984 289.639 75.864 289.147 75.864C288.691 75.864 288.337 75.948 288.085 76.116C287.845 76.284 287.725 76.518 287.725 76.818C287.725 77.154 287.893 77.412 288.229 77.592C288.565 77.76 289.087 77.934 289.795 78.114C290.515 78.294 291.109 78.48 291.577 78.672C292.045 78.864 292.447 79.164 292.783 79.572C293.131 79.968 293.311 80.496 293.323 81.156C293.323 81.732 293.161 82.248 292.837 82.704C292.525 83.16 292.069 83.52 291.469 83.784C290.881 84.036 290.191 84.162 289.399 84.162ZM299.819 84.162C298.859 84.162 297.995 83.952 297.227 83.532C296.459 83.1 295.853 82.494 295.409 81.714C294.977 80.934 294.761 80.034 294.761 79.014C294.761 77.994 294.983 77.094 295.427 76.314C295.883 75.534 296.501 74.934 297.281 74.514C298.061 74.082 298.931 73.866 299.891 73.866C300.851 73.866 301.721 74.082 302.501 74.514C303.281 74.934 303.893 75.534 304.337 76.314C304.793 77.094 305.021 77.994 305.021 79.014C305.021 80.034 304.787 80.934 304.319 81.714C303.863 82.494 303.239 83.1 302.447 83.532C301.667 83.952 300.791 84.162 299.819 84.162ZM299.819 81.966C300.275 81.966 300.701 81.858 301.097 81.642C301.505 81.414 301.829 81.078 302.069 80.634C302.309 80.19 302.429 79.65 302.429 79.014C302.429 78.066 302.177 77.34 301.673 76.836C301.181 76.32 300.575 76.062 299.855 76.062C299.135 76.062 298.529 76.32 298.037 76.836C297.557 77.34 297.317 78.066 297.317 79.014C297.317 79.962 297.551 80.694 298.019 81.21C298.499 81.714 299.099 81.966 299.819 81.966ZM311.298 84.162C310.338 84.162 309.474 83.952 308.706 83.532C307.938 83.1 307.332 82.494 306.888 81.714C306.456 80.934 306.24 80.034 306.24 79.014C306.24 77.994 306.462 77.094 306.906 76.314C307.362 75.534 307.98 74.934 308.76 74.514C309.54 74.082 310.41 73.866 311.37 73.866C312.33 73.866 313.2 74.082 313.98 74.514C314.76 74.934 315.372 75.534 315.816 76.314C316.272 77.094 316.5 77.994 316.5 79.014C316.5 80.034 316.266 80.934 315.798 81.714C315.342 82.494 314.718 83.1 313.926 83.532C313.146 83.952 312.27 84.162 311.298 84.162ZM311.298 81.966C311.754 81.966 312.18 81.858 312.576 81.642C312.984 81.414 313.308 81.078 313.548 80.634C313.788 80.19 313.908 79.65 313.908 79.014C313.908 78.066 313.656 77.34 313.152 76.836C312.66 76.32 312.054 76.062 311.334 76.062C310.614 76.062 310.008 76.32 309.516 76.836C309.036 77.34 308.796 78.066 308.796 79.014C308.796 79.962 309.03 80.694 309.498 81.21C309.978 81.714 310.578 81.966 311.298 81.966ZM323.874 73.884C325.062 73.884 326.022 74.262 326.754 75.018C327.486 75.762 327.852 76.806 327.852 78.15V84H325.332V78.492C325.332 77.7 325.134 77.094 324.738 76.674C324.342 76.242 323.802 76.026 323.118 76.026C322.422 76.026 321.87 76.242 321.462 76.674C321.066 77.094 320.868 77.7 320.868 78.492V84H318.348V74.028H320.868V75.27C321.204 74.838 321.63 74.502 322.146 74.262C322.674 74.01 323.25 73.884 323.874 73.884ZM333.89 78.978C333.89 77.97 334.088 77.076 334.484 76.296C334.892 75.516 335.438 74.916 336.122 74.496C336.818 74.076 337.592 73.866 338.444 73.866C339.188 73.866 339.836 74.016 340.388 74.316C340.952 74.616 341.402 74.994 341.738 75.45V74.028H344.276V84H341.738V82.542C341.414 83.01 340.964 83.4 340.388 83.712C339.824 84.012 339.17 84.162 338.426 84.162C337.586 84.162 336.818 83.946 336.122 83.514C335.438 83.082 334.892 82.476 334.484 81.696C334.088 80.904 333.89 79.998 333.89 78.978ZM341.738 79.014C341.738 78.402 341.618 77.88 341.378 77.448C341.138 77.004 340.814 76.668 340.406 76.44C339.998 76.2 339.56 76.08 339.092 76.08C338.624 76.08 338.192 76.194 337.796 76.422C337.4 76.65 337.076 76.986 336.824 77.43C336.584 77.862 336.464 78.378 336.464 78.978C336.464 79.578 336.584 80.106 336.824 80.562C337.076 81.006 337.4 81.348 337.796 81.588C338.204 81.828 338.636 81.948 339.092 81.948C339.56 81.948 339.998 81.834 340.406 81.606C340.814 81.366 341.138 81.03 341.378 80.598C341.618 80.154 341.738 79.626 341.738 79.014ZM350.553 84.162C349.737 84.162 349.005 84.018 348.357 83.73C347.709 83.43 347.193 83.028 346.809 82.524C346.437 82.02 346.233 81.462 346.197 80.85H348.735C348.783 81.234 348.969 81.552 349.293 81.804C349.629 82.056 350.043 82.182 350.535 82.182C351.015 82.182 351.387 82.086 351.651 81.894C351.927 81.702 352.065 81.456 352.065 81.156C352.065 80.832 351.897 80.592 351.561 80.436C351.237 80.268 350.715 80.088 349.995 79.896C349.251 79.716 348.639 79.53 348.159 79.338C347.691 79.146 347.283 78.852 346.935 78.456C346.599 78.06 346.431 77.526 346.431 76.854C346.431 76.302 346.587 75.798 346.899 75.342C347.223 74.886 347.679 74.526 348.267 74.262C348.867 73.998 349.569 73.866 350.373 73.866C351.561 73.866 352.509 74.166 353.217 74.766C353.925 75.354 354.315 76.152 354.387 77.16H351.975C351.939 76.764 351.771 76.452 351.471 76.224C351.183 75.984 350.793 75.864 350.301 75.864C349.845 75.864 349.491 75.948 349.239 76.116C348.999 76.284 348.879 76.518 348.879 76.818C348.879 77.154 349.047 77.412 349.383 77.592C349.719 77.76 350.241 77.934 350.949 78.114C351.669 78.294 352.263 78.48 352.731 78.672C353.199 78.864 353.601 79.164 353.937 79.572C354.285 79.968 354.465 80.496 354.477 81.156C354.477 81.732 354.315 82.248 353.991 82.704C353.679 83.16 353.223 83.52 352.623 83.784C352.035 84.036 351.345 84.162 350.553 84.162ZM363.355 75.468C363.679 75.012 364.123 74.634 364.687 74.334C365.263 74.022 365.917 73.866 366.649 73.866C367.501 73.866 368.269 74.076 368.953 74.496C369.649 74.916 370.195 75.516 370.591 76.296C370.999 77.064 371.203 77.958 371.203 78.978C371.203 79.998 370.999 80.904 370.591 81.696C370.195 82.476 369.649 83.082 368.953 83.514C368.269 83.946 367.501 84.162 366.649 84.162C365.917 84.162 365.269 84.012 364.705 83.712C364.153 83.412 363.703 83.034 363.355 82.578V88.752H360.835V74.028H363.355V75.468ZM368.629 78.978C368.629 78.378 368.503 77.862 368.251 77.43C368.011 76.986 367.687 76.65 367.279 76.422C366.883 76.194 366.451 76.08 365.983 76.08C365.527 76.08 365.095 76.2 364.687 76.44C364.291 76.668 363.967 77.004 363.715 77.448C363.475 77.892 363.355 78.414 363.355 79.014C363.355 79.614 363.475 80.136 363.715 80.58C363.967 81.024 364.291 81.366 364.687 81.606C365.095 81.834 365.527 81.948 365.983 81.948C366.451 81.948 366.883 81.828 367.279 81.588C367.687 81.348 368.011 81.006 368.251 80.562C368.503 80.118 368.629 79.59 368.629 78.978ZM377.462 84.162C376.502 84.162 375.638 83.952 374.87 83.532C374.102 83.1 373.496 82.494 373.052 81.714C372.62 80.934 372.404 80.034 372.404 79.014C372.404 77.994 372.626 77.094 373.07 76.314C373.526 75.534 374.144 74.934 374.924 74.514C375.704 74.082 376.574 73.866 377.534 73.866C378.494 73.866 379.364 74.082 380.144 74.514C380.924 74.934 381.536 75.534 381.98 76.314C382.436 77.094 382.664 77.994 382.664 79.014C382.664 80.034 382.43 80.934 381.962 81.714C381.506 82.494 380.882 83.1 380.09 83.532C379.31 83.952 378.434 84.162 377.462 84.162ZM377.462 81.966C377.918 81.966 378.344 81.858 378.74 81.642C379.148 81.414 379.472 81.078 379.712 80.634C379.952 80.19 380.072 79.65 380.072 79.014C380.072 78.066 379.82 77.34 379.316 76.836C378.824 76.32 378.218 76.062 377.498 76.062C376.778 76.062 376.172 76.32 375.68 76.836C375.2 77.34 374.96 78.066 374.96 79.014C374.96 79.962 375.194 80.694 375.662 81.21C376.142 81.714 376.742 81.966 377.462 81.966ZM388.329 84.162C387.513 84.162 386.781 84.018 386.133 83.73C385.485 83.43 384.969 83.028 384.585 82.524C384.213 82.02 384.009 81.462 383.973 80.85H386.511C386.559 81.234 386.745 81.552 387.069 81.804C387.405 82.056 387.819 82.182 388.311 82.182C388.791 82.182 389.163 82.086 389.427 81.894C389.703 81.702 389.841 81.456 389.841 81.156C389.841 80.832 389.673 80.592 389.337 80.436C389.013 80.268 388.491 80.088 387.771 79.896C387.027 79.716 386.415 79.53 385.935 79.338C385.467 79.146 385.059 78.852 384.711 78.456C384.375 78.06 384.207 77.526 384.207 76.854C384.207 76.302 384.363 75.798 384.675 75.342C384.999 74.886 385.455 74.526 386.043 74.262C386.643 73.998 387.345 73.866 388.149 73.866C389.337 73.866 390.285 74.166 390.993 74.766C391.701 75.354 392.091 76.152 392.163 77.16H389.751C389.715 76.764 389.547 76.452 389.247 76.224C388.959 75.984 388.569 75.864 388.077 75.864C387.621 75.864 387.267 75.948 387.015 76.116C386.775 76.284 386.655 76.518 386.655 76.818C386.655 77.154 386.823 77.412 387.159 77.592C387.495 77.76 388.017 77.934 388.725 78.114C389.445 78.294 390.039 78.48 390.507 78.672C390.975 78.864 391.377 79.164 391.713 79.572C392.061 79.968 392.241 80.496 392.253 81.156C392.253 81.732 392.091 82.248 391.767 82.704C391.455 83.16 390.999 83.52 390.399 83.784C389.811 84.036 389.121 84.162 388.329 84.162ZM398.137 84.162C397.321 84.162 396.589 84.018 395.941 83.73C395.293 83.43 394.777 83.028 394.393 82.524C394.021 82.02 393.817 81.462 393.781 80.85H396.319C396.367 81.234 396.553 81.552 396.877 81.804C397.213 82.056 397.627 82.182 398.119 82.182C398.599 82.182 398.971 82.086 399.235 81.894C399.511 81.702 399.649 81.456 399.649 81.156C399.649 80.832 399.481 80.592 399.145 80.436C398.821 80.268 398.299 80.088 397.579 79.896C396.835 79.716 396.223 79.53 395.743 79.338C395.275 79.146 394.867 78.852 394.519 78.456C394.183 78.06 394.015 77.526 394.015 76.854C394.015 76.302 394.171 75.798 394.483 75.342C394.807 74.886 395.263 74.526 395.851 74.262C396.451 73.998 397.153 73.866 397.957 73.866C399.145 73.866 400.093 74.166 400.801 74.766C401.509 75.354 401.899 76.152 401.971 77.16H399.559C399.523 76.764 399.355 76.452 399.055 76.224C398.767 75.984 398.377 75.864 397.885 75.864C397.429 75.864 397.075 75.948 396.823 76.116C396.583 76.284 396.463 76.518 396.463 76.818C396.463 77.154 396.631 77.412 396.967 77.592C397.303 77.76 397.825 77.934 398.533 78.114C399.253 78.294 399.847 78.48 400.315 78.672C400.783 78.864 401.185 79.164 401.521 79.572C401.869 79.968 402.049 80.496 402.061 81.156C402.061 81.732 401.899 82.248 401.575 82.704C401.263 83.16 400.807 83.52 400.207 83.784C399.619 84.036 398.929 84.162 398.137 84.162ZM405.408 72.84C404.964 72.84 404.592 72.702 404.292 72.426C404.004 72.138 403.86 71.784 403.86 71.364C403.86 70.944 404.004 70.596 404.292 70.32C404.592 70.032 404.964 69.888 405.408 69.888C405.852 69.888 406.218 70.032 406.506 70.32C406.806 70.596 406.956 70.944 406.956 71.364C406.956 71.784 406.806 72.138 406.506 72.426C406.218 72.702 405.852 72.84 405.408 72.84ZM406.65 74.028V84H404.13V74.028H406.65ZM411.659 75.486C411.983 75.006 412.427 74.616 412.991 74.316C413.567 74.016 414.221 73.866 414.953 73.866C415.805 73.866 416.573 74.076 417.257 74.496C417.953 74.916 418.499 75.516 418.895 76.296C419.303 77.064 419.507 77.958 419.507 78.978C419.507 79.998 419.303 80.904 418.895 81.696C418.499 82.476 417.953 83.082 417.257 83.514C416.573 83.946 415.805 84.162 414.953 84.162C414.209 84.162 413.555 84.018 412.991 83.73C412.439 83.43 411.995 83.046 411.659 82.578V84H409.139V70.68H411.659V75.486ZM416.933 78.978C416.933 78.378 416.807 77.862 416.555 77.43C416.315 76.986 415.991 76.65 415.583 76.422C415.187 76.194 414.755 76.08 414.287 76.08C413.831 76.08 413.399 76.2 412.991 76.44C412.595 76.668 412.271 77.004 412.019 77.448C411.779 77.892 411.659 78.414 411.659 79.014C411.659 79.614 411.779 80.136 412.019 80.58C412.271 81.024 412.595 81.366 412.991 81.606C413.399 81.834 413.831 81.948 414.287 81.948C414.755 81.948 415.187 81.828 415.583 81.588C415.991 81.348 416.315 81.006 416.555 80.562C416.807 80.118 416.933 79.59 416.933 78.978ZM423.859 70.68V84H421.339V70.68H423.859ZM435.618 78.798C435.618 79.158 435.594 79.482 435.546 79.77H428.256C428.316 80.49 428.568 81.054 429.012 81.462C429.456 81.87 430.002 82.074 430.65 82.074C431.586 82.074 432.252 81.672 432.648 80.868H435.366C435.078 81.828 434.526 82.62 433.71 83.244C432.894 83.856 431.892 84.162 430.704 84.162C429.744 84.162 428.88 83.952 428.112 83.532C427.356 83.1 426.762 82.494 426.33 81.714C425.91 80.934 425.7 80.034 425.7 79.014C425.7 77.982 425.91 77.076 426.33 76.296C426.75 75.516 427.338 74.916 428.094 74.496C428.85 74.076 429.72 73.866 430.704 73.866C431.652 73.866 432.498 74.07 433.242 74.478C433.998 74.886 434.58 75.468 434.988 76.224C435.408 76.968 435.618 77.826 435.618 78.798ZM433.008 78.078C432.996 77.43 432.762 76.914 432.306 76.53C431.85 76.134 431.292 75.936 430.632 75.936C430.008 75.936 429.48 76.128 429.048 76.512C428.628 76.884 428.37 77.406 428.274 78.078H433.008Z" fill="#0F0F0F"/>
</g>
<defs>
<filter id="filter0_d_1_5155" x="0" y="0" width="476" height="147.105" filterUnits="userSpaceOnUse" color-interpolation-filters="sRGB">
<feFlood flood-opacity="0" result="BackgroundImageFix"/>
<feColorMatrix in="SourceAlpha" type="matrix" values="0 0 0 0 0 0 0 0 0 0 0 0 0 0 0 0 0 0 127 0" result="hardAlpha"/>
<feOffset dx="-2" dy="4"/>
<feGaussianBlur stdDeviation="15"/>
<feComposite in2="hardAlpha" operator="out"/>
<feColorMatrix type="matrix" values="0 0 0 0 0 0 0 0 0 0 0 0 0 0 0 0 0 0 0.2 0"/>
<feBlend mode="normal" in2="BackgroundImageFix" result="effect1_dropShadow_1_5155"/>
<feBlend mode="normal" in="SourceGraphic" in2="effect1_dropShadow_1_5155" result="shape"/>
</filter>
</defs>
</svg>
