<svg width="84" height="84" viewBox="0 0 84 84" fill="none" xmlns="http://www.w3.org/2000/svg">
<g filter="url(#filter0_d_1_4875)">
<rect x="11" y="11" width="60" height="60" rx="30" fill="white"/>
<g clip-path="url(#clip0_1_4875)">
<path d="M48.7452 26H31.323C30.04 26 29 27.04 29 28.323V53.8755C29 55.1584 30.04 56.1984 31.323 56.1984H48.7452C50.0281 56.1984 51.0682 55.1584 51.0682 53.8755V28.323C51.0682 27.04 50.0281 26 48.7452 26Z" fill="#0F0F0F"/>
<path d="M32.4844 32.969H46.4222" stroke="#F8F8F8" stroke-width="1.74222" stroke-linecap="round"/>
<path d="M32.4844 37.615H46.4222" stroke="#F8F8F8" stroke-width="1.74222" stroke-linecap="round"/>
<path d="M32.4844 42.261H46.4222" stroke="#F8F8F8" stroke-width="1.74222" stroke-linecap="round"/>
<path d="M32.4844 46.9067H39.4533" stroke="#F8F8F8" stroke-width="1.74222" stroke-linecap="round"/>
<path d="M54.2999 39.6072L45.5798 54.7109L45.9486 59.0491C46.0171 59.8548 46.8674 60.3457 47.5994 60.0022L51.5409 58.1525L60.261 43.0488C60.9025 41.9378 60.5218 40.5171 59.4108 39.8756L57.4732 38.7569C56.3621 38.1155 54.9414 38.4961 54.2999 39.6072Z" fill="#0F0F0F" stroke="#F8F8F8" stroke-width="1.16148" stroke-linecap="round"/>
</g>
</g>
<defs>
<filter id="filter0_d_1_4875" x="0" y="0" width="84" height="84" filterUnits="userSpaceOnUse" color-interpolation-filters="sRGB">
<feFlood flood-opacity="0" result="BackgroundImageFix"/>
<feColorMatrix in="SourceAlpha" type="matrix" values="0 0 0 0 0 0 0 0 0 0 0 0 0 0 0 0 0 0 127 0" result="hardAlpha"/>
<feOffset dx="1" dy="1"/>
<feGaussianBlur stdDeviation="6"/>
<feComposite in2="hardAlpha" operator="out"/>
<feColorMatrix type="matrix" values="0 0 0 0 1 0 0 0 0 1 0 0 0 0 1 0 0 0 0.24 0"/>
<feBlend mode="normal" in2="BackgroundImageFix" result="effect1_dropShadow_1_4875"/>
<feBlend mode="normal" in="SourceGraphic" in2="effect1_dropShadow_1_4875" result="shape"/>
</filter>
<clipPath id="clip0_1_4875">
<rect width="32" height="34" fill="white" transform="translate(29 26)"/>
</clipPath>
</defs>
</svg>
