<svg width="400" height="120" viewBox="0 0 400 120" fill="none" xmlns="http://www.w3.org/2000/svg">
<g filter="url(#filter0_d_1_5131)">
<path d="M32 34C32 29.5817 35.5817 26 40 26H364C368.418 26 372 29.5817 372 34V65.9815C372 70.3998 368.418 73.9815 364 73.9815H348.76C348.077 73.9815 347.442 74.3294 347.074 74.9042L340.808 84.7063C340.418 85.3153 339.531 85.3228 339.132 84.7205L332.602 74.876C332.231 74.3174 331.605 73.9815 330.935 73.9815H40C35.5817 73.9815 32 70.3998 32 65.9815V34Z" fill="#F8F8F8"/>
<path d="M50.0381 43.436V45.47H46.6901V56H44.1701V45.47H40.8221V43.436H50.0381ZM57.4928 45.884C58.2488 45.884 58.9208 46.052 59.5088 46.388C60.0968 46.712 60.5528 47.198 60.8768 47.846C61.2128 48.482 61.3808 49.25 61.3808 50.15V56H58.8608V50.492C58.8608 49.7 58.6628 49.094 58.2668 48.674C57.8708 48.242 57.3308 48.026 56.6468 48.026C55.9508 48.026 55.3988 48.242 54.9908 48.674C54.5948 49.094 54.3968 49.7 54.3968 50.492V56H51.8768V42.68H54.3968V47.27C54.7208 46.838 55.1528 46.502 55.6928 46.262C56.2328 46.01 56.8328 45.884 57.4928 45.884ZM63.1292 50.978C63.1292 49.97 63.3272 49.076 63.7232 48.296C64.1312 47.516 64.6772 46.916 65.3612 46.496C66.0572 46.076 66.8312 45.866 67.6832 45.866C68.4272 45.866 69.0752 46.016 69.6272 46.316C70.1912 46.616 70.6412 46.994 70.9772 47.45V46.028H73.5152V56H70.9772V54.542C70.6532 55.01 70.2032 55.4 69.6272 55.712C69.0632 56.012 68.4092 56.162 67.6652 56.162C66.8252 56.162 66.0572 55.946 65.3612 55.514C64.6772 55.082 64.1312 54.476 63.7232 53.696C63.3272 52.904 63.1292 51.998 63.1292 50.978ZM70.9772 51.014C70.9772 50.402 70.8572 49.88 70.6172 49.448C70.3772 49.004 70.0532 48.668 69.6452 48.44C69.2372 48.2 68.7992 48.08 68.3312 48.08C67.8632 48.08 67.4312 48.194 67.0352 48.422C66.6392 48.65 66.3152 48.986 66.0632 49.43C65.8232 49.862 65.7032 50.378 65.7032 50.978C65.7032 51.578 65.8232 52.106 66.0632 52.562C66.3152 53.006 66.6392 53.348 67.0352 53.588C67.4432 53.828 67.8752 53.948 68.3312 53.948C68.7992 53.948 69.2372 53.834 69.6452 53.606C70.0532 53.366 70.3772 53.03 70.6172 52.598C70.8572 52.154 70.9772 51.626 70.9772 51.014ZM81.5024 45.884C82.6904 45.884 83.6504 46.262 84.3824 47.018C85.1144 47.762 85.4804 48.806 85.4804 50.15V56H82.9604V50.492C82.9604 49.7 82.7624 49.094 82.3664 48.674C81.9704 48.242 81.4304 48.026 80.7464 48.026C80.0504 48.026 79.4984 48.242 79.0904 48.674C78.6944 49.094 78.4964 49.7 78.4964 50.492V56H75.9764V46.028H78.4964V47.27C78.8324 46.838 79.2584 46.502 79.7744 46.262C80.3024 46.01 80.8784 45.884 81.5024 45.884ZM93.7808 56L90.3968 51.752V56H87.8768V42.68H90.3968V50.258L93.7448 46.028H97.0208L92.6288 51.032L97.0568 56H93.7808ZM102.204 56.162C101.388 56.162 100.656 56.018 100.008 55.73C99.3605 55.43 98.8445 55.028 98.4605 54.524C98.0885 54.02 97.8845 53.462 97.8485 52.85H100.386C100.434 53.234 100.62 53.552 100.944 53.804C101.28 54.056 101.694 54.182 102.186 54.182C102.666 54.182 103.038 54.086 103.302 53.894C103.578 53.702 103.716 53.456 103.716 53.156C103.716 52.832 103.548 52.592 103.212 52.436C102.888 52.268 102.366 52.088 101.646 51.896C100.902 51.716 100.29 51.53 99.8105 51.338C99.3425 51.146 98.9345 50.852 98.5865 50.456C98.2505 50.06 98.0825 49.526 98.0825 48.854C98.0825 48.302 98.2385 47.798 98.5505 47.342C98.8745 46.886 99.3305 46.526 99.9185 46.262C100.518 45.998 101.22 45.866 102.024 45.866C103.212 45.866 104.16 46.166 104.868 46.766C105.576 47.354 105.966 48.152 106.038 49.16H103.626C103.59 48.764 103.422 48.452 103.122 48.224C102.834 47.984 102.444 47.864 101.952 47.864C101.496 47.864 101.142 47.948 100.89 48.116C100.65 48.284 100.53 48.518 100.53 48.818C100.53 49.154 100.698 49.412 101.034 49.592C101.37 49.76 101.892 49.934 102.6 50.114C103.32 50.294 103.914 50.48 104.382 50.672C104.85 50.864 105.252 51.164 105.588 51.572C105.936 51.968 106.116 52.496 106.128 53.156C106.128 53.732 105.966 54.248 105.642 54.704C105.33 55.16 104.874 55.52 104.274 55.784C103.686 56.036 102.996 56.162 102.204 56.162ZM117.058 48.098H115.312V56H112.756V48.098H111.622V46.028H112.756V45.524C112.756 44.3 113.104 43.4 113.8 42.824C114.496 42.248 115.546 41.978 116.95 42.014V44.138C116.338 44.126 115.912 44.228 115.672 44.444C115.432 44.66 115.312 45.05 115.312 45.614V46.028H117.058V48.098ZM123.119 56.162C122.159 56.162 121.295 55.952 120.527 55.532C119.759 55.1 119.153 54.494 118.709 53.714C118.277 52.934 118.061 52.034 118.061 51.014C118.061 49.994 118.283 49.094 118.727 48.314C119.183 47.534 119.801 46.934 120.581 46.514C121.361 46.082 122.231 45.866 123.191 45.866C124.151 45.866 125.021 46.082 125.801 46.514C126.581 46.934 127.193 47.534 127.637 48.314C128.093 49.094 128.321 49.994 128.321 51.014C128.321 52.034 128.087 52.934 127.619 53.714C127.163 54.494 126.539 55.1 125.747 55.532C124.967 55.952 124.091 56.162 123.119 56.162ZM123.119 53.966C123.575 53.966 124.001 53.858 124.397 53.642C124.805 53.414 125.129 53.078 125.369 52.634C125.609 52.19 125.729 51.65 125.729 51.014C125.729 50.066 125.477 49.34 124.973 48.836C124.481 48.32 123.875 48.062 123.155 48.062C122.435 48.062 121.829 48.32 121.337 48.836C120.857 49.34 120.617 50.066 120.617 51.014C120.617 51.962 120.851 52.694 121.319 53.21C121.799 53.714 122.399 53.966 123.119 53.966ZM132.69 47.576C133.014 47.048 133.434 46.634 133.95 46.334C134.478 46.034 135.078 45.884 135.75 45.884V48.53H135.084C134.292 48.53 133.692 48.716 133.284 49.088C132.888 49.46 132.69 50.108 132.69 51.032V56H130.17V46.028H132.69V47.576ZM151.276 46.028L145.102 60.716H142.42L144.58 55.748L140.584 46.028H143.41L145.984 52.994L148.594 46.028H151.276ZM157.063 56.162C156.103 56.162 155.239 55.952 154.471 55.532C153.703 55.1 153.097 54.494 152.653 53.714C152.221 52.934 152.005 52.034 152.005 51.014C152.005 49.994 152.227 49.094 152.671 48.314C153.127 47.534 153.745 46.934 154.525 46.514C155.305 46.082 156.175 45.866 157.135 45.866C158.095 45.866 158.965 46.082 159.745 46.514C160.525 46.934 161.137 47.534 161.581 48.314C162.037 49.094 162.265 49.994 162.265 51.014C162.265 52.034 162.031 52.934 161.563 53.714C161.107 54.494 160.483 55.1 159.691 55.532C158.911 55.952 158.035 56.162 157.063 56.162ZM157.063 53.966C157.519 53.966 157.945 53.858 158.341 53.642C158.749 53.414 159.073 53.078 159.313 52.634C159.553 52.19 159.673 51.65 159.673 51.014C159.673 50.066 159.421 49.34 158.917 48.836C158.425 48.32 157.819 48.062 157.099 48.062C156.379 48.062 155.773 48.32 155.281 48.836C154.801 49.34 154.561 50.066 154.561 51.014C154.561 51.962 154.795 52.694 155.263 53.21C155.743 53.714 156.343 53.966 157.063 53.966ZM173.527 46.028V56H170.989V54.74C170.665 55.172 170.239 55.514 169.711 55.766C169.195 56.006 168.631 56.126 168.019 56.126C167.239 56.126 166.549 55.964 165.949 55.64C165.349 55.304 164.875 54.818 164.527 54.182C164.191 53.534 164.023 52.766 164.023 51.878V46.028H166.543V51.518C166.543 52.31 166.741 52.922 167.137 53.354C167.533 53.774 168.073 53.984 168.757 53.984C169.453 53.984 169.999 53.774 170.395 53.354C170.791 52.922 170.989 52.31 170.989 51.518V46.028H173.527ZM178.533 47.576C178.857 47.048 179.277 46.634 179.793 46.334C180.321 46.034 180.921 45.884 181.593 45.884V48.53H180.927C180.135 48.53 179.535 48.716 179.127 49.088C178.731 49.46 178.533 50.108 178.533 51.032V56H176.013V46.028H178.533V47.576ZM191.738 53.678L194.258 46.028H196.94L193.25 56H190.19L186.518 46.028H189.218L191.738 53.678ZM197.707 50.978C197.707 49.97 197.905 49.076 198.301 48.296C198.709 47.516 199.255 46.916 199.939 46.496C200.635 46.076 201.409 45.866 202.261 45.866C203.005 45.866 203.653 46.016 204.205 46.316C204.769 46.616 205.219 46.994 205.555 47.45V46.028H208.093V56H205.555V54.542C205.231 55.01 204.781 55.4 204.205 55.712C203.641 56.012 202.987 56.162 202.243 56.162C201.403 56.162 200.635 55.946 199.939 55.514C199.255 55.082 198.709 54.476 198.301 53.696C197.905 52.904 197.707 51.998 197.707 50.978ZM205.555 51.014C205.555 50.402 205.435 49.88 205.195 49.448C204.955 49.004 204.631 48.668 204.223 48.44C203.815 48.2 203.377 48.08 202.909 48.08C202.441 48.08 202.009 48.194 201.613 48.422C201.217 48.65 200.893 48.986 200.641 49.43C200.401 49.862 200.281 50.378 200.281 50.978C200.281 51.578 200.401 52.106 200.641 52.562C200.893 53.006 201.217 53.348 201.613 53.588C202.021 53.828 202.453 53.948 202.909 53.948C203.377 53.948 203.815 53.834 204.223 53.606C204.631 53.366 204.955 53.03 205.195 52.598C205.435 52.154 205.555 51.626 205.555 51.014ZM213.075 42.68V56H210.555V42.68H213.075ZM224.978 46.028V56H222.44V54.74C222.116 55.172 221.69 55.514 221.162 55.766C220.646 56.006 220.082 56.126 219.47 56.126C218.69 56.126 218 55.964 217.4 55.64C216.8 55.304 216.326 54.818 215.978 54.182C215.642 53.534 215.474 52.766 215.474 51.878V46.028H217.994V51.518C217.994 52.31 218.192 52.922 218.588 53.354C218.984 53.774 219.524 53.984 220.208 53.984C220.904 53.984 221.45 53.774 221.846 53.354C222.242 52.922 222.44 52.31 222.44 51.518V46.028H224.978ZM226.817 50.978C226.817 49.97 227.015 49.076 227.411 48.296C227.819 47.516 228.365 46.916 229.049 46.496C229.745 46.076 230.519 45.866 231.371 45.866C232.115 45.866 232.763 46.016 233.315 46.316C233.879 46.616 234.329 46.994 234.665 47.45V46.028H237.203V56H234.665V54.542C234.341 55.01 233.891 55.4 233.315 55.712C232.751 56.012 232.097 56.162 231.353 56.162C230.513 56.162 229.745 55.946 229.049 55.514C228.365 55.082 227.819 54.476 227.411 53.696C227.015 52.904 226.817 51.998 226.817 50.978ZM234.665 51.014C234.665 50.402 234.545 49.88 234.305 49.448C234.065 49.004 233.741 48.668 233.333 48.44C232.925 48.2 232.487 48.08 232.019 48.08C231.551 48.08 231.119 48.194 230.723 48.422C230.327 48.65 230.003 48.986 229.751 49.43C229.511 49.862 229.391 50.378 229.391 50.978C229.391 51.578 229.511 52.106 229.751 52.562C230.003 53.006 230.327 53.348 230.723 53.588C231.131 53.828 231.563 53.948 232.019 53.948C232.487 53.948 232.925 53.834 233.333 53.606C233.741 53.366 234.065 53.03 234.305 52.598C234.545 52.154 234.665 51.626 234.665 51.014ZM242.184 47.486C242.508 47.006 242.952 46.616 243.516 46.316C244.092 46.016 244.746 45.866 245.478 45.866C246.33 45.866 247.098 46.076 247.782 46.496C248.478 46.916 249.024 47.516 249.42 48.296C249.828 49.064 250.032 49.958 250.032 50.978C250.032 51.998 249.828 52.904 249.42 53.696C249.024 54.476 248.478 55.082 247.782 55.514C247.098 55.946 246.33 56.162 245.478 56.162C244.734 56.162 244.08 56.018 243.516 55.73C242.964 55.43 242.52 55.046 242.184 54.578V56H239.664V42.68H242.184V47.486ZM247.458 50.978C247.458 50.378 247.332 49.862 247.08 49.43C246.84 48.986 246.516 48.65 246.108 48.422C245.712 48.194 245.28 48.08 244.812 48.08C244.356 48.08 243.924 48.2 243.516 48.44C243.12 48.668 242.796 49.004 242.544 49.448C242.304 49.892 242.184 50.414 242.184 51.014C242.184 51.614 242.304 52.136 242.544 52.58C242.796 53.024 243.12 53.366 243.516 53.606C243.924 53.834 244.356 53.948 244.812 53.948C245.28 53.948 245.712 53.828 246.108 53.588C246.516 53.348 246.84 53.006 247.08 52.562C247.332 52.118 247.458 51.59 247.458 50.978ZM254.383 42.68V56H251.863V42.68H254.383ZM266.143 50.798C266.143 51.158 266.119 51.482 266.071 51.77H258.781C258.841 52.49 259.093 53.054 259.537 53.462C259.981 53.87 260.527 54.074 261.175 54.074C262.111 54.074 262.777 53.672 263.173 52.868H265.891C265.603 53.828 265.051 54.62 264.235 55.244C263.419 55.856 262.417 56.162 261.229 56.162C260.269 56.162 259.405 55.952 258.637 55.532C257.881 55.1 257.287 54.494 256.855 53.714C256.435 52.934 256.225 52.034 256.225 51.014C256.225 49.982 256.435 49.076 256.855 48.296C257.275 47.516 257.863 46.916 258.619 46.496C259.375 46.076 260.245 45.866 261.229 45.866C262.177 45.866 263.023 46.07 263.767 46.478C264.523 46.886 265.105 47.468 265.513 48.224C265.933 48.968 266.143 49.826 266.143 50.798ZM263.533 50.078C263.521 49.43 263.287 48.914 262.831 48.53C262.375 48.134 261.817 47.936 261.157 47.936C260.533 47.936 260.005 48.128 259.573 48.512C259.153 48.884 258.895 49.406 258.799 50.078H263.533ZM276.843 48.098H275.097V56H272.541V48.098H271.407V46.028H272.541V45.524C272.541 44.3 272.889 43.4 273.585 42.824C274.281 42.248 275.331 41.978 276.735 42.014V44.138C276.123 44.126 275.697 44.228 275.457 44.444C275.217 44.66 275.097 45.05 275.097 45.614V46.028H276.843V48.098ZM287.746 50.798C287.746 51.158 287.722 51.482 287.674 51.77H280.384C280.444 52.49 280.696 53.054 281.14 53.462C281.584 53.87 282.13 54.074 282.778 54.074C283.714 54.074 284.38 53.672 284.776 52.868H287.494C287.206 53.828 286.654 54.62 285.838 55.244C285.022 55.856 284.02 56.162 282.832 56.162C281.872 56.162 281.008 55.952 280.24 55.532C279.484 55.1 278.89 54.494 278.458 53.714C278.038 52.934 277.828 52.034 277.828 51.014C277.828 49.982 278.038 49.076 278.458 48.296C278.878 47.516 279.466 46.916 280.222 46.496C280.978 46.076 281.848 45.866 282.832 45.866C283.78 45.866 284.626 46.07 285.37 46.478C286.126 46.886 286.708 47.468 287.116 48.224C287.536 48.968 287.746 49.826 287.746 50.798ZM285.136 50.078C285.124 49.43 284.89 48.914 284.434 48.53C283.978 48.134 283.42 47.936 282.76 47.936C282.136 47.936 281.608 48.128 281.176 48.512C280.756 48.884 280.498 49.406 280.402 50.078H285.136ZM298.856 50.798C298.856 51.158 298.832 51.482 298.784 51.77H291.494C291.554 52.49 291.806 53.054 292.25 53.462C292.694 53.87 293.24 54.074 293.888 54.074C294.824 54.074 295.49 53.672 295.886 52.868H298.604C298.316 53.828 297.764 54.62 296.948 55.244C296.132 55.856 295.13 56.162 293.942 56.162C292.982 56.162 292.118 55.952 291.35 55.532C290.594 55.1 290 54.494 289.568 53.714C289.148 52.934 288.938 52.034 288.938 51.014C288.938 49.982 289.148 49.076 289.568 48.296C289.988 47.516 290.576 46.916 291.332 46.496C292.088 46.076 292.958 45.866 293.942 45.866C294.89 45.866 295.736 46.07 296.48 46.478C297.236 46.886 297.818 47.468 298.226 48.224C298.646 48.968 298.856 49.826 298.856 50.798ZM296.246 50.078C296.234 49.43 296 48.914 295.544 48.53C295.088 48.134 294.53 47.936 293.87 47.936C293.246 47.936 292.718 48.128 292.286 48.512C291.866 48.884 291.608 49.406 291.512 50.078H296.246ZM300.047 50.978C300.047 49.97 300.245 49.076 300.641 48.296C301.049 47.516 301.601 46.916 302.297 46.496C302.993 46.076 303.767 45.866 304.619 45.866C305.267 45.866 305.885 46.01 306.473 46.298C307.061 46.574 307.529 46.946 307.877 47.414V42.68H310.433V56H307.877V54.524C307.565 55.016 307.127 55.412 306.563 55.712C305.999 56.012 305.345 56.162 304.601 56.162C303.761 56.162 302.993 55.946 302.297 55.514C301.601 55.082 301.049 54.476 300.641 53.696C300.245 52.904 300.047 51.998 300.047 50.978ZM307.895 51.014C307.895 50.402 307.775 49.88 307.535 49.448C307.295 49.004 306.971 48.668 306.563 48.44C306.155 48.2 305.717 48.08 305.249 48.08C304.781 48.08 304.349 48.194 303.953 48.422C303.557 48.65 303.233 48.986 302.981 49.43C302.741 49.862 302.621 50.378 302.621 50.978C302.621 51.578 302.741 52.106 302.981 52.562C303.233 53.006 303.557 53.348 303.953 53.588C304.361 53.828 304.793 53.948 305.249 53.948C305.717 53.948 306.155 53.834 306.563 53.606C306.971 53.366 307.295 53.03 307.535 52.598C307.775 52.154 307.895 51.626 307.895 51.014ZM315.414 47.486C315.738 47.006 316.182 46.616 316.746 46.316C317.322 46.016 317.976 45.866 318.708 45.866C319.56 45.866 320.328 46.076 321.012 46.496C321.708 46.916 322.254 47.516 322.65 48.296C323.058 49.064 323.262 49.958 323.262 50.978C323.262 51.998 323.058 52.904 322.65 53.696C322.254 54.476 321.708 55.082 321.012 55.514C320.328 55.946 319.56 56.162 318.708 56.162C317.964 56.162 317.31 56.018 316.746 55.73C316.194 55.43 315.75 55.046 315.414 54.578V56H312.894V42.68H315.414V47.486ZM320.688 50.978C320.688 50.378 320.562 49.862 320.31 49.43C320.07 48.986 319.746 48.65 319.338 48.422C318.942 48.194 318.51 48.08 318.042 48.08C317.586 48.08 317.154 48.2 316.746 48.44C316.35 48.668 316.026 49.004 315.774 49.448C315.534 49.892 315.414 50.414 315.414 51.014C315.414 51.614 315.534 52.136 315.774 52.58C316.026 53.024 316.35 53.366 316.746 53.606C317.154 53.834 317.586 53.948 318.042 53.948C318.51 53.948 318.942 53.828 319.338 53.588C319.746 53.348 320.07 53.006 320.31 52.562C320.562 52.118 320.688 51.59 320.688 50.978ZM324.446 50.978C324.446 49.97 324.644 49.076 325.04 48.296C325.448 47.516 325.994 46.916 326.678 46.496C327.374 46.076 328.148 45.866 329 45.866C329.744 45.866 330.392 46.016 330.944 46.316C331.508 46.616 331.958 46.994 332.294 47.45V46.028H334.832V56H332.294V54.542C331.97 55.01 331.52 55.4 330.944 55.712C330.38 56.012 329.726 56.162 328.982 56.162C328.142 56.162 327.374 55.946 326.678 55.514C325.994 55.082 325.448 54.476 325.04 53.696C324.644 52.904 324.446 51.998 324.446 50.978ZM332.294 51.014C332.294 50.402 332.174 49.88 331.934 49.448C331.694 49.004 331.37 48.668 330.962 48.44C330.554 48.2 330.116 48.08 329.648 48.08C329.18 48.08 328.748 48.194 328.352 48.422C327.956 48.65 327.632 48.986 327.38 49.43C327.14 49.862 327.02 50.378 327.02 50.978C327.02 51.578 327.14 52.106 327.38 52.562C327.632 53.006 327.956 53.348 328.352 53.588C328.76 53.828 329.192 53.948 329.648 53.948C330.116 53.948 330.554 53.834 330.962 53.606C331.37 53.366 331.694 53.03 331.934 52.598C332.174 52.154 332.294 51.626 332.294 51.014ZM336.645 51.014C336.645 49.982 336.855 49.082 337.275 48.314C337.695 47.534 338.277 46.934 339.021 46.514C339.765 46.082 340.617 45.866 341.577 45.866C342.813 45.866 343.833 46.178 344.637 46.802C345.453 47.414 345.999 48.278 346.275 49.394H343.557C343.413 48.962 343.167 48.626 342.819 48.386C342.483 48.134 342.063 48.008 341.559 48.008C340.839 48.008 340.269 48.272 339.849 48.8C339.429 49.316 339.219 50.054 339.219 51.014C339.219 51.962 339.429 52.7 339.849 53.228C340.269 53.744 340.839 54.002 341.559 54.002C342.579 54.002 343.245 53.546 343.557 52.634H346.275C345.999 53.714 345.453 54.572 344.637 55.208C343.821 55.844 342.801 56.162 341.577 56.162C340.617 56.162 339.765 55.952 339.021 55.532C338.277 55.1 337.695 54.5 337.275 53.732C336.855 52.952 336.645 52.046 336.645 51.014ZM354.025 56L350.641 51.752V56H348.121V42.68H350.641V50.258L353.989 46.028H357.265L352.873 51.032L357.301 56H354.025ZM361.891 43.22L361.603 51.914H359.479L359.173 43.22H361.891ZM360.595 56.126C360.139 56.126 359.761 55.988 359.461 55.712C359.173 55.424 359.029 55.07 359.029 54.65C359.029 54.23 359.173 53.882 359.461 53.606C359.761 53.318 360.139 53.174 360.595 53.174C361.039 53.174 361.405 53.318 361.693 53.606C361.981 53.882 362.125 54.23 362.125 54.65C362.125 55.07 361.981 55.424 361.693 55.712C361.405 55.988 361.039 56.126 360.595 56.126Z" fill="#0F0F0F"/>
</g>
<defs>
<filter id="filter0_d_1_5131" x="0" y="0" width="400" height="119.168" filterUnits="userSpaceOnUse" color-interpolation-filters="sRGB">
<feFlood flood-opacity="0" result="BackgroundImageFix"/>
<feColorMatrix in="SourceAlpha" type="matrix" values="0 0 0 0 0 0 0 0 0 0 0 0 0 0 0 0 0 0 127 0" result="hardAlpha"/>
<feOffset dx="-2" dy="4"/>
<feGaussianBlur stdDeviation="15"/>
<feComposite in2="hardAlpha" operator="out"/>
<feColorMatrix type="matrix" values="0 0 0 0 0 0 0 0 0 0 0 0 0 0 0 0 0 0 0.2 0"/>
<feBlend mode="normal" in2="BackgroundImageFix" result="effect1_dropShadow_1_5131"/>
<feBlend mode="normal" in="SourceGraphic" in2="effect1_dropShadow_1_5131" result="shape"/>
</filter>
</defs>
</svg>
