<svg width="84" height="84" viewBox="0 0 84 84" fill="none" xmlns="http://www.w3.org/2000/svg">
<g filter="url(#filter0_d_1_4737)">
<rect x="11" y="11" width="60" height="60" rx="30" fill="white"/>
<path d="M49.7269 56.7216C50.2761 56.5772 50.4627 56.1301 50.519 54.7994C50.5437 54.303 50.5718 54.0073 50.6246 53.796C50.7197 53.4053 51.0154 52.8068 51.3182 52.4054C51.7406 51.8421 52.5715 51.0747 53.2192 50.6452L53.3706 50.5466V45.8925V41.2348L52.9798 41.0693C51.9378 40.6293 50.5824 40.2737 49.1636 40.0695C48.118 39.9181 47.4421 39.8794 45.8544 39.8759C44.3828 39.8724 44.3335 39.8759 44.0659 39.9533C43.0274 40.2526 42.267 40.9778 41.9677 41.9495C41.9255 42.0833 41.6896 43.3436 41.4432 44.7483C41.0172 47.1951 40.9996 47.3218 40.9996 47.7759C41.0031 48.1878 41.0172 48.2935 41.0982 48.5681C41.3728 49.4764 42.01 50.184 42.8655 50.5255C43.3618 50.7261 43.4745 50.7332 45.5903 50.7332H47.5195L47.3963 51.0782C47.1112 51.8773 46.9844 52.6554 46.9844 53.62C46.9844 54.3664 47.0232 54.6163 47.1992 55.0564C47.3541 55.4472 47.5231 55.7006 47.8399 56.014C48.1532 56.3273 48.4454 56.5104 48.8538 56.6512C49.0756 56.7286 49.5579 56.7674 49.7269 56.7216Z" fill="#0F0F0F"/>
<path d="M58.0923 51.2406C58.476 51.1244 58.814 50.7794 58.9337 50.3816C59.0041 50.1563 59.0041 50.0647 58.997 45.5937L58.9865 41.0346L58.8703 40.7987C58.7295 40.51 58.4513 40.246 58.1662 40.1298C57.969 40.0488 57.9409 40.0488 56.7509 40.0488C55.561 40.0488 55.5329 40.0488 55.3357 40.1298C55.0506 40.246 54.7724 40.51 54.6316 40.7987L54.5154 41.0346L54.5049 45.5937C54.4978 50.0647 54.4978 50.1563 54.5682 50.3816C54.6915 50.7899 55.0259 51.1244 55.4237 51.2441C55.6772 51.318 57.8493 51.318 58.0923 51.2406Z" fill="#0F0F0F"/>
<path d="M32.2731 25.2784C31.7239 25.4228 31.5373 25.8699 31.481 27.2006C31.4563 27.697 31.4282 27.9927 31.3754 28.204C31.2803 28.5947 30.9846 29.1932 30.6818 29.5946C30.2594 30.1579 29.4285 30.9253 28.7808 31.3548L28.6294 31.4534V36.1075V40.7652L29.0202 40.9307C30.0622 41.3707 31.4176 41.7263 32.8364 41.9305C33.882 42.0819 34.5579 42.1206 36.1456 42.1241C37.6172 42.1276 37.6665 42.1241 37.9341 42.0467C38.9726 41.7474 39.733 41.0222 40.0323 40.0505C40.0745 39.9167 40.3104 38.6564 40.5568 37.2517C40.9828 34.8049 41.0004 34.6782 41.0004 34.2241C40.9969 33.8122 40.9828 33.7065 40.9018 33.4319C40.6272 32.5236 39.99 31.816 39.1345 31.4745C38.6382 31.2739 38.5255 31.2668 36.4097 31.2668H34.4805L34.6037 30.9218C34.8888 30.1227 35.0156 29.3446 35.0156 28.38C35.0156 27.6336 34.9768 27.3837 34.8008 26.9436C34.6459 26.5528 34.4769 26.2994 34.1601 25.986C33.8468 25.6727 33.5546 25.4896 33.1462 25.3488C32.9244 25.2714 32.4421 25.2326 32.2731 25.2784Z" fill="#0F0F0F"/>
<path d="M23.9077 30.7594C23.524 30.8756 23.186 31.2206 23.0663 31.6184C22.9959 31.8437 22.9959 31.9353 23.003 36.4063L23.0135 40.9654L23.1297 41.2013C23.2705 41.49 23.5487 41.754 23.8338 41.8702C24.031 41.9512 24.0591 41.9512 25.2491 41.9512C26.439 41.9512 26.4671 41.9512 26.6643 41.8702C26.9494 41.754 27.2276 41.49 27.3684 41.2013L27.4846 40.9654L27.4951 36.4063C27.5022 31.9353 27.5022 31.8437 27.4318 31.6184C27.3085 31.2101 26.9741 30.8756 26.5763 30.7559C26.3228 30.682 24.1507 30.682 23.9077 30.7594Z" fill="#0F0F0F"/>
</g>
<defs>
<filter id="filter0_d_1_4737" x="0" y="0" width="84" height="84" filterUnits="userSpaceOnUse" color-interpolation-filters="sRGB">
<feFlood flood-opacity="0" result="BackgroundImageFix"/>
<feColorMatrix in="SourceAlpha" type="matrix" values="0 0 0 0 0 0 0 0 0 0 0 0 0 0 0 0 0 0 127 0" result="hardAlpha"/>
<feOffset dx="1" dy="1"/>
<feGaussianBlur stdDeviation="6"/>
<feComposite in2="hardAlpha" operator="out"/>
<feColorMatrix type="matrix" values="0 0 0 0 1 0 0 0 0 1 0 0 0 0 1 0 0 0 0.24 0"/>
<feBlend mode="normal" in2="BackgroundImageFix" result="effect1_dropShadow_1_4737"/>
<feBlend mode="normal" in="SourceGraphic" in2="effect1_dropShadow_1_4737" result="shape"/>
</filter>
</defs>
</svg>
