<svg width="84" height="84" viewBox="0 0 84 84" fill="none" xmlns="http://www.w3.org/2000/svg">
<g filter="url(#filter0_d_1_4805)">
<rect x="11" y="11" width="60" height="60" rx="30" fill="white"/>
<path d="M30.4536 42.002V54.002H32.1567H32.8599V49.6285V45.2504L33.2208 45.0723C35.4661 43.9801 38.0021 43.8676 40.2661 44.7676C40.5286 44.8707 41.1896 45.1848 41.7333 45.466C42.2817 45.7473 42.938 46.0613 43.2005 46.1645C45.4411 47.0551 47.8036 47.1254 50.0864 46.3707C50.5083 46.2301 51.0614 45.9957 51.6333 45.7051L52.5239 45.2598L52.538 38.0785L52.5474 30.8973L51.9755 31.2301C50.0208 32.3504 48.6567 32.7676 46.9224 32.7676C46.1255 32.7676 45.4646 32.6832 44.7239 32.4816C43.9599 32.2801 43.4864 32.0832 42.1646 31.4082C40.9317 30.7848 40.3692 30.5598 39.4505 30.3301C38.0255 29.9691 36.3942 29.9504 34.9364 30.2785C34.3974 30.4004 33.713 30.616 33.2302 30.8223L32.8599 30.977V30.4895V30.002H32.1567H30.4536V42.002Z" fill="#0F0F0F"/>
</g>
<defs>
<filter id="filter0_d_1_4805" x="0" y="0" width="84" height="84" filterUnits="userSpaceOnUse" color-interpolation-filters="sRGB">
<feFlood flood-opacity="0" result="BackgroundImageFix"/>
<feColorMatrix in="SourceAlpha" type="matrix" values="0 0 0 0 0 0 0 0 0 0 0 0 0 0 0 0 0 0 127 0" result="hardAlpha"/>
<feOffset dx="1" dy="1"/>
<feGaussianBlur stdDeviation="6"/>
<feComposite in2="hardAlpha" operator="out"/>
<feColorMatrix type="matrix" values="0 0 0 0 1 0 0 0 0 1 0 0 0 0 1 0 0 0 0.24 0"/>
<feBlend mode="normal" in2="BackgroundImageFix" result="effect1_dropShadow_1_4805"/>
<feBlend mode="normal" in="SourceGraphic" in2="effect1_dropShadow_1_4805" result="shape"/>
</filter>
</defs>
</svg>
