<svg width="460" height="47" viewBox="0 0 460 47" fill="none" xmlns="http://www.w3.org/2000/svg">
<path d="M33.124 2.436V4.47H29.776V15H27.256V4.47H23.908V2.436H33.124ZM40.5787 4.884C41.3347 4.884 42.0067 5.052 42.5947 5.388C43.1827 5.712 43.6387 6.198 43.9627 6.846C44.2987 7.482 44.4667 8.25 44.4667 9.15V15H41.9467V9.492C41.9467 8.7 41.7487 8.094 41.3527 7.674C40.9567 7.242 40.4167 7.026 39.7327 7.026C39.0367 7.026 38.4847 7.242 38.0767 7.674C37.6807 8.094 37.4827 8.7 37.4827 9.492V15H34.9627V1.68H37.4827V6.27C37.8067 5.838 38.2387 5.502 38.7787 5.262C39.3187 5.01 39.9187 4.884 40.5787 4.884ZM46.2151 9.978C46.2151 8.97 46.4131 8.076 46.8091 7.296C47.2171 6.516 47.7631 5.916 48.4471 5.496C49.1431 5.076 49.9171 4.866 50.7691 4.866C51.5131 4.866 52.1611 5.016 52.7131 5.316C53.2771 5.616 53.7271 5.994 54.0631 6.45V5.028H56.6011V15H54.0631V13.542C53.7391 14.01 53.2891 14.4 52.7131 14.712C52.1491 15.012 51.4951 15.162 50.7511 15.162C49.9111 15.162 49.1431 14.946 48.4471 14.514C47.7631 14.082 47.2171 13.476 46.8091 12.696C46.4131 11.904 46.2151 10.998 46.2151 9.978ZM54.0631 10.014C54.0631 9.402 53.9431 8.88 53.7031 8.448C53.4631 8.004 53.1391 7.668 52.7311 7.44C52.3231 7.2 51.8851 7.08 51.4171 7.08C50.9491 7.08 50.5171 7.194 50.1211 7.422C49.7251 7.65 49.4011 7.986 49.1491 8.43C48.9091 8.862 48.7891 9.378 48.7891 9.978C48.7891 10.578 48.9091 11.106 49.1491 11.562C49.4011 12.006 49.7251 12.348 50.1211 12.588C50.5291 12.828 50.9611 12.948 51.4171 12.948C51.8851 12.948 52.3231 12.834 52.7311 12.606C53.1391 12.366 53.4631 12.03 53.7031 11.598C53.9431 11.154 54.0631 10.626 54.0631 10.014ZM64.5883 4.884C65.7763 4.884 66.7363 5.262 67.4683 6.018C68.2003 6.762 68.5663 7.806 68.5663 9.15V15H66.0463V9.492C66.0463 8.7 65.8483 8.094 65.4523 7.674C65.0563 7.242 64.5163 7.026 63.8323 7.026C63.1363 7.026 62.5843 7.242 62.1763 7.674C61.7803 8.094 61.5823 8.7 61.5823 9.492V15H59.0623V5.028H61.5823V6.27C61.9183 5.838 62.3443 5.502 62.8603 5.262C63.3883 5.01 63.9643 4.884 64.5883 4.884ZM76.8667 15L73.4827 10.752V15H70.9627V1.68H73.4827V9.258L76.8307 5.028H80.1067L75.7147 10.032L80.1427 15H76.8667ZM85.2904 15.162C84.4744 15.162 83.7424 15.018 83.0944 14.73C82.4464 14.43 81.9304 14.028 81.5464 13.524C81.1744 13.02 80.9704 12.462 80.9344 11.85H83.4724C83.5204 12.234 83.7064 12.552 84.0304 12.804C84.3664 13.056 84.7804 13.182 85.2724 13.182C85.7524 13.182 86.1244 13.086 86.3884 12.894C86.6644 12.702 86.8024 12.456 86.8024 12.156C86.8024 11.832 86.6344 11.592 86.2984 11.436C85.9744 11.268 85.4524 11.088 84.7324 10.896C83.9884 10.716 83.3764 10.53 82.8964 10.338C82.4284 10.146 82.0204 9.852 81.6724 9.456C81.3364 9.06 81.1684 8.526 81.1684 7.854C81.1684 7.302 81.3244 6.798 81.6364 6.342C81.9604 5.886 82.4164 5.526 83.0044 5.262C83.6044 4.998 84.3064 4.866 85.1104 4.866C86.2984 4.866 87.2464 5.166 87.9544 5.766C88.6624 6.354 89.0524 7.152 89.1244 8.16H86.7124C86.6764 7.764 86.5084 7.452 86.2084 7.224C85.9204 6.984 85.5304 6.864 85.0384 6.864C84.5824 6.864 84.2284 6.948 83.9764 7.116C83.7364 7.284 83.6164 7.518 83.6164 7.818C83.6164 8.154 83.7844 8.412 84.1204 8.592C84.4564 8.76 84.9784 8.934 85.6864 9.114C86.4064 9.294 87.0004 9.48 87.4684 9.672C87.9364 9.864 88.3384 10.164 88.6744 10.572C89.0224 10.968 89.2024 11.496 89.2144 12.156C89.2144 12.732 89.0524 13.248 88.7284 13.704C88.4164 14.16 87.9604 14.52 87.3604 14.784C86.7724 15.036 86.0824 15.162 85.2904 15.162ZM100.144 7.098H98.3981V15H95.8421V7.098H94.7081V5.028H95.8421V4.524C95.8421 3.3 96.1901 2.4 96.8861 1.824C97.5821 1.248 98.6321 0.978 100.036 1.014V3.138C99.4241 3.126 98.9981 3.228 98.7581 3.444C98.5181 3.66 98.3981 4.05 98.3981 4.614V5.028H100.144V7.098ZM106.205 15.162C105.245 15.162 104.381 14.952 103.613 14.532C102.845 14.1 102.239 13.494 101.795 12.714C101.363 11.934 101.147 11.034 101.147 10.014C101.147 8.994 101.369 8.094 101.813 7.314C102.269 6.534 102.887 5.934 103.667 5.514C104.447 5.082 105.317 4.866 106.277 4.866C107.237 4.866 108.107 5.082 108.887 5.514C109.667 5.934 110.279 6.534 110.723 7.314C111.179 8.094 111.407 8.994 111.407 10.014C111.407 11.034 111.173 11.934 110.705 12.714C110.249 13.494 109.625 14.1 108.833 14.532C108.053 14.952 107.177 15.162 106.205 15.162ZM106.205 12.966C106.661 12.966 107.087 12.858 107.483 12.642C107.891 12.414 108.215 12.078 108.455 11.634C108.695 11.19 108.815 10.65 108.815 10.014C108.815 9.066 108.563 8.34 108.059 7.836C107.567 7.32 106.961 7.062 106.241 7.062C105.521 7.062 104.915 7.32 104.423 7.836C103.943 8.34 103.703 9.066 103.703 10.014C103.703 10.962 103.937 11.694 104.405 12.21C104.885 12.714 105.485 12.966 106.205 12.966ZM115.776 6.576C116.1 6.048 116.52 5.634 117.036 5.334C117.564 5.034 118.164 4.884 118.836 4.884V7.53H118.17C117.378 7.53 116.778 7.716 116.37 8.088C115.974 8.46 115.776 9.108 115.776 10.032V15H113.256V5.028H115.776V6.576ZM127.342 6.486C127.666 6.006 128.11 5.616 128.674 5.316C129.25 5.016 129.904 4.866 130.636 4.866C131.488 4.866 132.256 5.076 132.94 5.496C133.636 5.916 134.182 6.516 134.578 7.296C134.986 8.064 135.19 8.958 135.19 9.978C135.19 10.998 134.986 11.904 134.578 12.696C134.182 13.476 133.636 14.082 132.94 14.514C132.256 14.946 131.488 15.162 130.636 15.162C129.892 15.162 129.238 15.018 128.674 14.73C128.122 14.43 127.678 14.046 127.342 13.578V15H124.822V1.68H127.342V6.486ZM132.616 9.978C132.616 9.378 132.49 8.862 132.238 8.43C131.998 7.986 131.674 7.65 131.266 7.422C130.87 7.194 130.438 7.08 129.97 7.08C129.514 7.08 129.082 7.2 128.674 7.44C128.278 7.668 127.954 8.004 127.702 8.448C127.462 8.892 127.342 9.414 127.342 10.014C127.342 10.614 127.462 11.136 127.702 11.58C127.954 12.024 128.278 12.366 128.674 12.606C129.082 12.834 129.514 12.948 129.97 12.948C130.438 12.948 130.87 12.828 131.266 12.588C131.674 12.348 131.998 12.006 132.238 11.562C132.49 11.118 132.616 10.59 132.616 9.978ZM139.541 6.576C139.865 6.048 140.285 5.634 140.801 5.334C141.329 5.034 141.929 4.884 142.601 4.884V7.53H141.935C141.143 7.53 140.543 7.716 140.135 8.088C139.739 8.46 139.541 9.108 139.541 10.032V15H137.021V5.028H139.541V6.576ZM145.577 3.84C145.133 3.84 144.761 3.702 144.461 3.426C144.173 3.138 144.029 2.784 144.029 2.364C144.029 1.944 144.173 1.596 144.461 1.32C144.761 1.032 145.133 0.887999 145.577 0.887999C146.021 0.887999 146.387 1.032 146.675 1.32C146.975 1.596 147.125 1.944 147.125 2.364C147.125 2.784 146.975 3.138 146.675 3.426C146.387 3.702 146.021 3.84 145.577 3.84ZM146.819 5.028V15H144.299V5.028H146.819ZM154.834 4.884C156.022 4.884 156.982 5.262 157.714 6.018C158.446 6.762 158.812 7.806 158.812 9.15V15H156.292V9.492C156.292 8.7 156.094 8.094 155.698 7.674C155.302 7.242 154.762 7.026 154.078 7.026C153.382 7.026 152.83 7.242 152.422 7.674C152.026 8.094 151.828 8.7 151.828 9.492V15H149.308V5.028H151.828V6.27C152.164 5.838 152.59 5.502 153.106 5.262C153.634 5.01 154.21 4.884 154.834 4.884ZM165.115 4.866C165.859 4.866 166.513 5.016 167.077 5.316C167.641 5.604 168.085 5.982 168.409 6.45V5.028H170.947V15.072C170.947 15.996 170.761 16.818 170.389 17.538C170.017 18.27 169.459 18.846 168.715 19.266C167.971 19.698 167.071 19.914 166.015 19.914C164.599 19.914 163.435 19.584 162.523 18.924C161.623 18.264 161.113 17.364 160.993 16.224H163.495C163.627 16.68 163.909 17.04 164.341 17.304C164.785 17.58 165.319 17.718 165.943 17.718C166.675 17.718 167.269 17.496 167.725 17.052C168.181 16.62 168.409 15.96 168.409 15.072V13.524C168.085 13.992 167.635 14.382 167.059 14.694C166.495 15.006 165.847 15.162 165.115 15.162C164.275 15.162 163.507 14.946 162.811 14.514C162.115 14.082 161.563 13.476 161.155 12.696C160.759 11.904 160.561 10.998 160.561 9.978C160.561 8.97 160.759 8.076 161.155 7.296C161.563 6.516 162.109 5.916 162.793 5.496C163.489 5.076 164.263 4.866 165.115 4.866ZM168.409 10.014C168.409 9.402 168.289 8.88 168.049 8.448C167.809 8.004 167.485 7.668 167.077 7.44C166.669 7.2 166.231 7.08 165.763 7.08C165.295 7.08 164.863 7.194 164.467 7.422C164.071 7.65 163.747 7.986 163.495 8.43C163.255 8.862 163.135 9.378 163.135 9.978C163.135 10.578 163.255 11.106 163.495 11.562C163.747 12.006 164.071 12.348 164.467 12.588C164.875 12.828 165.307 12.948 165.763 12.948C166.231 12.948 166.669 12.834 167.077 12.606C167.485 12.366 167.809 12.03 168.049 11.598C168.289 11.154 168.409 10.626 168.409 10.014ZM174.686 3.84C174.242 3.84 173.87 3.702 173.57 3.426C173.282 3.138 173.138 2.784 173.138 2.364C173.138 1.944 173.282 1.596 173.57 1.32C173.87 1.032 174.242 0.887999 174.686 0.887999C175.13 0.887999 175.496 1.032 175.784 1.32C176.084 1.596 176.234 1.944 176.234 2.364C176.234 2.784 176.084 3.138 175.784 3.426C175.496 3.702 175.13 3.84 174.686 3.84ZM175.928 5.028V15H173.408V5.028H175.928ZM183.944 4.884C185.132 4.884 186.092 5.262 186.824 6.018C187.556 6.762 187.922 7.806 187.922 9.15V15H185.402V9.492C185.402 8.7 185.204 8.094 184.808 7.674C184.412 7.242 183.872 7.026 183.188 7.026C182.492 7.026 181.94 7.242 181.532 7.674C181.136 8.094 180.938 8.7 180.938 9.492V15H178.418V5.028H180.938V6.27C181.274 5.838 181.7 5.502 182.216 5.262C182.744 5.01 183.32 4.884 183.944 4.884ZM194.224 4.866C194.968 4.866 195.622 5.016 196.186 5.316C196.75 5.604 197.194 5.982 197.518 6.45V5.028H200.056V15.072C200.056 15.996 199.87 16.818 199.498 17.538C199.126 18.27 198.568 18.846 197.824 19.266C197.08 19.698 196.18 19.914 195.124 19.914C193.708 19.914 192.544 19.584 191.632 18.924C190.732 18.264 190.222 17.364 190.102 16.224H192.604C192.736 16.68 193.018 17.04 193.45 17.304C193.894 17.58 194.428 17.718 195.052 17.718C195.784 17.718 196.378 17.496 196.834 17.052C197.29 16.62 197.518 15.96 197.518 15.072V13.524C197.194 13.992 196.744 14.382 196.168 14.694C195.604 15.006 194.956 15.162 194.224 15.162C193.384 15.162 192.616 14.946 191.92 14.514C191.224 14.082 190.672 13.476 190.264 12.696C189.868 11.904 189.67 10.998 189.67 9.978C189.67 8.97 189.868 8.076 190.264 7.296C190.672 6.516 191.218 5.916 191.902 5.496C192.598 5.076 193.372 4.866 194.224 4.866ZM197.518 10.014C197.518 9.402 197.398 8.88 197.158 8.448C196.918 8.004 196.594 7.668 196.186 7.44C195.778 7.2 195.34 7.08 194.872 7.08C194.404 7.08 193.972 7.194 193.576 7.422C193.18 7.65 192.856 7.986 192.604 8.43C192.364 8.862 192.244 9.378 192.244 9.978C192.244 10.578 192.364 11.106 192.604 11.562C192.856 12.006 193.18 12.348 193.576 12.588C193.984 12.828 194.416 12.948 194.872 12.948C195.34 12.948 195.778 12.834 196.186 12.606C196.594 12.366 196.918 12.03 197.158 11.598C197.398 11.154 197.518 10.626 197.518 10.014ZM209.74 7.098V11.922C209.74 12.258 209.818 12.504 209.974 12.66C210.142 12.804 210.418 12.876 210.802 12.876H211.972V15H210.388C208.264 15 207.202 13.968 207.202 11.904V7.098H206.014V5.028H207.202V2.562H209.74V5.028H211.972V7.098H209.74ZM219.401 4.884C220.157 4.884 220.829 5.052 221.417 5.388C222.005 5.712 222.461 6.198 222.785 6.846C223.121 7.482 223.289 8.25 223.289 9.15V15H220.769V9.492C220.769 8.7 220.571 8.094 220.175 7.674C219.779 7.242 219.239 7.026 218.555 7.026C217.859 7.026 217.307 7.242 216.899 7.674C216.503 8.094 216.305 8.7 216.305 9.492V15H213.785V1.68H216.305V6.27C216.629 5.838 217.061 5.502 217.601 5.262C218.141 5.01 218.741 4.884 219.401 4.884ZM234.955 9.798C234.955 10.158 234.931 10.482 234.883 10.77H227.593C227.653 11.49 227.905 12.054 228.349 12.462C228.793 12.87 229.339 13.074 229.987 13.074C230.923 13.074 231.589 12.672 231.985 11.868H234.703C234.415 12.828 233.863 13.62 233.047 14.244C232.231 14.856 231.229 15.162 230.041 15.162C229.081 15.162 228.217 14.952 227.449 14.532C226.693 14.1 226.099 13.494 225.667 12.714C225.247 11.934 225.037 11.034 225.037 10.014C225.037 8.982 225.247 8.076 225.667 7.296C226.087 6.516 226.675 5.916 227.431 5.496C228.187 5.076 229.057 4.866 230.041 4.866C230.989 4.866 231.835 5.07 232.579 5.478C233.335 5.886 233.917 6.468 234.325 7.224C234.745 7.968 234.955 8.826 234.955 9.798ZM232.345 9.078C232.333 8.43 232.099 7.914 231.643 7.53C231.187 7.134 230.629 6.936 229.969 6.936C229.345 6.936 228.817 7.128 228.385 7.512C227.965 7.884 227.707 8.406 227.611 9.078H232.345ZM242.362 3.84C241.918 3.84 241.546 3.702 241.246 3.426C240.958 3.138 240.814 2.784 240.814 2.364C240.814 1.944 240.958 1.596 241.246 1.32C241.546 1.032 241.918 0.887999 242.362 0.887999C242.806 0.887999 243.172 1.032 243.46 1.32C243.76 1.596 243.91 1.944 243.91 2.364C243.91 2.784 243.76 3.138 243.46 3.426C243.172 3.702 242.806 3.84 242.362 3.84ZM243.604 5.028V15H241.084V5.028H243.604ZM249.91 15.162C249.094 15.162 248.362 15.018 247.714 14.73C247.066 14.43 246.55 14.028 246.166 13.524C245.794 13.02 245.59 12.462 245.554 11.85H248.092C248.14 12.234 248.326 12.552 248.65 12.804C248.986 13.056 249.4 13.182 249.892 13.182C250.372 13.182 250.744 13.086 251.008 12.894C251.284 12.702 251.422 12.456 251.422 12.156C251.422 11.832 251.254 11.592 250.918 11.436C250.594 11.268 250.072 11.088 249.352 10.896C248.608 10.716 247.996 10.53 247.516 10.338C247.048 10.146 246.64 9.852 246.292 9.456C245.956 9.06 245.788 8.526 245.788 7.854C245.788 7.302 245.944 6.798 246.256 6.342C246.58 5.886 247.036 5.526 247.624 5.262C248.224 4.998 248.926 4.866 249.73 4.866C250.918 4.866 251.866 5.166 252.574 5.766C253.282 6.354 253.672 7.152 253.744 8.16H251.332C251.296 7.764 251.128 7.452 250.828 7.224C250.54 6.984 250.15 6.864 249.658 6.864C249.202 6.864 248.848 6.948 248.596 7.116C248.356 7.284 248.236 7.518 248.236 7.818C248.236 8.154 248.404 8.412 248.74 8.592C249.076 8.76 249.598 8.934 250.306 9.114C251.026 9.294 251.62 9.48 252.088 9.672C252.556 9.864 252.958 10.164 253.294 10.572C253.642 10.968 253.822 11.496 253.834 12.156C253.834 12.732 253.672 13.248 253.348 13.704C253.036 14.16 252.58 14.52 251.98 14.784C251.392 15.036 250.702 15.162 249.91 15.162ZM259.718 15.162C258.902 15.162 258.17 15.018 257.522 14.73C256.874 14.43 256.358 14.028 255.974 13.524C255.602 13.02 255.398 12.462 255.362 11.85H257.9C257.948 12.234 258.134 12.552 258.458 12.804C258.794 13.056 259.208 13.182 259.7 13.182C260.18 13.182 260.552 13.086 260.816 12.894C261.092 12.702 261.23 12.456 261.23 12.156C261.23 11.832 261.062 11.592 260.726 11.436C260.402 11.268 259.88 11.088 259.16 10.896C258.416 10.716 257.804 10.53 257.324 10.338C256.856 10.146 256.448 9.852 256.1 9.456C255.764 9.06 255.596 8.526 255.596 7.854C255.596 7.302 255.752 6.798 256.064 6.342C256.388 5.886 256.844 5.526 257.432 5.262C258.032 4.998 258.734 4.866 259.538 4.866C260.726 4.866 261.674 5.166 262.382 5.766C263.09 6.354 263.48 7.152 263.552 8.16H261.14C261.104 7.764 260.936 7.452 260.636 7.224C260.348 6.984 259.958 6.864 259.466 6.864C259.01 6.864 258.656 6.948 258.404 7.116C258.164 7.284 258.044 7.518 258.044 7.818C258.044 8.154 258.212 8.412 258.548 8.592C258.884 8.76 259.406 8.934 260.114 9.114C260.834 9.294 261.428 9.48 261.896 9.672C262.364 9.864 262.766 10.164 263.102 10.572C263.45 10.968 263.63 11.496 263.642 12.156C263.642 12.732 263.48 13.248 263.156 13.704C262.844 14.16 262.388 14.52 261.788 14.784C261.2 15.036 260.51 15.162 259.718 15.162ZM275.125 5.028V15H272.587V13.74C272.263 14.172 271.837 14.514 271.309 14.766C270.793 15.006 270.229 15.126 269.617 15.126C268.837 15.126 268.147 14.964 267.547 14.64C266.947 14.304 266.473 13.818 266.125 13.182C265.789 12.534 265.621 11.766 265.621 10.878V5.028H268.141V10.518C268.141 11.31 268.339 11.922 268.735 12.354C269.131 12.774 269.671 12.984 270.355 12.984C271.051 12.984 271.597 12.774 271.993 12.354C272.389 11.922 272.587 11.31 272.587 10.518V5.028H275.125ZM286.881 9.798C286.881 10.158 286.857 10.482 286.809 10.77H279.519C279.579 11.49 279.831 12.054 280.275 12.462C280.719 12.87 281.265 13.074 281.913 13.074C282.849 13.074 283.515 12.672 283.911 11.868H286.629C286.341 12.828 285.789 13.62 284.973 14.244C284.157 14.856 283.155 15.162 281.967 15.162C281.007 15.162 280.143 14.952 279.375 14.532C278.619 14.1 278.025 13.494 277.593 12.714C277.173 11.934 276.963 11.034 276.963 10.014C276.963 8.982 277.173 8.076 277.593 7.296C278.013 6.516 278.601 5.916 279.357 5.496C280.113 5.076 280.983 4.866 281.967 4.866C282.915 4.866 283.761 5.07 284.505 5.478C285.261 5.886 285.843 6.468 286.251 7.224C286.671 7.968 286.881 8.826 286.881 9.798ZM284.271 9.078C284.259 8.43 284.025 7.914 283.569 7.53C283.113 7.134 282.555 6.936 281.895 6.936C281.271 6.936 280.743 7.128 280.311 7.512C279.891 7.884 279.633 8.406 279.537 9.078H284.271ZM295.944 7.098V11.922C295.944 12.258 296.022 12.504 296.178 12.66C296.346 12.804 296.622 12.876 297.006 12.876H298.176V15H296.592C294.468 15 293.406 13.968 293.406 11.904V7.098H292.218V5.028H293.406V2.562H295.944V5.028H298.176V7.098H295.944ZM304.416 15.162C303.456 15.162 302.592 14.952 301.824 14.532C301.056 14.1 300.45 13.494 300.006 12.714C299.574 11.934 299.358 11.034 299.358 10.014C299.358 8.994 299.58 8.094 300.024 7.314C300.48 6.534 301.098 5.934 301.878 5.514C302.658 5.082 303.528 4.866 304.488 4.866C305.448 4.866 306.318 5.082 307.098 5.514C307.878 5.934 308.49 6.534 308.934 7.314C309.39 8.094 309.618 8.994 309.618 10.014C309.618 11.034 309.384 11.934 308.916 12.714C308.46 13.494 307.836 14.1 307.044 14.532C306.264 14.952 305.388 15.162 304.416 15.162ZM304.416 12.966C304.872 12.966 305.298 12.858 305.694 12.642C306.102 12.414 306.426 12.078 306.666 11.634C306.906 11.19 307.026 10.65 307.026 10.014C307.026 9.066 306.774 8.34 306.27 7.836C305.778 7.32 305.172 7.062 304.452 7.062C303.732 7.062 303.126 7.32 302.634 7.836C302.154 8.34 301.914 9.066 301.914 10.014C301.914 10.962 302.148 11.694 302.616 12.21C303.096 12.714 303.696 12.966 304.416 12.966ZM320.184 15.162C319.224 15.162 318.36 14.952 317.592 14.532C316.824 14.1 316.218 13.494 315.774 12.714C315.342 11.934 315.126 11.034 315.126 10.014C315.126 8.994 315.348 8.094 315.792 7.314C316.248 6.534 316.866 5.934 317.646 5.514C318.426 5.082 319.296 4.866 320.256 4.866C321.216 4.866 322.086 5.082 322.866 5.514C323.646 5.934 324.258 6.534 324.702 7.314C325.158 8.094 325.386 8.994 325.386 10.014C325.386 11.034 325.152 11.934 324.684 12.714C324.228 13.494 323.604 14.1 322.812 14.532C322.032 14.952 321.156 15.162 320.184 15.162ZM320.184 12.966C320.64 12.966 321.066 12.858 321.462 12.642C321.87 12.414 322.194 12.078 322.434 11.634C322.674 11.19 322.794 10.65 322.794 10.014C322.794 9.066 322.542 8.34 322.038 7.836C321.546 7.32 320.94 7.062 320.22 7.062C319.5 7.062 318.894 7.32 318.402 7.836C317.922 8.34 317.682 9.066 317.682 10.014C317.682 10.962 317.916 11.694 318.384 12.21C318.864 12.714 319.464 12.966 320.184 12.966ZM336.648 5.028V15H334.11V13.74C333.786 14.172 333.36 14.514 332.832 14.766C332.316 15.006 331.752 15.126 331.14 15.126C330.36 15.126 329.67 14.964 329.07 14.64C328.47 14.304 327.996 13.818 327.648 13.182C327.312 12.534 327.144 11.766 327.144 10.878V5.028H329.664V10.518C329.664 11.31 329.862 11.922 330.258 12.354C330.654 12.774 331.194 12.984 331.878 12.984C332.574 12.984 333.12 12.774 333.516 12.354C333.912 11.922 334.11 11.31 334.11 10.518V5.028H336.648ZM341.655 6.576C341.979 6.048 342.399 5.634 342.915 5.334C343.443 5.034 344.043 4.884 344.715 4.884V7.53H344.049C343.257 7.53 342.657 7.716 342.249 8.088C341.853 8.46 341.655 9.108 341.655 10.032V15H339.135V5.028H341.655V6.576ZM350.053 9.978C350.053 8.97 350.251 8.076 350.647 7.296C351.055 6.516 351.601 5.916 352.285 5.496C352.981 5.076 353.755 4.866 354.607 4.866C355.351 4.866 355.999 5.016 356.551 5.316C357.115 5.616 357.565 5.994 357.901 6.45V5.028H360.439V15H357.901V13.542C357.577 14.01 357.127 14.4 356.551 14.712C355.987 15.012 355.333 15.162 354.589 15.162C353.749 15.162 352.981 14.946 352.285 14.514C351.601 14.082 351.055 13.476 350.647 12.696C350.251 11.904 350.053 10.998 350.053 9.978ZM357.901 10.014C357.901 9.402 357.781 8.88 357.541 8.448C357.301 8.004 356.977 7.668 356.569 7.44C356.161 7.2 355.723 7.08 355.255 7.08C354.787 7.08 354.355 7.194 353.959 7.422C353.563 7.65 353.239 7.986 352.987 8.43C352.747 8.862 352.627 9.378 352.627 9.978C352.627 10.578 352.747 11.106 352.987 11.562C353.239 12.006 353.563 12.348 353.959 12.588C354.367 12.828 354.799 12.948 355.255 12.948C355.723 12.948 356.161 12.834 356.569 12.606C356.977 12.366 357.301 12.03 357.541 11.598C357.781 11.154 357.901 10.626 357.901 10.014ZM365.834 7.098V11.922C365.834 12.258 365.912 12.504 366.068 12.66C366.236 12.804 366.512 12.876 366.896 12.876H368.066V15H366.482C364.358 15 363.296 13.968 363.296 11.904V7.098H362.108V5.028H363.296V2.562H365.834V5.028H368.066V7.098H365.834ZM372.813 7.098V11.922C372.813 12.258 372.891 12.504 373.047 12.66C373.215 12.804 373.491 12.876 373.875 12.876H375.045V15H373.461C371.337 15 370.275 13.968 370.275 11.904V7.098H369.087V5.028H370.275V2.562H372.813V5.028H375.045V7.098H372.813ZM386.127 9.798C386.127 10.158 386.103 10.482 386.055 10.77H378.765C378.825 11.49 379.077 12.054 379.521 12.462C379.965 12.87 380.511 13.074 381.159 13.074C382.095 13.074 382.761 12.672 383.157 11.868H385.875C385.587 12.828 385.035 13.62 384.219 14.244C383.403 14.856 382.401 15.162 381.213 15.162C380.253 15.162 379.389 14.952 378.621 14.532C377.865 14.1 377.271 13.494 376.839 12.714C376.419 11.934 376.209 11.034 376.209 10.014C376.209 8.982 376.419 8.076 376.839 7.296C377.259 6.516 377.847 5.916 378.603 5.496C379.359 5.076 380.229 4.866 381.213 4.866C382.161 4.866 383.007 5.07 383.751 5.478C384.507 5.886 385.089 6.468 385.497 7.224C385.917 7.968 386.127 8.826 386.127 9.798ZM383.517 9.078C383.505 8.43 383.271 7.914 382.815 7.53C382.359 7.134 381.801 6.936 381.141 6.936C380.517 6.936 379.989 7.128 379.557 7.512C379.137 7.884 378.879 8.406 378.783 9.078H383.517ZM393.493 4.884C394.681 4.884 395.641 5.262 396.373 6.018C397.105 6.762 397.471 7.806 397.471 9.15V15H394.951V9.492C394.951 8.7 394.753 8.094 394.357 7.674C393.961 7.242 393.421 7.026 392.737 7.026C392.041 7.026 391.489 7.242 391.081 7.674C390.685 8.094 390.487 8.7 390.487 9.492V15H387.967V5.028H390.487V6.27C390.823 5.838 391.249 5.502 391.765 5.262C392.293 5.01 392.869 4.884 393.493 4.884ZM402.801 7.098V11.922C402.801 12.258 402.879 12.504 403.035 12.66C403.203 12.804 403.479 12.876 403.863 12.876H405.033V15H403.449C401.325 15 400.263 13.968 400.263 11.904V7.098H399.075V5.028H400.263V2.562H402.801V5.028H405.033V7.098H402.801ZM408.124 3.84C407.68 3.84 407.308 3.702 407.008 3.426C406.72 3.138 406.576 2.784 406.576 2.364C406.576 1.944 406.72 1.596 407.008 1.32C407.308 1.032 407.68 0.887999 408.124 0.887999C408.568 0.887999 408.934 1.032 409.222 1.32C409.522 1.596 409.672 1.944 409.672 2.364C409.672 2.784 409.522 3.138 409.222 3.426C408.934 3.702 408.568 3.84 408.124 3.84ZM409.366 5.028V15H406.846V5.028H409.366ZM416.283 15.162C415.323 15.162 414.459 14.952 413.691 14.532C412.923 14.1 412.317 13.494 411.873 12.714C411.441 11.934 411.225 11.034 411.225 10.014C411.225 8.994 411.447 8.094 411.891 7.314C412.347 6.534 412.965 5.934 413.745 5.514C414.525 5.082 415.395 4.866 416.355 4.866C417.315 4.866 418.185 5.082 418.965 5.514C419.745 5.934 420.357 6.534 420.801 7.314C421.257 8.094 421.485 8.994 421.485 10.014C421.485 11.034 421.251 11.934 420.783 12.714C420.327 13.494 419.703 14.1 418.911 14.532C418.131 14.952 417.255 15.162 416.283 15.162ZM416.283 12.966C416.739 12.966 417.165 12.858 417.561 12.642C417.969 12.414 418.293 12.078 418.533 11.634C418.773 11.19 418.893 10.65 418.893 10.014C418.893 9.066 418.641 8.34 418.137 7.836C417.645 7.32 417.039 7.062 416.319 7.062C415.599 7.062 414.993 7.32 414.501 7.836C414.021 8.34 413.781 9.066 413.781 10.014C413.781 10.962 414.015 11.694 414.483 12.21C414.963 12.714 415.563 12.966 416.283 12.966ZM428.86 4.884C430.048 4.884 431.008 5.262 431.74 6.018C432.472 6.762 432.838 7.806 432.838 9.15V15H430.318V9.492C430.318 8.7 430.12 8.094 429.724 7.674C429.328 7.242 428.788 7.026 428.104 7.026C427.408 7.026 426.856 7.242 426.448 7.674C426.052 8.094 425.854 8.7 425.854 9.492V15H423.334V5.028H425.854V6.27C426.19 5.838 426.616 5.502 427.132 5.262C427.66 5.01 428.236 4.884 428.86 4.884ZM436.35 15.126C435.894 15.126 435.516 14.988 435.216 14.712C434.928 14.424 434.784 14.07 434.784 13.65C434.784 13.23 434.928 12.882 435.216 12.606C435.516 12.318 435.894 12.174 436.35 12.174C436.794 12.174 437.16 12.318 437.448 12.606C437.736 12.882 437.88 13.23 437.88 13.65C437.88 14.07 437.736 14.424 437.448 14.712C437.16 14.988 436.794 15.126 436.35 15.126ZM18.4022 29.436L14.8922 42H11.9222L9.56421 33.054L7.09821 42L4.14621 42.018L0.762211 29.436H3.46221L5.67621 39.192L8.23221 29.436H11.0402L13.4522 39.138L15.6842 29.436H18.4022ZM29.3177 36.798C29.3177 37.158 29.2937 37.482 29.2457 37.77H21.9557C22.0157 38.49 22.2677 39.054 22.7117 39.462C23.1557 39.87 23.7017 40.074 24.3497 40.074C25.2857 40.074 25.9517 39.672 26.3477 38.868H29.0657C28.7777 39.828 28.2257 40.62 27.4097 41.244C26.5937 41.856 25.5917 42.162 24.4037 42.162C23.4437 42.162 22.5797 41.952 21.8117 41.532C21.0557 41.1 20.4617 40.494 20.0297 39.714C19.6097 38.934 19.3997 38.034 19.3997 37.014C19.3997 35.982 19.6097 35.076 20.0297 34.296C20.4497 33.516 21.0377 32.916 21.7937 32.496C22.5497 32.076 23.4197 31.866 24.4037 31.866C25.3517 31.866 26.1977 32.07 26.9417 32.478C27.6977 32.886 28.2797 33.468 28.6877 34.224C29.1077 34.968 29.3177 35.826 29.3177 36.798ZM26.7077 36.078C26.6957 35.43 26.4617 34.914 26.0057 34.53C25.5497 34.134 24.9917 33.936 24.3317 33.936C23.7077 33.936 23.1797 34.128 22.7477 34.512C22.3277 34.884 22.0697 35.406 21.9737 36.078H26.7077ZM32.741 27.636L32.525 31.452H30.815L30.581 27.636H32.741ZM37.1927 28.68V42H34.6727V28.68H37.1927ZM42.2024 28.68V42H39.6824V28.68H42.2024ZM51.5013 33.576C51.8253 33.048 52.2453 32.634 52.7613 32.334C53.2893 32.034 53.8893 31.884 54.5613 31.884V34.53H53.8953C53.1033 34.53 52.5033 34.716 52.0953 35.088C51.6993 35.46 51.5013 36.108 51.5013 37.032V42H48.9813V32.028H51.5013V33.576ZM65.5286 36.798C65.5286 37.158 65.5046 37.482 65.4566 37.77H58.1666C58.2266 38.49 58.4786 39.054 58.9226 39.462C59.3666 39.87 59.9126 40.074 60.5606 40.074C61.4966 40.074 62.1626 39.672 62.5586 38.868H65.2766C64.9886 39.828 64.4366 40.62 63.6206 41.244C62.8046 41.856 61.8026 42.162 60.6146 42.162C59.6546 42.162 58.7906 41.952 58.0226 41.532C57.2666 41.1 56.6726 40.494 56.2406 39.714C55.8206 38.934 55.6106 38.034 55.6106 37.014C55.6106 35.982 55.8206 35.076 56.2406 34.296C56.6606 33.516 57.2486 32.916 58.0046 32.496C58.7606 32.076 59.6306 31.866 60.6146 31.866C61.5626 31.866 62.4086 32.07 63.1526 32.478C63.9086 32.886 64.4906 33.468 64.8986 34.224C65.3186 34.968 65.5286 35.826 65.5286 36.798ZM62.9186 36.078C62.9066 35.43 62.6726 34.914 62.2166 34.53C61.7606 34.134 61.2026 33.936 60.5426 33.936C59.9186 33.936 59.3906 34.128 58.9586 34.512C58.5386 34.884 58.2806 35.406 58.1846 36.078H62.9186ZM71.526 39.678L74.046 32.028H76.728L73.038 42H69.978L66.306 32.028H69.006L71.526 39.678ZM79.4214 30.84C78.9774 30.84 78.6054 30.702 78.3054 30.426C78.0174 30.138 77.8734 29.784 77.8734 29.364C77.8734 28.944 78.0174 28.596 78.3054 28.32C78.6054 28.032 78.9774 27.888 79.4214 27.888C79.8654 27.888 80.2314 28.032 80.5194 28.32C80.8194 28.596 80.9694 28.944 80.9694 29.364C80.9694 29.784 80.8194 30.138 80.5194 30.426C80.2314 30.702 79.8654 30.84 79.4214 30.84ZM80.6634 32.028V42H78.1434V32.028H80.6634ZM92.4231 36.798C92.4231 37.158 92.3991 37.482 92.3511 37.77H85.0611C85.1211 38.49 85.3731 39.054 85.8171 39.462C86.2611 39.87 86.8071 40.074 87.4551 40.074C88.3911 40.074 89.0571 39.672 89.4531 38.868H92.1711C91.8831 39.828 91.3311 40.62 90.5151 41.244C89.6991 41.856 88.6971 42.162 87.5091 42.162C86.5491 42.162 85.6851 41.952 84.9171 41.532C84.1611 41.1 83.5671 40.494 83.1351 39.714C82.7151 38.934 82.5051 38.034 82.5051 37.014C82.5051 35.982 82.7151 35.076 83.1351 34.296C83.5551 33.516 84.1431 32.916 84.8991 32.496C85.6551 32.076 86.5251 31.866 87.5091 31.866C88.4571 31.866 89.3031 32.07 90.0471 32.478C90.8031 32.886 91.3851 33.468 91.7931 34.224C92.2131 34.968 92.4231 35.826 92.4231 36.798ZM89.8131 36.078C89.8011 35.43 89.5671 34.914 89.1111 34.53C88.6551 34.134 88.0971 33.936 87.4371 33.936C86.8131 33.936 86.2851 34.128 85.8531 34.512C85.4331 34.884 85.1751 35.406 85.0791 36.078H89.8131ZM108.087 32.028L105.171 42H102.453L100.635 35.034L98.8165 42H96.0805L93.1465 32.028H95.7025L97.4665 39.624L99.3745 32.028H102.039L103.911 39.606L105.675 32.028H108.087ZM115.017 30.84C114.573 30.84 114.201 30.702 113.901 30.426C113.613 30.138 113.469 29.784 113.469 29.364C113.469 28.944 113.613 28.596 113.901 28.32C114.201 28.032 114.573 27.888 115.017 27.888C115.461 27.888 115.827 28.032 116.115 28.32C116.415 28.596 116.565 28.944 116.565 29.364C116.565 29.784 116.415 30.138 116.115 30.426C115.827 30.702 115.461 30.84 115.017 30.84ZM116.259 32.028V42H113.739V32.028H116.259ZM121.683 34.098V38.922C121.683 39.258 121.761 39.504 121.917 39.66C122.085 39.804 122.361 39.876 122.745 39.876H123.915V42H122.331C120.207 42 119.145 40.968 119.145 38.904V34.098H117.957V32.028H119.145V29.562H121.683V32.028H123.915V34.098H121.683ZM133.832 42.162C133.016 42.162 132.284 42.018 131.636 41.73C130.988 41.43 130.472 41.028 130.088 40.524C129.716 40.02 129.512 39.462 129.476 38.85H132.014C132.062 39.234 132.248 39.552 132.572 39.804C132.908 40.056 133.322 40.182 133.814 40.182C134.294 40.182 134.666 40.086 134.93 39.894C135.206 39.702 135.344 39.456 135.344 39.156C135.344 38.832 135.176 38.592 134.84 38.436C134.516 38.268 133.994 38.088 133.274 37.896C132.53 37.716 131.918 37.53 131.438 37.338C130.97 37.146 130.562 36.852 130.214 36.456C129.878 36.06 129.71 35.526 129.71 34.854C129.71 34.302 129.866 33.798 130.178 33.342C130.502 32.886 130.958 32.526 131.546 32.262C132.146 31.998 132.848 31.866 133.652 31.866C134.84 31.866 135.788 32.166 136.496 32.766C137.204 33.354 137.594 34.152 137.666 35.16H135.254C135.218 34.764 135.05 34.452 134.75 34.224C134.462 33.984 134.072 33.864 133.58 33.864C133.124 33.864 132.77 33.948 132.518 34.116C132.278 34.284 132.158 34.518 132.158 34.818C132.158 35.154 132.326 35.412 132.662 35.592C132.998 35.76 133.52 35.934 134.228 36.114C134.948 36.294 135.542 36.48 136.01 36.672C136.478 36.864 136.88 37.164 137.216 37.572C137.564 37.968 137.744 38.496 137.756 39.156C137.756 39.732 137.594 40.248 137.27 40.704C136.958 41.16 136.502 41.52 135.902 41.784C135.314 42.036 134.624 42.162 133.832 42.162ZM145.441 31.884C146.197 31.884 146.869 32.052 147.457 32.388C148.045 32.712 148.501 33.198 148.825 33.846C149.161 34.482 149.329 35.25 149.329 36.15V42H146.809V36.492C146.809 35.7 146.611 35.094 146.215 34.674C145.819 34.242 145.279 34.026 144.595 34.026C143.899 34.026 143.347 34.242 142.939 34.674C142.543 35.094 142.345 35.7 142.345 36.492V42H139.825V28.68H142.345V33.27C142.669 32.838 143.101 32.502 143.641 32.262C144.181 32.01 144.781 31.884 145.441 31.884ZM156.153 42.162C155.193 42.162 154.329 41.952 153.561 41.532C152.793 41.1 152.187 40.494 151.743 39.714C151.311 38.934 151.095 38.034 151.095 37.014C151.095 35.994 151.317 35.094 151.761 34.314C152.217 33.534 152.835 32.934 153.615 32.514C154.395 32.082 155.265 31.866 156.225 31.866C157.185 31.866 158.055 32.082 158.835 32.514C159.615 32.934 160.227 33.534 160.671 34.314C161.127 35.094 161.355 35.994 161.355 37.014C161.355 38.034 161.121 38.934 160.653 39.714C160.197 40.494 159.573 41.1 158.781 41.532C158.001 41.952 157.125 42.162 156.153 42.162ZM156.153 39.966C156.609 39.966 157.035 39.858 157.431 39.642C157.839 39.414 158.163 39.078 158.403 38.634C158.643 38.19 158.763 37.65 158.763 37.014C158.763 36.066 158.511 35.34 158.007 34.836C157.515 34.32 156.909 34.062 156.189 34.062C155.469 34.062 154.863 34.32 154.371 34.836C153.891 35.34 153.651 36.066 153.651 37.014C153.651 37.962 153.885 38.694 154.353 39.21C154.833 39.714 155.433 39.966 156.153 39.966ZM165.724 33.576C166.048 33.048 166.468 32.634 166.984 32.334C167.512 32.034 168.112 31.884 168.784 31.884V34.53H168.118C167.326 34.53 166.726 34.716 166.318 35.088C165.922 35.46 165.724 36.108 165.724 37.032V42H163.204V32.028H165.724V33.576ZM173.415 34.098V38.922C173.415 39.258 173.493 39.504 173.649 39.66C173.817 39.804 174.093 39.876 174.477 39.876H175.647V42H174.063C171.939 42 170.877 40.968 170.877 38.904V34.098H169.689V32.028H170.877V29.562H173.415V32.028H175.647V34.098H173.415ZM179.98 28.68V42H177.46V28.68H179.98ZM192.01 32.028L185.836 46.716H183.154L185.314 41.748L181.318 32.028H184.144L186.718 38.994L189.328 32.028H192.01ZM197.009 36.978C197.009 35.97 197.207 35.076 197.603 34.296C198.011 33.516 198.557 32.916 199.241 32.496C199.937 32.076 200.711 31.866 201.563 31.866C202.307 31.866 202.955 32.016 203.507 32.316C204.071 32.616 204.521 32.994 204.857 33.45V32.028H207.395V42H204.857V40.542C204.533 41.01 204.083 41.4 203.507 41.712C202.943 42.012 202.289 42.162 201.545 42.162C200.705 42.162 199.937 41.946 199.241 41.514C198.557 41.082 198.011 40.476 197.603 39.696C197.207 38.904 197.009 37.998 197.009 36.978ZM204.857 37.014C204.857 36.402 204.737 35.88 204.497 35.448C204.257 35.004 203.933 34.668 203.525 34.44C203.117 34.2 202.679 34.08 202.211 34.08C201.743 34.08 201.311 34.194 200.915 34.422C200.519 34.65 200.195 34.986 199.943 35.43C199.703 35.862 199.583 36.378 199.583 36.978C199.583 37.578 199.703 38.106 199.943 38.562C200.195 39.006 200.519 39.348 200.915 39.588C201.323 39.828 201.755 39.948 202.211 39.948C202.679 39.948 203.117 39.834 203.525 39.606C203.933 39.366 204.257 39.03 204.497 38.598C204.737 38.154 204.857 37.626 204.857 37.014ZM215.382 31.884C216.57 31.884 217.53 32.262 218.262 33.018C218.994 33.762 219.36 34.806 219.36 36.15V42H216.84V36.492C216.84 35.7 216.642 35.094 216.246 34.674C215.85 34.242 215.31 34.026 214.626 34.026C213.93 34.026 213.378 34.242 212.97 34.674C212.574 35.094 212.376 35.7 212.376 36.492V42H209.856V32.028H212.376V33.27C212.712 32.838 213.138 32.502 213.654 32.262C214.182 32.01 214.758 31.884 215.382 31.884ZM221.109 36.978C221.109 35.97 221.307 35.076 221.703 34.296C222.111 33.516 222.663 32.916 223.359 32.496C224.055 32.076 224.829 31.866 225.681 31.866C226.329 31.866 226.947 32.01 227.535 32.298C228.123 32.574 228.591 32.946 228.939 33.414V28.68H231.495V42H228.939V40.524C228.627 41.016 228.189 41.412 227.625 41.712C227.061 42.012 226.407 42.162 225.663 42.162C224.823 42.162 224.055 41.946 223.359 41.514C222.663 41.082 222.111 40.476 221.703 39.696C221.307 38.904 221.109 37.998 221.109 36.978ZM228.957 37.014C228.957 36.402 228.837 35.88 228.597 35.448C228.357 35.004 228.033 34.668 227.625 34.44C227.217 34.2 226.779 34.08 226.311 34.08C225.843 34.08 225.411 34.194 225.015 34.422C224.619 34.65 224.295 34.986 224.043 35.43C223.803 35.862 223.683 36.378 223.683 36.978C223.683 37.578 223.803 38.106 224.043 38.562C224.295 39.006 224.619 39.348 225.015 39.588C225.423 39.828 225.855 39.948 226.311 39.948C226.779 39.948 227.217 39.834 227.625 39.606C228.033 39.366 228.357 39.03 228.597 38.598C228.837 38.154 228.957 37.626 228.957 37.014ZM240.765 33.468C241.089 33.012 241.533 32.634 242.097 32.334C242.673 32.022 243.327 31.866 244.059 31.866C244.911 31.866 245.679 32.076 246.363 32.496C247.059 32.916 247.605 33.516 248.001 34.296C248.409 35.064 248.613 35.958 248.613 36.978C248.613 37.998 248.409 38.904 248.001 39.696C247.605 40.476 247.059 41.082 246.363 41.514C245.679 41.946 244.911 42.162 244.059 42.162C243.327 42.162 242.679 42.012 242.115 41.712C241.563 41.412 241.113 41.034 240.765 40.578V46.752H238.245V32.028H240.765V33.468ZM246.039 36.978C246.039 36.378 245.913 35.862 245.661 35.43C245.421 34.986 245.097 34.65 244.689 34.422C244.293 34.194 243.861 34.08 243.393 34.08C242.937 34.08 242.505 34.2 242.097 34.44C241.701 34.668 241.377 35.004 241.125 35.448C240.885 35.892 240.765 36.414 240.765 37.014C240.765 37.614 240.885 38.136 241.125 38.58C241.377 39.024 241.701 39.366 242.097 39.606C242.505 39.834 242.937 39.948 243.393 39.948C243.861 39.948 244.293 39.828 244.689 39.588C245.097 39.348 245.421 39.006 245.661 38.562C245.913 38.118 246.039 37.59 246.039 36.978ZM252.964 33.576C253.288 33.048 253.708 32.634 254.224 32.334C254.752 32.034 255.352 31.884 256.024 31.884V34.53H255.358C254.566 34.53 253.966 34.716 253.558 35.088C253.162 35.46 252.964 36.108 252.964 37.032V42H250.444V32.028H252.964V33.576ZM262.149 42.162C261.189 42.162 260.325 41.952 259.557 41.532C258.789 41.1 258.183 40.494 257.739 39.714C257.307 38.934 257.091 38.034 257.091 37.014C257.091 35.994 257.313 35.094 257.757 34.314C258.213 33.534 258.831 32.934 259.611 32.514C260.391 32.082 261.261 31.866 262.221 31.866C263.181 31.866 264.051 32.082 264.831 32.514C265.611 32.934 266.223 33.534 266.667 34.314C267.123 35.094 267.351 35.994 267.351 37.014C267.351 38.034 267.117 38.934 266.649 39.714C266.193 40.494 265.569 41.1 264.777 41.532C263.997 41.952 263.121 42.162 262.149 42.162ZM262.149 39.966C262.605 39.966 263.031 39.858 263.427 39.642C263.835 39.414 264.159 39.078 264.399 38.634C264.639 38.19 264.759 37.65 264.759 37.014C264.759 36.066 264.507 35.34 264.003 34.836C263.511 34.32 262.905 34.062 262.185 34.062C261.465 34.062 260.859 34.32 260.367 34.836C259.887 35.34 259.647 36.066 259.647 37.014C259.647 37.962 259.881 38.694 260.349 39.21C260.829 39.714 261.429 39.966 262.149 39.966ZM273.358 39.678L275.878 32.028H278.56L274.87 42H271.81L268.138 32.028H270.838L273.358 39.678ZM281.253 30.84C280.809 30.84 280.437 30.702 280.137 30.426C279.849 30.138 279.705 29.784 279.705 29.364C279.705 28.944 279.849 28.596 280.137 28.32C280.437 28.032 280.809 27.888 281.253 27.888C281.697 27.888 282.063 28.032 282.351 28.32C282.651 28.596 282.801 28.944 282.801 29.364C282.801 29.784 282.651 30.138 282.351 30.426C282.063 30.702 281.697 30.84 281.253 30.84ZM282.495 32.028V42H279.975V32.028H282.495ZM284.337 36.978C284.337 35.97 284.535 35.076 284.931 34.296C285.339 33.516 285.891 32.916 286.587 32.496C287.283 32.076 288.057 31.866 288.909 31.866C289.557 31.866 290.175 32.01 290.763 32.298C291.351 32.574 291.819 32.946 292.167 33.414V28.68H294.723V42H292.167V40.524C291.855 41.016 291.417 41.412 290.853 41.712C290.289 42.012 289.635 42.162 288.891 42.162C288.051 42.162 287.283 41.946 286.587 41.514C285.891 41.082 285.339 40.476 284.931 39.696C284.535 38.904 284.337 37.998 284.337 36.978ZM292.185 37.014C292.185 36.402 292.065 35.88 291.825 35.448C291.585 35.004 291.261 34.668 290.853 34.44C290.445 34.2 290.007 34.08 289.539 34.08C289.071 34.08 288.639 34.194 288.243 34.422C287.847 34.65 287.523 34.986 287.271 35.43C287.031 35.862 286.911 36.378 286.911 36.978C286.911 37.578 287.031 38.106 287.271 38.562C287.523 39.006 287.847 39.348 288.243 39.588C288.651 39.828 289.083 39.948 289.539 39.948C290.007 39.948 290.445 39.834 290.853 39.606C291.261 39.366 291.585 39.03 291.825 38.598C292.065 38.154 292.185 37.626 292.185 37.014ZM306.454 36.798C306.454 37.158 306.43 37.482 306.382 37.77H299.092C299.152 38.49 299.404 39.054 299.848 39.462C300.292 39.87 300.838 40.074 301.486 40.074C302.422 40.074 303.088 39.672 303.484 38.868H306.202C305.914 39.828 305.362 40.62 304.546 41.244C303.73 41.856 302.728 42.162 301.54 42.162C300.58 42.162 299.716 41.952 298.948 41.532C298.192 41.1 297.598 40.494 297.166 39.714C296.746 38.934 296.536 38.034 296.536 37.014C296.536 35.982 296.746 35.076 297.166 34.296C297.586 33.516 298.174 32.916 298.93 32.496C299.686 32.076 300.556 31.866 301.54 31.866C302.488 31.866 303.334 32.07 304.078 32.478C304.834 32.886 305.416 33.468 305.824 34.224C306.244 34.968 306.454 35.826 306.454 36.798ZM303.844 36.078C303.832 35.43 303.598 34.914 303.142 34.53C302.686 34.134 302.128 33.936 301.468 33.936C300.844 33.936 300.316 34.128 299.884 34.512C299.464 34.884 299.206 35.406 299.11 36.078H303.844ZM311.935 36.978C311.935 35.97 312.133 35.076 312.529 34.296C312.937 33.516 313.483 32.916 314.167 32.496C314.863 32.076 315.637 31.866 316.489 31.866C317.233 31.866 317.881 32.016 318.433 32.316C318.997 32.616 319.447 32.994 319.783 33.45V32.028H322.321V42H319.783V40.542C319.459 41.01 319.009 41.4 318.433 41.712C317.869 42.012 317.215 42.162 316.471 42.162C315.631 42.162 314.863 41.946 314.167 41.514C313.483 41.082 312.937 40.476 312.529 39.696C312.133 38.904 311.935 37.998 311.935 36.978ZM319.783 37.014C319.783 36.402 319.663 35.88 319.423 35.448C319.183 35.004 318.859 34.668 318.451 34.44C318.043 34.2 317.605 34.08 317.137 34.08C316.669 34.08 316.237 34.194 315.841 34.422C315.445 34.65 315.121 34.986 314.869 35.43C314.629 35.862 314.509 36.378 314.509 36.978C314.509 37.578 314.629 38.106 314.869 38.562C315.121 39.006 315.445 39.348 315.841 39.588C316.249 39.828 316.681 39.948 317.137 39.948C317.605 39.948 318.043 39.834 318.451 39.606C318.859 39.366 319.183 39.03 319.423 38.598C319.663 38.154 319.783 37.626 319.783 37.014ZM330.308 31.884C331.496 31.884 332.456 32.262 333.188 33.018C333.92 33.762 334.286 34.806 334.286 36.15V42H331.766V36.492C331.766 35.7 331.568 35.094 331.172 34.674C330.776 34.242 330.236 34.026 329.552 34.026C328.856 34.026 328.304 34.242 327.896 34.674C327.5 35.094 327.302 35.7 327.302 36.492V42H324.782V32.028H327.302V33.27C327.638 32.838 328.064 32.502 328.58 32.262C329.108 32.01 329.684 31.884 330.308 31.884ZM350.385 32.028V42H347.847V40.74C347.523 41.172 347.097 41.514 346.569 41.766C346.053 42.006 345.489 42.126 344.877 42.126C344.097 42.126 343.407 41.964 342.807 41.64C342.207 41.304 341.733 40.818 341.385 40.182C341.049 39.534 340.881 38.766 340.881 37.878V32.028H343.401V37.518C343.401 38.31 343.599 38.922 343.995 39.354C344.391 39.774 344.931 39.984 345.615 39.984C346.311 39.984 346.857 39.774 347.253 39.354C347.649 38.922 347.847 38.31 347.847 37.518V32.028H350.385ZM355.392 33.468C355.716 33.012 356.16 32.634 356.724 32.334C357.3 32.022 357.954 31.866 358.686 31.866C359.538 31.866 360.306 32.076 360.99 32.496C361.686 32.916 362.232 33.516 362.628 34.296C363.036 35.064 363.24 35.958 363.24 36.978C363.24 37.998 363.036 38.904 362.628 39.696C362.232 40.476 361.686 41.082 360.99 41.514C360.306 41.946 359.538 42.162 358.686 42.162C357.954 42.162 357.306 42.012 356.742 41.712C356.19 41.412 355.74 41.034 355.392 40.578V46.752H352.872V32.028H355.392V33.468ZM360.666 36.978C360.666 36.378 360.54 35.862 360.288 35.43C360.048 34.986 359.724 34.65 359.316 34.422C358.92 34.194 358.488 34.08 358.02 34.08C357.564 34.08 357.132 34.2 356.724 34.44C356.328 34.668 356.004 35.004 355.752 35.448C355.512 35.892 355.392 36.414 355.392 37.014C355.392 37.614 355.512 38.136 355.752 38.58C356.004 39.024 356.328 39.366 356.724 39.606C357.132 39.834 357.564 39.948 358.02 39.948C358.488 39.948 358.92 39.828 359.316 39.588C359.724 39.348 360.048 39.006 360.288 38.562C360.54 38.118 360.666 37.59 360.666 36.978ZM364.423 36.978C364.423 35.97 364.621 35.076 365.017 34.296C365.425 33.516 365.977 32.916 366.673 32.496C367.369 32.076 368.143 31.866 368.995 31.866C369.643 31.866 370.261 32.01 370.849 32.298C371.437 32.574 371.905 32.946 372.253 33.414V28.68H374.809V42H372.253V40.524C371.941 41.016 371.503 41.412 370.939 41.712C370.375 42.012 369.721 42.162 368.977 42.162C368.137 42.162 367.369 41.946 366.673 41.514C365.977 41.082 365.425 40.476 365.017 39.696C364.621 38.904 364.423 37.998 364.423 36.978ZM372.271 37.014C372.271 36.402 372.151 35.88 371.911 35.448C371.671 35.004 371.347 34.668 370.939 34.44C370.531 34.2 370.093 34.08 369.625 34.08C369.157 34.08 368.725 34.194 368.329 34.422C367.933 34.65 367.609 34.986 367.357 35.43C367.117 35.862 366.997 36.378 366.997 36.978C366.997 37.578 367.117 38.106 367.357 38.562C367.609 39.006 367.933 39.348 368.329 39.588C368.737 39.828 369.169 39.948 369.625 39.948C370.093 39.948 370.531 39.834 370.939 39.606C371.347 39.366 371.671 39.03 371.911 38.598C372.151 38.154 372.271 37.626 372.271 37.014ZM376.622 36.978C376.622 35.97 376.82 35.076 377.216 34.296C377.624 33.516 378.17 32.916 378.854 32.496C379.55 32.076 380.324 31.866 381.176 31.866C381.92 31.866 382.568 32.016 383.12 32.316C383.684 32.616 384.134 32.994 384.47 33.45V32.028H387.008V42H384.47V40.542C384.146 41.01 383.696 41.4 383.12 41.712C382.556 42.012 381.902 42.162 381.158 42.162C380.318 42.162 379.55 41.946 378.854 41.514C378.17 41.082 377.624 40.476 377.216 39.696C376.82 38.904 376.622 37.998 376.622 36.978ZM384.47 37.014C384.47 36.402 384.35 35.88 384.11 35.448C383.87 35.004 383.546 34.668 383.138 34.44C382.73 34.2 382.292 34.08 381.824 34.08C381.356 34.08 380.924 34.194 380.528 34.422C380.132 34.65 379.808 34.986 379.556 35.43C379.316 35.862 379.196 36.378 379.196 36.978C379.196 37.578 379.316 38.106 379.556 38.562C379.808 39.006 380.132 39.348 380.528 39.588C380.936 39.828 381.368 39.948 381.824 39.948C382.292 39.948 382.73 39.834 383.138 39.606C383.546 39.366 383.87 39.03 384.11 38.598C384.35 38.154 384.47 37.626 384.47 37.014ZM392.404 34.098V38.922C392.404 39.258 392.482 39.504 392.638 39.66C392.806 39.804 393.082 39.876 393.466 39.876H394.636V42H393.052C390.928 42 389.866 40.968 389.866 38.904V34.098H388.678V32.028H389.866V29.562H392.404V32.028H394.636V34.098H392.404ZM405.718 36.798C405.718 37.158 405.694 37.482 405.646 37.77H398.356C398.416 38.49 398.668 39.054 399.112 39.462C399.556 39.87 400.102 40.074 400.75 40.074C401.686 40.074 402.352 39.672 402.748 38.868H405.466C405.178 39.828 404.626 40.62 403.81 41.244C402.994 41.856 401.992 42.162 400.804 42.162C399.844 42.162 398.98 41.952 398.212 41.532C397.456 41.1 396.862 40.494 396.43 39.714C396.01 38.934 395.8 38.034 395.8 37.014C395.8 35.982 396.01 35.076 396.43 34.296C396.85 33.516 397.438 32.916 398.194 32.496C398.95 32.076 399.82 31.866 400.804 31.866C401.752 31.866 402.598 32.07 403.342 32.478C404.098 32.886 404.68 33.468 405.088 34.224C405.508 34.968 405.718 35.826 405.718 36.798ZM403.108 36.078C403.096 35.43 402.862 34.914 402.406 34.53C401.95 34.134 401.392 33.936 400.732 33.936C400.108 33.936 399.58 34.128 399.148 34.512C398.728 34.884 398.47 35.406 398.374 36.078H403.108ZM415.662 42.162C414.846 42.162 414.114 42.018 413.466 41.73C412.818 41.43 412.302 41.028 411.918 40.524C411.546 40.02 411.342 39.462 411.306 38.85H413.844C413.892 39.234 414.078 39.552 414.402 39.804C414.738 40.056 415.152 40.182 415.644 40.182C416.124 40.182 416.496 40.086 416.76 39.894C417.036 39.702 417.174 39.456 417.174 39.156C417.174 38.832 417.006 38.592 416.67 38.436C416.346 38.268 415.824 38.088 415.104 37.896C414.36 37.716 413.748 37.53 413.268 37.338C412.8 37.146 412.392 36.852 412.044 36.456C411.708 36.06 411.54 35.526 411.54 34.854C411.54 34.302 411.696 33.798 412.008 33.342C412.332 32.886 412.788 32.526 413.376 32.262C413.976 31.998 414.678 31.866 415.482 31.866C416.67 31.866 417.618 32.166 418.326 32.766C419.034 33.354 419.424 34.152 419.496 35.16H417.084C417.048 34.764 416.88 34.452 416.58 34.224C416.292 33.984 415.902 33.864 415.41 33.864C414.954 33.864 414.6 33.948 414.348 34.116C414.108 34.284 413.988 34.518 413.988 34.818C413.988 35.154 414.156 35.412 414.492 35.592C414.828 35.76 415.35 35.934 416.058 36.114C416.778 36.294 417.372 36.48 417.84 36.672C418.308 36.864 418.71 37.164 419.046 37.572C419.394 37.968 419.574 38.496 419.586 39.156C419.586 39.732 419.424 40.248 419.1 40.704C418.788 41.16 418.332 41.52 417.732 41.784C417.144 42.036 416.454 42.162 415.662 42.162ZM426.083 42.162C425.123 42.162 424.259 41.952 423.491 41.532C422.723 41.1 422.117 40.494 421.673 39.714C421.241 38.934 421.025 38.034 421.025 37.014C421.025 35.994 421.247 35.094 421.691 34.314C422.147 33.534 422.765 32.934 423.545 32.514C424.325 32.082 425.195 31.866 426.155 31.866C427.115 31.866 427.985 32.082 428.765 32.514C429.545 32.934 430.157 33.534 430.601 34.314C431.057 35.094 431.285 35.994 431.285 37.014C431.285 38.034 431.051 38.934 430.583 39.714C430.127 40.494 429.503 41.1 428.711 41.532C427.931 41.952 427.055 42.162 426.083 42.162ZM426.083 39.966C426.539 39.966 426.965 39.858 427.361 39.642C427.769 39.414 428.093 39.078 428.333 38.634C428.573 38.19 428.693 37.65 428.693 37.014C428.693 36.066 428.441 35.34 427.937 34.836C427.445 34.32 426.839 34.062 426.119 34.062C425.399 34.062 424.793 34.32 424.301 34.836C423.821 35.34 423.581 36.066 423.581 37.014C423.581 37.962 423.815 38.694 424.283 39.21C424.763 39.714 425.363 39.966 426.083 39.966ZM437.562 42.162C436.602 42.162 435.738 41.952 434.97 41.532C434.202 41.1 433.596 40.494 433.152 39.714C432.72 38.934 432.504 38.034 432.504 37.014C432.504 35.994 432.726 35.094 433.17 34.314C433.626 33.534 434.244 32.934 435.024 32.514C435.804 32.082 436.674 31.866 437.634 31.866C438.594 31.866 439.464 32.082 440.244 32.514C441.024 32.934 441.636 33.534 442.08 34.314C442.536 35.094 442.764 35.994 442.764 37.014C442.764 38.034 442.53 38.934 442.062 39.714C441.606 40.494 440.982 41.1 440.19 41.532C439.41 41.952 438.534 42.162 437.562 42.162ZM437.562 39.966C438.018 39.966 438.444 39.858 438.84 39.642C439.248 39.414 439.572 39.078 439.812 38.634C440.052 38.19 440.172 37.65 440.172 37.014C440.172 36.066 439.92 35.34 439.416 34.836C438.924 34.32 438.318 34.062 437.598 34.062C436.878 34.062 436.272 34.32 435.78 34.836C435.3 35.34 435.06 36.066 435.06 37.014C435.06 37.962 435.294 38.694 435.762 39.21C436.242 39.714 436.842 39.966 437.562 39.966ZM450.138 31.884C451.326 31.884 452.286 32.262 453.018 33.018C453.75 33.762 454.116 34.806 454.116 36.15V42H451.596V36.492C451.596 35.7 451.398 35.094 451.002 34.674C450.606 34.242 450.066 34.026 449.382 34.026C448.686 34.026 448.134 34.242 447.726 34.674C447.33 35.094 447.132 35.7 447.132 36.492V42H444.612V32.028H447.132V33.27C447.468 32.838 447.894 32.502 448.41 32.262C448.938 32.01 449.514 31.884 450.138 31.884ZM459.771 29.22L459.483 37.914H457.359L457.053 29.22H459.771ZM458.475 42.126C458.019 42.126 457.641 41.988 457.341 41.712C457.053 41.424 456.909 41.07 456.909 40.65C456.909 40.23 457.053 39.882 457.341 39.606C457.641 39.318 458.019 39.174 458.475 39.174C458.919 39.174 459.285 39.318 459.573 39.606C459.861 39.882 460.005 40.23 460.005 40.65C460.005 41.07 459.861 41.424 459.573 41.712C459.285 41.988 458.919 42.126 458.475 42.126Z" fill="#0F0F0F"/>
</svg>
