<svg width="84" height="84" viewBox="0 0 84 84" fill="none" xmlns="http://www.w3.org/2000/svg">
<g filter="url(#filter0_d_1_4820)">
<rect x="11" y="11" width="60" height="60" rx="30" fill="white"/>
<path d="M28 31V34.5756H47.6658V31H28ZM28 38.1512V41.7268H47.6658V38.1512H28ZM58.3926 38.33C58.2138 38.33 57.8562 38.5088 57.6775 38.6875L55.8897 40.4753L59.644 44.2297L61.4318 42.4419C61.7894 42.0843 61.7894 41.3692 61.4318 41.0117L59.1077 38.6875C58.9289 38.5088 58.7501 38.33 58.3926 38.33ZM54.9958 41.548L44.0902 52.2748V56.0292H47.8446L58.7501 45.1236L54.9958 41.548ZM28 45.3024V48.878H40.5146V45.3024H28Z" fill="#0F0F0F"/>
</g>
<defs>
<filter id="filter0_d_1_4820" x="0" y="0" width="84" height="84" filterUnits="userSpaceOnUse" color-interpolation-filters="sRGB">
<feFlood flood-opacity="0" result="BackgroundImageFix"/>
<feColorMatrix in="SourceAlpha" type="matrix" values="0 0 0 0 0 0 0 0 0 0 0 0 0 0 0 0 0 0 127 0" result="hardAlpha"/>
<feOffset dx="1" dy="1"/>
<feGaussianBlur stdDeviation="6"/>
<feComposite in2="hardAlpha" operator="out"/>
<feColorMatrix type="matrix" values="0 0 0 0 1 0 0 0 0 1 0 0 0 0 1 0 0 0 0.24 0"/>
<feBlend mode="normal" in2="BackgroundImageFix" result="effect1_dropShadow_1_4820"/>
<feBlend mode="normal" in="SourceGraphic" in2="effect1_dropShadow_1_4820" result="shape"/>
</filter>
</defs>
</svg>
