<svg width="417" height="120" viewBox="0 0 417 120" fill="none" xmlns="http://www.w3.org/2000/svg">
<g filter="url(#filter0_d_1_5139)">
<path d="M32 34C32 29.5817 35.5817 26 40 26H381C385.418 26 389 29.5817 389 34V65.9815C389 70.3998 385.418 73.9815 381 73.9815H364.514C363.847 73.9815 363.225 74.3135 362.853 74.8668L356.195 84.7859C355.803 85.3699 354.946 85.3773 354.544 84.8L347.605 74.8385C347.232 74.3016 346.619 73.9815 345.964 73.9815H40C35.5817 73.9815 32 70.3998 32 65.9815V34Z" fill="#F8F8F8"/>
<path d="M49.9424 43.436V45.47H46.5944V56H44.0744V45.47H40.7264V43.436H49.9424ZM57.3971 45.884C58.1531 45.884 58.8251 46.052 59.4131 46.388C60.0011 46.712 60.4571 47.198 60.7811 47.846C61.1171 48.482 61.2851 49.25 61.2851 50.15V56H58.7651V50.492C58.7651 49.7 58.5671 49.094 58.1711 48.674C57.7751 48.242 57.2351 48.026 56.5511 48.026C55.8551 48.026 55.3031 48.242 54.8951 48.674C54.4991 49.094 54.3011 49.7 54.3011 50.492V56H51.7811V42.68H54.3011V47.27C54.6251 46.838 55.0571 46.502 55.5971 46.262C56.1371 46.01 56.7371 45.884 57.3971 45.884ZM63.0335 50.978C63.0335 49.97 63.2315 49.076 63.6275 48.296C64.0355 47.516 64.5815 46.916 65.2655 46.496C65.9615 46.076 66.7355 45.866 67.5875 45.866C68.3315 45.866 68.9795 46.016 69.5315 46.316C70.0955 46.616 70.5455 46.994 70.8815 47.45V46.028H73.4195V56H70.8815V54.542C70.5575 55.01 70.1075 55.4 69.5315 55.712C68.9675 56.012 68.3135 56.162 67.5695 56.162C66.7295 56.162 65.9615 55.946 65.2655 55.514C64.5815 55.082 64.0355 54.476 63.6275 53.696C63.2315 52.904 63.0335 51.998 63.0335 50.978ZM70.8815 51.014C70.8815 50.402 70.7615 49.88 70.5215 49.448C70.2815 49.004 69.9575 48.668 69.5495 48.44C69.1415 48.2 68.7035 48.08 68.2355 48.08C67.7675 48.08 67.3355 48.194 66.9395 48.422C66.5435 48.65 66.2195 48.986 65.9675 49.43C65.7275 49.862 65.6075 50.378 65.6075 50.978C65.6075 51.578 65.7275 52.106 65.9675 52.562C66.2195 53.006 66.5435 53.348 66.9395 53.588C67.3475 53.828 67.7795 53.948 68.2355 53.948C68.7035 53.948 69.1415 53.834 69.5495 53.606C69.9575 53.366 70.2815 53.03 70.5215 52.598C70.7615 52.154 70.8815 51.626 70.8815 51.014ZM81.4067 45.884C82.5947 45.884 83.5547 46.262 84.2867 47.018C85.0187 47.762 85.3847 48.806 85.3847 50.15V56H82.8647V50.492C82.8647 49.7 82.6667 49.094 82.2707 48.674C81.8747 48.242 81.3347 48.026 80.6507 48.026C79.9547 48.026 79.4027 48.242 78.9947 48.674C78.5987 49.094 78.4007 49.7 78.4007 50.492V56H75.8807V46.028H78.4007V47.27C78.7367 46.838 79.1627 46.502 79.6787 46.262C80.2067 46.01 80.7827 45.884 81.4067 45.884ZM93.6851 56L90.3011 51.752V56H87.7811V42.68H90.3011V50.258L93.6491 46.028H96.9251L92.5331 51.032L96.9611 56H93.6851ZM102.109 56.162C101.293 56.162 100.561 56.018 99.9128 55.73C99.2648 55.43 98.7488 55.028 98.3648 54.524C97.9928 54.02 97.7888 53.462 97.7528 52.85H100.291C100.339 53.234 100.525 53.552 100.849 53.804C101.185 54.056 101.599 54.182 102.091 54.182C102.571 54.182 102.943 54.086 103.207 53.894C103.483 53.702 103.621 53.456 103.621 53.156C103.621 52.832 103.453 52.592 103.117 52.436C102.793 52.268 102.271 52.088 101.551 51.896C100.807 51.716 100.195 51.53 99.7148 51.338C99.2468 51.146 98.8388 50.852 98.4908 50.456C98.1548 50.06 97.9868 49.526 97.9868 48.854C97.9868 48.302 98.1428 47.798 98.4548 47.342C98.7788 46.886 99.2348 46.526 99.8228 46.262C100.423 45.998 101.125 45.866 101.929 45.866C103.117 45.866 104.065 46.166 104.773 46.766C105.481 47.354 105.871 48.152 105.943 49.16H103.531C103.495 48.764 103.327 48.452 103.027 48.224C102.739 47.984 102.349 47.864 101.857 47.864C101.401 47.864 101.047 47.948 100.795 48.116C100.555 48.284 100.435 48.518 100.435 48.818C100.435 49.154 100.603 49.412 100.939 49.592C101.275 49.76 101.797 49.934 102.505 50.114C103.225 50.294 103.819 50.48 104.287 50.672C104.755 50.864 105.157 51.164 105.493 51.572C105.841 51.968 106.021 52.496 106.033 53.156C106.033 53.732 105.871 54.248 105.547 54.704C105.235 55.16 104.779 55.52 104.179 55.784C103.591 56.036 102.901 56.162 102.109 56.162ZM116.962 48.098H115.216V56H112.66V48.098H111.526V46.028H112.66V45.524C112.66 44.3 113.008 43.4 113.704 42.824C114.4 42.248 115.45 41.978 116.854 42.014V44.138C116.242 44.126 115.816 44.228 115.576 44.444C115.336 44.66 115.216 45.05 115.216 45.614V46.028H116.962V48.098ZM123.024 56.162C122.064 56.162 121.2 55.952 120.432 55.532C119.664 55.1 119.058 54.494 118.614 53.714C118.182 52.934 117.966 52.034 117.966 51.014C117.966 49.994 118.188 49.094 118.632 48.314C119.088 47.534 119.706 46.934 120.486 46.514C121.266 46.082 122.136 45.866 123.096 45.866C124.056 45.866 124.926 46.082 125.706 46.514C126.486 46.934 127.098 47.534 127.542 48.314C127.998 49.094 128.226 49.994 128.226 51.014C128.226 52.034 127.992 52.934 127.524 53.714C127.068 54.494 126.444 55.1 125.652 55.532C124.872 55.952 123.996 56.162 123.024 56.162ZM123.024 53.966C123.48 53.966 123.906 53.858 124.302 53.642C124.71 53.414 125.034 53.078 125.274 52.634C125.514 52.19 125.634 51.65 125.634 51.014C125.634 50.066 125.382 49.34 124.878 48.836C124.386 48.32 123.78 48.062 123.06 48.062C122.34 48.062 121.734 48.32 121.242 48.836C120.762 49.34 120.522 50.066 120.522 51.014C120.522 51.962 120.756 52.694 121.224 53.21C121.704 53.714 122.304 53.966 123.024 53.966ZM132.594 47.576C132.918 47.048 133.338 46.634 133.854 46.334C134.382 46.034 134.982 45.884 135.654 45.884V48.53H134.988C134.196 48.53 133.596 48.716 133.188 49.088C132.792 49.46 132.594 50.108 132.594 51.032V56H130.074V46.028H132.594V47.576ZM151.18 46.028L145.006 60.716H142.324L144.484 55.748L140.488 46.028H143.314L145.888 52.994L148.498 46.028H151.18ZM156.967 56.162C156.007 56.162 155.143 55.952 154.375 55.532C153.607 55.1 153.001 54.494 152.557 53.714C152.125 52.934 151.909 52.034 151.909 51.014C151.909 49.994 152.131 49.094 152.575 48.314C153.031 47.534 153.649 46.934 154.429 46.514C155.209 46.082 156.079 45.866 157.039 45.866C157.999 45.866 158.869 46.082 159.649 46.514C160.429 46.934 161.041 47.534 161.485 48.314C161.941 49.094 162.169 49.994 162.169 51.014C162.169 52.034 161.935 52.934 161.467 53.714C161.011 54.494 160.387 55.1 159.595 55.532C158.815 55.952 157.939 56.162 156.967 56.162ZM156.967 53.966C157.423 53.966 157.849 53.858 158.245 53.642C158.653 53.414 158.977 53.078 159.217 52.634C159.457 52.19 159.577 51.65 159.577 51.014C159.577 50.066 159.325 49.34 158.821 48.836C158.329 48.32 157.723 48.062 157.003 48.062C156.283 48.062 155.677 48.32 155.185 48.836C154.705 49.34 154.465 50.066 154.465 51.014C154.465 51.962 154.699 52.694 155.167 53.21C155.647 53.714 156.247 53.966 156.967 53.966ZM173.431 46.028V56H170.893V54.74C170.569 55.172 170.143 55.514 169.615 55.766C169.099 56.006 168.535 56.126 167.923 56.126C167.143 56.126 166.453 55.964 165.853 55.64C165.253 55.304 164.779 54.818 164.431 54.182C164.095 53.534 163.927 52.766 163.927 51.878V46.028H166.447V51.518C166.447 52.31 166.645 52.922 167.041 53.354C167.437 53.774 167.977 53.984 168.661 53.984C169.357 53.984 169.903 53.774 170.299 53.354C170.695 52.922 170.893 52.31 170.893 51.518V46.028H173.431ZM178.438 47.576C178.762 47.048 179.182 46.634 179.698 46.334C180.226 46.034 180.826 45.884 181.498 45.884V48.53H180.832C180.04 48.53 179.44 48.716 179.032 49.088C178.636 49.46 178.438 50.108 178.438 51.032V56H175.918V46.028H178.438V47.576ZM191.642 53.678L194.162 46.028H196.844L193.154 56H190.094L186.422 46.028H189.122L191.642 53.678ZM197.612 50.978C197.612 49.97 197.81 49.076 198.206 48.296C198.614 47.516 199.16 46.916 199.844 46.496C200.54 46.076 201.314 45.866 202.166 45.866C202.91 45.866 203.558 46.016 204.11 46.316C204.674 46.616 205.124 46.994 205.46 47.45V46.028H207.998V56H205.46V54.542C205.136 55.01 204.686 55.4 204.11 55.712C203.546 56.012 202.892 56.162 202.148 56.162C201.308 56.162 200.54 55.946 199.844 55.514C199.16 55.082 198.614 54.476 198.206 53.696C197.81 52.904 197.612 51.998 197.612 50.978ZM205.46 51.014C205.46 50.402 205.34 49.88 205.1 49.448C204.86 49.004 204.536 48.668 204.128 48.44C203.72 48.2 203.282 48.08 202.814 48.08C202.346 48.08 201.914 48.194 201.518 48.422C201.122 48.65 200.798 48.986 200.546 49.43C200.306 49.862 200.186 50.378 200.186 50.978C200.186 51.578 200.306 52.106 200.546 52.562C200.798 53.006 201.122 53.348 201.518 53.588C201.926 53.828 202.358 53.948 202.814 53.948C203.282 53.948 203.72 53.834 204.128 53.606C204.536 53.366 204.86 53.03 205.1 52.598C205.34 52.154 205.46 51.626 205.46 51.014ZM212.979 42.68V56H210.459V42.68H212.979ZM224.883 46.028V56H222.345V54.74C222.021 55.172 221.595 55.514 221.067 55.766C220.551 56.006 219.987 56.126 219.375 56.126C218.595 56.126 217.905 55.964 217.305 55.64C216.705 55.304 216.231 54.818 215.883 54.182C215.547 53.534 215.379 52.766 215.379 51.878V46.028H217.899V51.518C217.899 52.31 218.097 52.922 218.493 53.354C218.889 53.774 219.429 53.984 220.113 53.984C220.809 53.984 221.355 53.774 221.751 53.354C222.147 52.922 222.345 52.31 222.345 51.518V46.028H224.883ZM226.721 50.978C226.721 49.97 226.919 49.076 227.315 48.296C227.723 47.516 228.269 46.916 228.953 46.496C229.649 46.076 230.423 45.866 231.275 45.866C232.019 45.866 232.667 46.016 233.219 46.316C233.783 46.616 234.233 46.994 234.569 47.45V46.028H237.107V56H234.569V54.542C234.245 55.01 233.795 55.4 233.219 55.712C232.655 56.012 232.001 56.162 231.257 56.162C230.417 56.162 229.649 55.946 228.953 55.514C228.269 55.082 227.723 54.476 227.315 53.696C226.919 52.904 226.721 51.998 226.721 50.978ZM234.569 51.014C234.569 50.402 234.449 49.88 234.209 49.448C233.969 49.004 233.645 48.668 233.237 48.44C232.829 48.2 232.391 48.08 231.923 48.08C231.455 48.08 231.023 48.194 230.627 48.422C230.231 48.65 229.907 48.986 229.655 49.43C229.415 49.862 229.295 50.378 229.295 50.978C229.295 51.578 229.415 52.106 229.655 52.562C229.907 53.006 230.231 53.348 230.627 53.588C231.035 53.828 231.467 53.948 231.923 53.948C232.391 53.948 232.829 53.834 233.237 53.606C233.645 53.366 233.969 53.03 234.209 52.598C234.449 52.154 234.569 51.626 234.569 51.014ZM242.088 47.486C242.412 47.006 242.856 46.616 243.42 46.316C243.996 46.016 244.65 45.866 245.382 45.866C246.234 45.866 247.002 46.076 247.686 46.496C248.382 46.916 248.928 47.516 249.324 48.296C249.732 49.064 249.936 49.958 249.936 50.978C249.936 51.998 249.732 52.904 249.324 53.696C248.928 54.476 248.382 55.082 247.686 55.514C247.002 55.946 246.234 56.162 245.382 56.162C244.638 56.162 243.984 56.018 243.42 55.73C242.868 55.43 242.424 55.046 242.088 54.578V56H239.568V42.68H242.088V47.486ZM247.362 50.978C247.362 50.378 247.236 49.862 246.984 49.43C246.744 48.986 246.42 48.65 246.012 48.422C245.616 48.194 245.184 48.08 244.716 48.08C244.26 48.08 243.828 48.2 243.42 48.44C243.024 48.668 242.7 49.004 242.448 49.448C242.208 49.892 242.088 50.414 242.088 51.014C242.088 51.614 242.208 52.136 242.448 52.58C242.7 53.024 243.024 53.366 243.42 53.606C243.828 53.834 244.26 53.948 244.716 53.948C245.184 53.948 245.616 53.828 246.012 53.588C246.42 53.348 246.744 53.006 246.984 52.562C247.236 52.118 247.362 51.59 247.362 50.978ZM254.287 42.68V56H251.767V42.68H254.287ZM266.047 50.798C266.047 51.158 266.023 51.482 265.975 51.77H258.685C258.745 52.49 258.997 53.054 259.441 53.462C259.885 53.87 260.431 54.074 261.079 54.074C262.015 54.074 262.681 53.672 263.077 52.868H265.795C265.507 53.828 264.955 54.62 264.139 55.244C263.323 55.856 262.321 56.162 261.133 56.162C260.173 56.162 259.309 55.952 258.541 55.532C257.785 55.1 257.191 54.494 256.759 53.714C256.339 52.934 256.129 52.034 256.129 51.014C256.129 49.982 256.339 49.076 256.759 48.296C257.179 47.516 257.767 46.916 258.523 46.496C259.279 46.076 260.149 45.866 261.133 45.866C262.081 45.866 262.927 46.07 263.671 46.478C264.427 46.886 265.009 47.468 265.417 48.224C265.837 48.968 266.047 49.826 266.047 50.798ZM263.437 50.078C263.425 49.43 263.191 48.914 262.735 48.53C262.279 48.134 261.721 47.936 261.061 47.936C260.437 47.936 259.909 48.128 259.477 48.512C259.057 48.884 258.799 49.406 258.703 50.078H263.437ZM276.514 56.126C275.638 56.126 274.846 55.976 274.138 55.676C273.442 55.376 272.89 54.944 272.482 54.38C272.074 53.816 271.864 53.15 271.852 52.382H274.552C274.588 52.898 274.768 53.306 275.092 53.606C275.428 53.906 275.884 54.056 276.46 54.056C277.048 54.056 277.51 53.918 277.846 53.642C278.182 53.354 278.35 52.982 278.35 52.526C278.35 52.154 278.236 51.848 278.008 51.608C277.78 51.368 277.492 51.182 277.144 51.05C276.808 50.906 276.34 50.75 275.74 50.582C274.924 50.342 274.258 50.108 273.742 49.88C273.238 49.64 272.8 49.286 272.428 48.818C272.068 48.338 271.888 47.702 271.888 46.91C271.888 46.166 272.074 45.518 272.446 44.966C272.818 44.414 273.34 43.994 274.012 43.706C274.684 43.406 275.452 43.256 276.316 43.256C277.612 43.256 278.662 43.574 279.466 44.21C280.282 44.834 280.732 45.71 280.816 46.838H278.044C278.02 46.406 277.834 46.052 277.486 45.776C277.15 45.488 276.7 45.344 276.136 45.344C275.644 45.344 275.248 45.47 274.948 45.722C274.66 45.974 274.516 46.34 274.516 46.82C274.516 47.156 274.624 47.438 274.84 47.666C275.068 47.882 275.344 48.062 275.668 48.206C276.004 48.338 276.472 48.494 277.072 48.674C277.888 48.914 278.554 49.154 279.07 49.394C279.586 49.634 280.03 49.994 280.402 50.474C280.774 50.954 280.96 51.584 280.96 52.364C280.96 53.036 280.786 53.66 280.438 54.236C280.09 54.812 279.58 55.274 278.908 55.622C278.236 55.958 277.438 56.126 276.514 56.126ZM292.558 46.028V56H290.02V54.74C289.696 55.172 289.27 55.514 288.742 55.766C288.226 56.006 287.662 56.126 287.05 56.126C286.27 56.126 285.58 55.964 284.98 55.64C284.38 55.304 283.906 54.818 283.558 54.182C283.222 53.534 283.054 52.766 283.054 51.878V46.028H285.574V51.518C285.574 52.31 285.772 52.922 286.168 53.354C286.564 53.774 287.104 53.984 287.788 53.984C288.484 53.984 289.03 53.774 289.426 53.354C289.822 52.922 290.02 52.31 290.02 51.518V46.028H292.558ZM298.951 45.866C299.695 45.866 300.349 46.016 300.913 46.316C301.477 46.604 301.921 46.982 302.245 47.45V46.028H304.783V56.072C304.783 56.996 304.597 57.818 304.225 58.538C303.853 59.27 303.295 59.846 302.551 60.266C301.807 60.698 300.907 60.914 299.851 60.914C298.435 60.914 297.271 60.584 296.359 59.924C295.459 59.264 294.949 58.364 294.829 57.224H297.331C297.463 57.68 297.745 58.04 298.177 58.304C298.621 58.58 299.155 58.718 299.779 58.718C300.511 58.718 301.105 58.496 301.561 58.052C302.017 57.62 302.245 56.96 302.245 56.072V54.524C301.921 54.992 301.471 55.382 300.895 55.694C300.331 56.006 299.683 56.162 298.951 56.162C298.111 56.162 297.343 55.946 296.647 55.514C295.951 55.082 295.399 54.476 294.991 53.696C294.595 52.904 294.397 51.998 294.397 50.978C294.397 49.97 294.595 49.076 294.991 48.296C295.399 47.516 295.945 46.916 296.629 46.496C297.325 46.076 298.099 45.866 298.951 45.866ZM302.245 51.014C302.245 50.402 302.125 49.88 301.885 49.448C301.645 49.004 301.321 48.668 300.913 48.44C300.505 48.2 300.067 48.08 299.599 48.08C299.131 48.08 298.699 48.194 298.303 48.422C297.907 48.65 297.583 48.986 297.331 49.43C297.091 49.862 296.971 50.378 296.971 50.978C296.971 51.578 297.091 52.106 297.331 52.562C297.583 53.006 297.907 53.348 298.303 53.588C298.711 53.828 299.143 53.948 299.599 53.948C300.067 53.948 300.505 53.834 300.913 53.606C301.321 53.366 301.645 53.03 301.885 52.598C302.125 52.154 302.245 51.626 302.245 51.014ZM311.15 45.866C311.894 45.866 312.548 46.016 313.112 46.316C313.676 46.604 314.12 46.982 314.444 47.45V46.028H316.982V56.072C316.982 56.996 316.796 57.818 316.424 58.538C316.052 59.27 315.494 59.846 314.75 60.266C314.006 60.698 313.106 60.914 312.05 60.914C310.634 60.914 309.47 60.584 308.558 59.924C307.658 59.264 307.148 58.364 307.028 57.224H309.53C309.662 57.68 309.944 58.04 310.376 58.304C310.82 58.58 311.354 58.718 311.978 58.718C312.71 58.718 313.304 58.496 313.76 58.052C314.216 57.62 314.444 56.96 314.444 56.072V54.524C314.12 54.992 313.67 55.382 313.094 55.694C312.53 56.006 311.882 56.162 311.15 56.162C310.31 56.162 309.542 55.946 308.846 55.514C308.15 55.082 307.598 54.476 307.19 53.696C306.794 52.904 306.596 51.998 306.596 50.978C306.596 49.97 306.794 49.076 307.19 48.296C307.598 47.516 308.144 46.916 308.828 46.496C309.524 46.076 310.298 45.866 311.15 45.866ZM314.444 51.014C314.444 50.402 314.324 49.88 314.084 49.448C313.844 49.004 313.52 48.668 313.112 48.44C312.704 48.2 312.266 48.08 311.798 48.08C311.33 48.08 310.898 48.194 310.502 48.422C310.106 48.65 309.782 48.986 309.53 49.43C309.29 49.862 309.17 50.378 309.17 50.978C309.17 51.578 309.29 52.106 309.53 52.562C309.782 53.006 310.106 53.348 310.502 53.588C310.91 53.828 311.342 53.948 311.798 53.948C312.266 53.948 312.704 53.834 313.112 53.606C313.52 53.366 313.844 53.03 314.084 52.598C314.324 52.154 314.444 51.626 314.444 51.014ZM328.713 50.798C328.713 51.158 328.689 51.482 328.641 51.77H321.351C321.411 52.49 321.663 53.054 322.107 53.462C322.551 53.87 323.097 54.074 323.745 54.074C324.681 54.074 325.347 53.672 325.743 52.868H328.461C328.173 53.828 327.621 54.62 326.805 55.244C325.989 55.856 324.987 56.162 323.799 56.162C322.839 56.162 321.975 55.952 321.207 55.532C320.451 55.1 319.857 54.494 319.425 53.714C319.005 52.934 318.795 52.034 318.795 51.014C318.795 49.982 319.005 49.076 319.425 48.296C319.845 47.516 320.433 46.916 321.189 46.496C321.945 46.076 322.815 45.866 323.799 45.866C324.747 45.866 325.593 46.07 326.337 46.478C327.093 46.886 327.675 47.468 328.083 48.224C328.503 48.968 328.713 49.826 328.713 50.798ZM326.103 50.078C326.091 49.43 325.857 48.914 325.401 48.53C324.945 48.134 324.387 47.936 323.727 47.936C323.103 47.936 322.575 48.128 322.143 48.512C321.723 48.884 321.465 49.406 321.369 50.078H326.103ZM334.369 56.162C333.553 56.162 332.821 56.018 332.173 55.73C331.525 55.43 331.009 55.028 330.625 54.524C330.253 54.02 330.049 53.462 330.013 52.85H332.551C332.599 53.234 332.785 53.552 333.109 53.804C333.445 54.056 333.859 54.182 334.351 54.182C334.831 54.182 335.203 54.086 335.467 53.894C335.743 53.702 335.881 53.456 335.881 53.156C335.881 52.832 335.713 52.592 335.377 52.436C335.053 52.268 334.531 52.088 333.811 51.896C333.067 51.716 332.455 51.53 331.975 51.338C331.507 51.146 331.099 50.852 330.751 50.456C330.415 50.06 330.247 49.526 330.247 48.854C330.247 48.302 330.403 47.798 330.715 47.342C331.039 46.886 331.495 46.526 332.083 46.262C332.683 45.998 333.385 45.866 334.189 45.866C335.377 45.866 336.325 46.166 337.033 46.766C337.741 47.354 338.131 48.152 338.203 49.16H335.791C335.755 48.764 335.587 48.452 335.287 48.224C334.999 47.984 334.609 47.864 334.117 47.864C333.661 47.864 333.307 47.948 333.055 48.116C332.815 48.284 332.695 48.518 332.695 48.818C332.695 49.154 332.863 49.412 333.199 49.592C333.535 49.76 334.057 49.934 334.765 50.114C335.485 50.294 336.079 50.48 336.547 50.672C337.015 50.864 337.417 51.164 337.753 51.572C338.101 51.968 338.281 52.496 338.293 53.156C338.293 53.732 338.131 54.248 337.807 54.704C337.495 55.16 337.039 55.52 336.439 55.784C335.851 56.036 335.161 56.162 334.369 56.162ZM343.295 48.098V52.922C343.295 53.258 343.373 53.504 343.529 53.66C343.697 53.804 343.973 53.876 344.357 53.876H345.527V56H343.943C341.819 56 340.757 54.968 340.757 52.904V48.098H339.569V46.028H340.757V43.562H343.295V46.028H345.527V48.098H343.295ZM348.618 44.84C348.174 44.84 347.802 44.702 347.502 44.426C347.214 44.138 347.07 43.784 347.07 43.364C347.07 42.944 347.214 42.596 347.502 42.32C347.802 42.032 348.174 41.888 348.618 41.888C349.062 41.888 349.428 42.032 349.716 42.32C350.016 42.596 350.166 42.944 350.166 43.364C350.166 43.784 350.016 44.138 349.716 44.426C349.428 44.702 349.062 44.84 348.618 44.84ZM349.86 46.028V56H347.34V46.028H349.86ZM356.777 56.162C355.817 56.162 354.953 55.952 354.185 55.532C353.417 55.1 352.811 54.494 352.367 53.714C351.935 52.934 351.719 52.034 351.719 51.014C351.719 49.994 351.941 49.094 352.385 48.314C352.841 47.534 353.459 46.934 354.239 46.514C355.019 46.082 355.889 45.866 356.849 45.866C357.809 45.866 358.679 46.082 359.459 46.514C360.239 46.934 360.851 47.534 361.295 48.314C361.751 49.094 361.979 49.994 361.979 51.014C361.979 52.034 361.745 52.934 361.277 53.714C360.821 54.494 360.197 55.1 359.405 55.532C358.625 55.952 357.749 56.162 356.777 56.162ZM356.777 53.966C357.233 53.966 357.659 53.858 358.055 53.642C358.463 53.414 358.787 53.078 359.027 52.634C359.267 52.19 359.387 51.65 359.387 51.014C359.387 50.066 359.135 49.34 358.631 48.836C358.139 48.32 357.533 48.062 356.813 48.062C356.093 48.062 355.487 48.32 354.995 48.836C354.515 49.34 354.275 50.066 354.275 51.014C354.275 51.962 354.509 52.694 354.977 53.21C355.457 53.714 356.057 53.966 356.777 53.966ZM369.354 45.884C370.542 45.884 371.502 46.262 372.234 47.018C372.966 47.762 373.332 48.806 373.332 50.15V56H370.812V50.492C370.812 49.7 370.614 49.094 370.218 48.674C369.822 48.242 369.282 48.026 368.598 48.026C367.902 48.026 367.35 48.242 366.942 48.674C366.546 49.094 366.348 49.7 366.348 50.492V56H363.828V46.028H366.348V47.27C366.684 46.838 367.11 46.502 367.626 46.262C368.154 46.01 368.73 45.884 369.354 45.884ZM378.986 43.22L378.698 51.914H376.574L376.268 43.22H378.986ZM377.69 56.126C377.234 56.126 376.856 55.988 376.556 55.712C376.268 55.424 376.124 55.07 376.124 54.65C376.124 54.23 376.268 53.882 376.556 53.606C376.856 53.318 377.234 53.174 377.69 53.174C378.134 53.174 378.5 53.318 378.788 53.606C379.076 53.882 379.22 54.23 379.22 54.65C379.22 55.07 379.076 55.424 378.788 55.712C378.5 55.988 378.134 56.126 377.69 56.126Z" fill="#0F0F0F"/>
</g>
<defs>
<filter id="filter0_d_1_5139" x="0" y="0" width="417" height="119.229" filterUnits="userSpaceOnUse" color-interpolation-filters="sRGB">
<feFlood flood-opacity="0" result="BackgroundImageFix"/>
<feColorMatrix in="SourceAlpha" type="matrix" values="0 0 0 0 0 0 0 0 0 0 0 0 0 0 0 0 0 0 127 0" result="hardAlpha"/>
<feOffset dx="-2" dy="4"/>
<feGaussianBlur stdDeviation="15"/>
<feComposite in2="hardAlpha" operator="out"/>
<feColorMatrix type="matrix" values="0 0 0 0 0 0 0 0 0 0 0 0 0 0 0 0 0 0 0.2 0"/>
<feBlend mode="normal" in2="BackgroundImageFix" result="effect1_dropShadow_1_5139"/>
<feBlend mode="normal" in="SourceGraphic" in2="effect1_dropShadow_1_5139" result="shape"/>
</filter>
</defs>
</svg>
